<svg xmlns="http://www.w3.org/2000/svg" xmlns:xlink="http://www.w3.org/1999/xlink" width="316" zoomAndPan="magnify" viewBox="0 0 236.87999 104.999996" height="140" preserveAspectRatio="xMidYMid meet" version="1.2"><defs><clipPath id="70c0327aff"><path d="M 0 4.453125 L 236.652344 4.453125 L 236.652344 103.621094 L 0 103.621094 Z M 0 4.453125 "/></clipPath><clipPath id="fa6c2366de"><path d="M 10.484375 103.214844 L 225.753906 103.214844 C 228.535156 103.214844 231.207031 102.109375 233.171875 100.144531 C 235.140625 98.175781 236.246094 95.503906 236.246094 92.722656 L 236.246094 51.4375 C 236.246094 48.65625 235.140625 45.984375 233.171875 44.019531 C 231.207031 42.050781 228.535156 40.945312 225.753906 40.945312 L 212.453125 40.945312 C 209.671875 40.945312 207 39.839844 205.035156 37.871094 C 203.066406 35.902344 201.960938 33.234375 201.960938 30.449219 L 201.960938 10.515625 C 201.960938 8.390625 200.8125 6.429688 198.957031 5.390625 C 197.101562 4.351562 194.828125 4.398438 193.015625 5.511719 L 144.261719 35.453125 C 138.414062 39.042969 131.6875 40.945312 124.824219 40.945312 L 10.484375 40.945312 C 7.699219 40.945312 5.03125 42.050781 3.0625 44.019531 C 1.09375 45.984375 -0.0117188 48.65625 -0.0117188 51.4375 L -0.0117188 92.722656 C -0.0117188 95.503906 1.09375 98.175781 3.0625 100.144531 C 5.03125 102.109375 7.699219 103.214844 10.484375 103.214844 Z M 10.484375 103.214844 "/></clipPath></defs><g id="4092d708d3"><g clip-rule="nonzero" clip-path="url(#70c0327aff)"><g clip-rule="nonzero" clip-path="url(#fa6c2366de)"><path style=" stroke:none;fill-rule:nonzero;fill:#ffcf7e;fill-opacity:1;" d="M 236.246094 103.214844 L 0.0234375 103.214844 L 0.0234375 0.0195312 L 236.246094 0.0195312 Z M 236.246094 103.214844 "/></g></g><g style="fill:#303144;fill-opacity:1;"><g transform="translate(10.887907, 83.422483)"><path style="stroke:none" d="M 8.359375 -10.4375 C 8.359375 -9.894531 8.140625 -9.625 7.703125 -9.625 L 3.703125 -9.625 C 3.222656 -9.625 2.984375 -9.894531 2.984375 -10.4375 L 2.984375 -15.609375 C 2.984375 -15.890625 2.84375 -16.03125 2.5625 -16.03125 L 2.25 -16.03125 C 1.820312 -16.03125 1.585938 -16.300781 1.546875 -16.84375 L 1.140625 -23.28125 L 1.140625 -23.359375 C 1.140625 -23.898438 1.394531 -24.171875 1.90625 -24.171875 L 7.546875 -24.171875 C 8.085938 -24.171875 8.359375 -23.875 8.359375 -23.28125 Z M 8.359375 -10.4375 "/></g></g><g style="fill:#303144;fill-opacity:1;"><g transform="translate(20.524698, 83.422483)"><path style="stroke:none" d="M 14.15625 -23.28125 L 12.84375 -0.859375 C 12.800781 -0.285156 12.515625 0 11.984375 0 L 5.640625 0 C 5.109375 0 4.820312 -0.285156 4.78125 -0.859375 L 4.40625 -7.203125 L 4.40625 -7.3125 C 4.40625 -7.882812 4.660156 -8.171875 5.171875 -8.171875 L 7.625 -8.171875 C 7.914062 -8.171875 8.066406 -8.316406 8.078125 -8.609375 L 8.40625 -15.453125 L 8.40625 -15.515625 C 8.40625 -15.828125 8.265625 -15.984375 7.984375 -15.984375 L 2.171875 -15.984375 C 1.628906 -15.984375 1.34375 -16.257812 1.3125 -16.8125 L 0.703125 -27.8125 L 0.703125 -27.984375 C 0.703125 -28.492188 0.921875 -28.75 1.359375 -28.75 L 5.21875 -28.75 C 5.769531 -28.75 6.054688 -28.460938 6.078125 -27.890625 L 6.234375 -24.71875 C 6.242188 -24.351562 6.394531 -24.171875 6.6875 -24.171875 L 13.375 -24.140625 C 13.894531 -24.140625 14.15625 -23.890625 14.15625 -23.390625 Z M 14.15625 -23.28125 "/></g></g><g style="fill:#303144;fill-opacity:1;"><g transform="translate(35.816136, 83.422483)"><path style="stroke:none" d="M 17.078125 -23.28125 L 15.75 -0.859375 C 15.707031 -0.285156 15.421875 0 14.890625 0 L 3.390625 0 C 2.859375 0 2.570312 -0.285156 2.53125 -0.859375 L 1.140625 -23.28125 L 1.140625 -23.359375 C 1.140625 -23.898438 1.394531 -24.171875 1.90625 -24.171875 L 5.71875 -24.171875 C 6.25 -24.171875 6.535156 -23.875 6.578125 -23.28125 L 7.421875 -8.484375 C 7.441406 -8.242188 7.585938 -8.125 7.859375 -8.125 L 10.359375 -8.125 C 10.609375 -8.125 10.742188 -8.242188 10.765625 -8.484375 L 11.296875 -15.53125 L 11.296875 -15.625 C 11.296875 -15.863281 11.175781 -15.984375 10.9375 -15.984375 L 9.65625 -15.984375 C 9.101562 -15.984375 8.816406 -16.242188 8.796875 -16.765625 L 8.609375 -23.28125 L 8.609375 -23.34375 C 8.609375 -23.875 8.863281 -24.140625 9.375 -24.140625 L 16.3125 -24.140625 C 16.820312 -24.140625 17.078125 -23.882812 17.078125 -23.375 Z M 17.078125 -23.28125 "/></g></g><g style="fill:#303144;fill-opacity:1;"><g transform="translate(54.05436, 83.422483)"><path style="stroke:none" d="M 8.359375 -10.4375 C 8.359375 -9.894531 8.140625 -9.625 7.703125 -9.625 L 3.703125 -9.625 C 3.222656 -9.625 2.984375 -9.894531 2.984375 -10.4375 L 2.984375 -15.609375 C 2.984375 -15.890625 2.84375 -16.03125 2.5625 -16.03125 L 2.25 -16.03125 C 1.820312 -16.03125 1.585938 -16.300781 1.546875 -16.84375 L 1.140625 -23.28125 L 1.140625 -23.359375 C 1.140625 -23.898438 1.394531 -24.171875 1.90625 -24.171875 L 7.546875 -24.171875 C 8.085938 -24.171875 8.359375 -23.875 8.359375 -23.28125 Z M 8.359375 -10.4375 "/></g></g><g style="fill:#303144;fill-opacity:1;"><g transform="translate(63.691152, 83.422483)"><path style="stroke:none" d="M 11.75 -0.734375 C 11.75 -0.242188 11.488281 0 10.96875 0 L 7.171875 0 C 6.703125 0 6.460938 -0.242188 6.453125 -0.734375 L 6.3125 -2.890625 L 1.796875 0.8125 C 1.648438 0.914062 1.507812 0.96875 1.375 0.96875 C 1 0.96875 0.8125 0.742188 0.8125 0.296875 L 0.8125 0.203125 L 1.390625 -7.125 C 1.429688 -7.613281 1.691406 -8.015625 2.171875 -8.328125 L 5.71875 -10.546875 L 5.375 -15.578125 C 5.351562 -15.847656 5.222656 -15.984375 4.984375 -15.984375 L 3.34375 -15.984375 C 2.695312 -15.984375 2.375 -16.234375 2.375 -16.734375 L 2.375 -16.890625 L 2.8125 -23.375 C 2.851562 -23.90625 3.109375 -24.171875 3.578125 -24.171875 L 9.625 -24.171875 C 10.09375 -24.171875 10.347656 -23.882812 10.390625 -23.3125 L 11.75 -0.859375 Z M 11.75 -0.734375 "/></g></g><g style="fill:#303144;fill-opacity:1;"><g transform="translate(76.234909, 83.422483)"><path style="stroke:none" d="M 8.359375 -10.4375 C 8.359375 -9.894531 8.140625 -9.625 7.703125 -9.625 L 3.703125 -9.625 C 3.222656 -9.625 2.984375 -9.894531 2.984375 -10.4375 L 2.984375 -15.609375 C 2.984375 -15.890625 2.84375 -16.03125 2.5625 -16.03125 L 2.25 -16.03125 C 1.820312 -16.03125 1.585938 -16.300781 1.546875 -16.84375 L 1.140625 -23.28125 L 1.140625 -23.359375 C 1.140625 -23.898438 1.394531 -24.171875 1.90625 -24.171875 L 7.546875 -24.171875 C 8.085938 -24.171875 8.359375 -23.875 8.359375 -23.28125 Z M 8.359375 -10.4375 "/></g></g><g style="fill:#303144;fill-opacity:1;"><g transform="translate(85.871701, 83.422483)"><path style="stroke:none" d="M 14.234375 -23.15625 L 13.8125 -17.203125 C 13.75 -16.421875 13.492188 -16.03125 13.046875 -16.03125 L 11.828125 -16.03125 L 11.828125 -0.859375 C 11.828125 -0.285156 11.515625 0 10.890625 0 L 7.265625 0 C 6.691406 0 6.40625 -0.296875 6.40625 -0.890625 L 6.40625 -16.03125 L 1.515625 -16.03125 C 1.003906 -16.03125 0.734375 -16.421875 0.703125 -17.203125 L 0.390625 -23.15625 L 0.390625 -23.296875 C 0.390625 -23.878906 0.675781 -24.171875 1.25 -24.171875 L 13.5 -24.171875 C 13.988281 -24.171875 14.234375 -23.882812 14.234375 -23.3125 Z M 14.234375 -23.15625 "/></g></g><g style="fill:#303144;fill-opacity:1;"><g transform="translate(100.525995, 83.422483)"><path style="stroke:none" d="M 15.984375 -0.921875 C 15.984375 -0.304688 15.710938 0 15.171875 0 L 11.515625 0 C 10.910156 0 10.585938 -0.335938 10.546875 -1.015625 L 9.703125 -15.375 C 9.671875 -15.8125 9.484375 -16.03125 9.140625 -16.03125 L 2.890625 -16.03125 C 2.265625 -16.03125 1.953125 -16.378906 1.953125 -17.078125 L 1.953125 -17.203125 L 2.296875 -23.203125 C 2.328125 -23.847656 2.675781 -24.171875 3.34375 -24.171875 L 13.78125 -24.171875 C 14.394531 -24.171875 14.71875 -23.820312 14.75 -23.125 L 15.984375 -1.015625 Z M 6.6875 -10.59375 L 6.40625 -0.9375 C 6.382812 -0.3125 6.054688 0 5.421875 0 L 1.953125 0 C 1.410156 0 1.140625 -0.316406 1.140625 -0.953125 L 1.140625 -1.015625 L 1.515625 -10.6875 C 1.523438 -11.34375 1.890625 -11.671875 2.609375 -11.671875 L 5.75 -11.671875 C 6.375 -11.671875 6.6875 -11.335938 6.6875 -10.671875 Z M 6.6875 -10.59375 "/></g></g><g style="fill:#303144;fill-opacity:1;"><g transform="translate(117.66913, 83.422483)"><path style="stroke:none" d=""/></g></g><g style="fill:#303144;fill-opacity:1;"><g transform="translate(126.688689, 83.422483)"><path style="stroke:none" d="M 17.171875 -23.3125 L 15.828125 -0.890625 C 15.785156 -0.296875 15.488281 0 14.9375 0 L 3.3125 0 C 2.78125 0 2.492188 -0.296875 2.453125 -0.890625 L 1.09375 -23.3125 L 1.09375 -23.421875 C 1.09375 -23.921875 1.351562 -24.171875 1.875 -24.171875 L 16.390625 -24.171875 C 16.910156 -24.171875 17.171875 -23.90625 17.171875 -23.375 Z M 11.375 -15.6875 C 11.375 -15.9375 11.253906 -16.0625 11.015625 -16.0625 L 7.203125 -16.0625 C 6.960938 -16.0625 6.84375 -15.945312 6.84375 -15.71875 L 6.84375 -15.65625 L 7.421875 -8.4375 C 7.441406 -8.28125 7.535156 -8.203125 7.703125 -8.203125 L 10.65625 -8.203125 C 10.84375 -8.203125 10.945312 -8.28125 10.96875 -8.4375 L 11.375 -15.65625 Z M 11.375 -15.6875 "/></g></g><g style="fill:#303144;fill-opacity:1;"><g transform="translate(145.026467, 83.422483)"><path style="stroke:none" d="M 7.984375 -0.8125 C 7.984375 -0.269531 7.785156 0 7.390625 0 L 3.34375 0 C 2.851562 0 2.609375 -0.269531 2.609375 -0.8125 L 2.609375 -15.65625 C 2.609375 -15.90625 2.515625 -16.03125 2.328125 -16.03125 L 2.109375 -16.03125 C 1.773438 -16.03125 1.585938 -16.300781 1.546875 -16.84375 L 1.140625 -23.28125 L 1.140625 -23.34375 C 1.140625 -23.894531 1.394531 -24.171875 1.90625 -24.171875 L 7.171875 -24.171875 C 7.710938 -24.171875 7.984375 -23.875 7.984375 -23.28125 Z M 7.984375 -0.8125 "/></g></g><g style="fill:#303144;fill-opacity:1;"><g transform="translate(154.304874, 83.422483)"><path style="stroke:none" d="M 16.8125 -0.796875 C 16.8125 -0.265625 16.550781 0 16.03125 0 L 1.90625 0 C 1.394531 0 1.140625 -0.269531 1.140625 -0.8125 L 1.140625 -0.859375 L 1.515625 -7.203125 C 1.554688 -7.847656 1.84375 -8.171875 2.375 -8.171875 L 10.15625 -8.171875 C 10.644531 -8.171875 10.890625 -8.359375 10.890625 -8.734375 L 10.890625 -8.796875 L 10.515625 -15.578125 C 10.484375 -15.847656 10.257812 -15.984375 9.84375 -15.984375 L 8.171875 -15.984375 C 7.765625 -15.984375 7.539062 -15.789062 7.5 -15.40625 L 7.125 -11.328125 C 7.082031 -10.835938 6.785156 -10.59375 6.234375 -10.59375 L 2.453125 -10.59375 C 1.960938 -10.59375 1.71875 -10.84375 1.71875 -11.34375 L 1.71875 -11.40625 L 2.8125 -23.28125 C 2.863281 -23.875 3.160156 -24.171875 3.703125 -24.171875 L 14.59375 -24.171875 C 15.125 -24.171875 15.410156 -23.875 15.453125 -23.28125 L 16.8125 -0.859375 Z M 16.8125 -0.796875 "/></g></g><g style="fill:#303144;fill-opacity:1;"><g transform="translate(172.264331, 83.422483)"><path style="stroke:none" d="M 17.25 -0.796875 C 17.25 -0.265625 16.988281 0 16.46875 0 L 9.015625 0 C 8.503906 0 8.25 -0.269531 8.25 -0.8125 L 8.25 -0.859375 L 8.609375 -7.171875 C 8.640625 -7.835938 8.921875 -8.171875 9.453125 -8.171875 L 11.015625 -8.171875 C 11.265625 -8.171875 11.390625 -8.296875 11.390625 -8.546875 C 11.390625 -8.597656 11.382812 -8.628906 11.375 -8.640625 L 10.9375 -15.53125 C 10.914062 -15.863281 10.757812 -16.03125 10.46875 -16.03125 L 7.90625 -16.03125 C 7.625 -16.03125 7.476562 -15.863281 7.46875 -15.53125 L 6.578125 -0.859375 C 6.535156 -0.285156 6.25 0 5.71875 0 L 1.90625 0 C 1.394531 0 1.140625 -0.269531 1.140625 -0.8125 L 1.140625 -0.859375 L 2.5625 -23.28125 C 2.601562 -23.875 2.90625 -24.171875 3.46875 -24.171875 L 14.96875 -24.171875 C 15.5 -24.171875 15.785156 -23.875 15.828125 -23.28125 L 17.25 -0.859375 Z M 17.25 -0.796875 "/></g></g><g style="fill:#303144;fill-opacity:1;"><g transform="translate(190.661842, 83.422483)"><path style="stroke:none" d="M 16.375 -23.265625 C 16.375 -23.242188 16.375 -23.207031 16.375 -23.15625 C 16.375 -23.101562 16.363281 -23.023438 16.34375 -22.921875 L 15.015625 -1.546875 C 14.984375 -1.140625 14.816406 -0.78125 14.515625 -0.46875 C 14.210938 -0.15625 13.863281 0 13.46875 0 L 9.296875 0 C 8.753906 0 8.484375 -0.3125 8.484375 -0.9375 L 8.484375 -7.390625 C 8.484375 -7.910156 8.78125 -8.171875 9.375 -8.171875 C 9.757812 -8.171875 9.96875 -8.367188 10 -8.765625 L 10.546875 -15.453125 C 10.566406 -15.472656 10.578125 -15.503906 10.578125 -15.546875 C 10.578125 -15.867188 10.453125 -16.03125 10.203125 -16.03125 L 2.375 -16.03125 C 1.882812 -16.03125 1.625 -16.300781 1.59375 -16.84375 L 1.21875 -23.078125 L 1.21875 -23.3125 C 1.21875 -23.882812 1.460938 -24.171875 1.953125 -24.171875 L 15.75 -24.140625 C 16.164062 -24.140625 16.375 -23.847656 16.375 -23.265625 Z M 7.203125 3.265625 C 7.203125 3.835938 6.890625 4.125 6.265625 4.125 L 2.890625 4.125 C 2.210938 4.125 1.875 3.835938 1.875 3.265625 L 1.875 -10.859375 C 1.875 -11.398438 2.210938 -11.671875 2.890625 -11.671875 L 6.265625 -11.671875 C 6.890625 -11.671875 7.203125 -11.398438 7.203125 -10.859375 Z M 7.203125 3.265625 "/></g></g><g style="fill:#303144;fill-opacity:1;"><g transform="translate(208.18328, 83.422483)"><path style="stroke:none" d="M 15.984375 -0.921875 C 15.984375 -0.304688 15.710938 0 15.171875 0 L 11.515625 0 C 10.910156 0 10.585938 -0.335938 10.546875 -1.015625 L 9.703125 -15.375 C 9.671875 -15.8125 9.484375 -16.03125 9.140625 -16.03125 L 2.890625 -16.03125 C 2.265625 -16.03125 1.953125 -16.378906 1.953125 -17.078125 L 1.953125 -17.203125 L 2.296875 -23.203125 C 2.328125 -23.847656 2.675781 -24.171875 3.34375 -24.171875 L 13.78125 -24.171875 C 14.394531 -24.171875 14.71875 -23.820312 14.75 -23.125 L 15.984375 -1.015625 Z M 6.6875 -10.59375 L 6.40625 -0.9375 C 6.382812 -0.3125 6.054688 0 5.421875 0 L 1.953125 0 C 1.410156 0 1.140625 -0.316406 1.140625 -0.953125 L 1.140625 -1.015625 L 1.515625 -10.6875 C 1.523438 -11.34375 1.890625 -11.671875 2.609375 -11.671875 L 5.75 -11.671875 C 6.375 -11.671875 6.6875 -11.335938 6.6875 -10.671875 Z M 6.6875 -10.59375 "/></g></g></g></svg>