<svg xmlns="http://www.w3.org/2000/svg" xmlns:xlink="http://www.w3.org/1999/xlink" width="250" zoomAndPan="magnify" viewBox="0 0 187.5 106.499997" height="142" preserveAspectRatio="xMidYMid meet" version="1.2"><defs><clipPath id="4948ac3b98"><path d="M 0.1875 2.410156 L 186.8125 2.410156 L 186.8125 101 L 0.1875 101 Z M 0.1875 2.410156 "/></clipPath><clipPath id="5a8e458419"><path d="M 176.148438 2.8125 L 10.640625 2.8125 C 7.867188 2.8125 5.210938 3.914062 3.25 5.875 C 1.289062 7.832031 0.1875 10.492188 0.1875 13.261719 L 0.1875 54.375 C 0.1875 57.144531 1.289062 59.804688 3.25 61.765625 C 5.210938 63.722656 7.867188 64.824219 10.640625 64.824219 L 23.882812 64.824219 C 26.65625 64.824219 29.3125 65.925781 31.273438 67.886719 C 33.234375 69.847656 34.332031 72.503906 34.332031 75.277344 L 34.332031 95.128906 C 34.332031 97.246094 35.476562 99.195312 37.324219 100.230469 C 39.171875 101.261719 41.4375 101.21875 43.238281 100.109375 L 91.789062 70.292969 C 97.613281 66.71875 104.3125 64.824219 111.148438 64.824219 L 176.148438 64.824219 C 178.917969 64.824219 181.578125 63.722656 183.539062 61.765625 C 185.496094 59.804688 186.597656 57.144531 186.597656 54.375 L 186.597656 13.261719 C 186.597656 10.492188 185.496094 7.832031 183.539062 5.875 C 181.578125 3.914062 178.917969 2.8125 176.148438 2.8125 Z M 176.148438 2.8125 "/></clipPath></defs><g id="06f45e8eb6"><g clip-rule="nonzero" clip-path="url(#4948ac3b98)"><g clip-rule="nonzero" clip-path="url(#5a8e458419)"><path style=" stroke:none;fill-rule:nonzero;fill:#ffcf7e;fill-opacity:1;" d="M 0.1875 2.8125 L 186.453125 2.8125 L 186.453125 105.578125 L 0.1875 105.578125 Z M 0.1875 2.8125 "/></g></g><g style="fill:#303144;fill-opacity:1;"><g transform="translate(10.842769, 43.767596)"><path style="stroke:none" d="M 17.09375 -23.21875 L 15.765625 -0.890625 C 15.722656 -0.296875 15.425781 0 14.875 0 L 3.296875 0 C 2.765625 0 2.476562 -0.296875 2.4375 -0.890625 L 1.09375 -23.21875 L 1.09375 -23.3125 C 1.09375 -23.820312 1.347656 -24.078125 1.859375 -24.078125 L 16.3125 -24.078125 C 16.832031 -24.078125 17.09375 -23.8125 17.09375 -23.28125 Z M 11.328125 -15.625 C 11.328125 -15.875 11.207031 -16 10.96875 -16 L 7.171875 -16 C 6.941406 -16 6.828125 -15.878906 6.828125 -15.640625 L 6.828125 -15.578125 L 7.390625 -8.40625 C 7.410156 -8.25 7.503906 -8.171875 7.671875 -8.171875 L 10.609375 -8.171875 C 10.796875 -8.171875 10.898438 -8.25 10.921875 -8.40625 L 11.328125 -15.578125 Z M 11.328125 -15.625 "/></g></g><g style="fill:#303144;fill-opacity:1;"><g transform="translate(29.104104, 43.767596)"><path style="stroke:none" d="M 9.796875 -26.546875 C 9.796875 -26.390625 9.78125 -26.242188 9.75 -26.109375 L 7.359375 -16.359375 C 7.253906 -15.960938 6.976562 -15.765625 6.53125 -15.765625 C 5.914062 -15.765625 5.609375 -16.0625 5.609375 -16.65625 L 5.609375 -26.03125 C 5.609375 -26.757812 5.832031 -27.125 6.28125 -27.125 L 9.34375 -27.125 C 9.644531 -27.125 9.796875 -26.929688 9.796875 -26.546875 Z M 5.0625 -26.546875 C 5.0625 -26.421875 5.039062 -26.273438 5 -26.109375 L 2.59375 -16.359375 C 2.488281 -15.960938 2.207031 -15.765625 1.75 -15.765625 C 1.125 -15.765625 0.8125 -16.0625 0.8125 -16.65625 L 0.8125 -26.03125 C 0.8125 -26.757812 1.054688 -27.125 1.546875 -27.125 L 4.578125 -27.125 C 4.898438 -27.125 5.0625 -26.929688 5.0625 -26.546875 Z M 5.0625 -26.546875 "/></g></g><g style="fill:#303144;fill-opacity:1;"><g transform="translate(39.454176, 43.767596)"><path style="stroke:none" d="M 17.171875 -0.796875 C 17.171875 -0.265625 16.910156 0 16.390625 0 L 8.984375 0 C 8.460938 0 8.203125 -0.269531 8.203125 -0.8125 L 8.203125 -0.859375 L 8.5625 -7.140625 C 8.601562 -7.796875 8.890625 -8.125 9.421875 -8.125 L 10.96875 -8.125 C 11.21875 -8.125 11.34375 -8.25 11.34375 -8.5 C 11.34375 -8.550781 11.335938 -8.585938 11.328125 -8.609375 L 10.890625 -15.46875 C 10.867188 -15.800781 10.71875 -15.96875 10.4375 -15.96875 L 7.875 -15.96875 C 7.59375 -15.96875 7.445312 -15.800781 7.4375 -15.46875 L 6.546875 -0.859375 C 6.503906 -0.285156 6.21875 0 5.6875 0 L 1.90625 0 C 1.382812 0 1.125 -0.269531 1.125 -0.8125 L 1.125 -0.859375 L 2.5625 -23.1875 C 2.601562 -23.78125 2.898438 -24.078125 3.453125 -24.078125 L 14.90625 -24.078125 C 15.4375 -24.078125 15.722656 -23.78125 15.765625 -23.1875 L 17.171875 -0.859375 Z M 17.171875 -0.796875 "/></g></g><g style="fill:#303144;fill-opacity:1;"><g transform="translate(57.774993, 43.767596)"><path style="stroke:none" d="M 7.953125 -0.8125 C 7.953125 -0.269531 7.753906 0 7.359375 0 L 3.328125 0 C 2.835938 0 2.59375 -0.269531 2.59375 -0.8125 L 2.59375 -15.578125 C 2.59375 -15.835938 2.5 -15.96875 2.3125 -15.96875 L 2.109375 -15.96875 C 1.773438 -15.96875 1.585938 -16.238281 1.546875 -16.78125 L 1.125 -23.1875 L 1.125 -23.234375 C 1.125 -23.796875 1.382812 -24.078125 1.90625 -24.078125 L 7.140625 -24.078125 C 7.679688 -24.078125 7.953125 -23.78125 7.953125 -23.1875 Z M 7.953125 -0.8125 "/></g></g><g style="fill:#303144;fill-opacity:1;"><g transform="translate(67.014713, 43.767596)"><path style="stroke:none" d="M 16.734375 -0.65625 C 16.734375 -0.21875 16.539062 0 16.15625 0 L 12.21875 0 C 11.78125 0 11.539062 -0.285156 11.5 -0.859375 L 10.46875 -15.578125 C 10.445312 -15.804688 10.300781 -15.921875 10.03125 -15.921875 L 7.796875 -15.921875 C 7.597656 -15.921875 7.488281 -15.796875 7.46875 -15.546875 L 6.390625 -0.859375 C 6.347656 -0.285156 6.085938 0 5.609375 0 L 1.78125 0 C 1.34375 0 1.125 -0.265625 1.125 -0.796875 L 1.125 -0.859375 L 2.5625 -23.1875 C 2.601562 -23.78125 2.882812 -24.078125 3.40625 -24.078125 L 14.609375 -24.078125 C 15.140625 -24.078125 15.425781 -23.78125 15.46875 -23.1875 L 16.734375 -0.859375 Z M 16.734375 -0.65625 "/></g></g><g style="fill:#303144;fill-opacity:1;"><g transform="translate(84.89932, 43.767596)"><path style="stroke:none" d="M 15.921875 -0.90625 C 15.921875 -0.300781 15.648438 0 15.109375 0 L 11.46875 0 C 10.863281 0 10.546875 -0.335938 10.515625 -1.015625 L 9.65625 -15.3125 C 9.625 -15.75 9.4375 -15.96875 9.09375 -15.96875 L 2.875 -15.96875 C 2.25 -15.96875 1.9375 -16.316406 1.9375 -17.015625 L 1.9375 -17.125 L 2.28125 -23.09375 C 2.320312 -23.75 2.671875 -24.078125 3.328125 -24.078125 L 13.71875 -24.078125 C 14.332031 -24.078125 14.65625 -23.722656 14.6875 -23.015625 L 15.921875 -1.015625 Z M 6.65625 -10.546875 L 6.390625 -0.9375 C 6.359375 -0.3125 6.023438 0 5.390625 0 L 1.9375 0 C 1.394531 0 1.125 -0.316406 1.125 -0.953125 L 1.125 -1.015625 L 1.5 -10.640625 C 1.519531 -11.296875 1.882812 -11.625 2.59375 -11.625 L 5.734375 -11.625 C 6.347656 -11.625 6.65625 -11.289062 6.65625 -10.625 Z M 6.65625 -10.546875 "/></g></g><g style="fill:#303144;fill-opacity:1;"><g transform="translate(101.970991, 43.767596)"><path style="stroke:none" d=""/></g></g><g style="fill:#303144;fill-opacity:1;"><g transform="translate(110.95295, 43.767596)"><path style="stroke:none" d="M 17.09375 -23.21875 L 15.765625 -0.890625 C 15.722656 -0.296875 15.425781 0 14.875 0 L 3.296875 0 C 2.765625 0 2.476562 -0.296875 2.4375 -0.890625 L 1.09375 -23.21875 L 1.09375 -23.3125 C 1.09375 -23.820312 1.347656 -24.078125 1.859375 -24.078125 L 16.3125 -24.078125 C 16.832031 -24.078125 17.09375 -23.8125 17.09375 -23.28125 Z M 11.328125 -15.625 C 11.328125 -15.875 11.207031 -16 10.96875 -16 L 7.171875 -16 C 6.941406 -16 6.828125 -15.878906 6.828125 -15.640625 L 6.828125 -15.578125 L 7.390625 -8.40625 C 7.410156 -8.25 7.503906 -8.171875 7.671875 -8.171875 L 10.609375 -8.171875 C 10.796875 -8.171875 10.898438 -8.25 10.921875 -8.40625 L 11.328125 -15.578125 Z M 11.328125 -15.625 "/></g></g><g style="fill:#303144;fill-opacity:1;"><g transform="translate(129.214285, 43.767596)"><path style="stroke:none" d="M 16.296875 -23.15625 C 16.296875 -23.144531 16.296875 -23.113281 16.296875 -23.0625 C 16.296875 -23.007812 16.289062 -22.929688 16.28125 -22.828125 L 14.953125 -1.546875 C 14.921875 -1.140625 14.753906 -0.78125 14.453125 -0.46875 C 14.148438 -0.15625 13.800781 0 13.40625 0 L 9.265625 0 C 8.722656 0 8.453125 -0.3125 8.453125 -0.9375 L 8.453125 -7.359375 C 8.453125 -7.867188 8.75 -8.125 9.34375 -8.125 C 9.726562 -8.125 9.929688 -8.320312 9.953125 -8.71875 L 10.515625 -15.390625 C 10.523438 -15.410156 10.53125 -15.441406 10.53125 -15.484375 C 10.53125 -15.804688 10.40625 -15.96875 10.15625 -15.96875 L 2.359375 -15.96875 C 1.867188 -15.96875 1.613281 -16.238281 1.59375 -16.78125 L 1.203125 -22.984375 L 1.203125 -23.21875 C 1.203125 -23.789062 1.445312 -24.078125 1.9375 -24.078125 L 15.6875 -24.03125 C 16.09375 -24.03125 16.296875 -23.738281 16.296875 -23.15625 Z M 7.171875 3.25 C 7.171875 3.820312 6.863281 4.109375 6.25 4.109375 L 2.875 4.109375 C 2.195312 4.109375 1.859375 3.820312 1.859375 3.25 L 1.859375 -10.8125 C 1.859375 -11.351562 2.195312 -11.625 2.875 -11.625 L 6.25 -11.625 C 6.863281 -11.625 7.171875 -11.351562 7.171875 -10.8125 Z M 7.171875 3.25 "/></g></g><g style="fill:#303144;fill-opacity:1;"><g transform="translate(146.662682, 43.767596)"><path style="stroke:none" d="M 11.375 -0.765625 C 11.375 -0.253906 11.117188 0 10.609375 0 L 1.546875 0 C 1.054688 0 0.8125 -0.253906 0.8125 -0.765625 L 0.8125 -0.859375 L 1.421875 -7.28125 C 1.472656 -7.84375 1.757812 -8.125 2.28125 -8.125 L 5.1875 -8.125 C 5.5 -8.125 5.65625 -8.210938 5.65625 -8.390625 L 5.65625 -8.453125 L 5.078125 -15.578125 C 5.046875 -15.804688 4.894531 -15.921875 4.625 -15.921875 L 3.53125 -15.921875 C 3.007812 -15.921875 2.75 -16.179688 2.75 -16.703125 L 2.75 -16.734375 L 3.21875 -23.1875 C 3.25 -23.78125 3.546875 -24.078125 4.109375 -24.078125 L 9.1875 -24.078125 C 9.707031 -24.078125 9.988281 -23.78125 10.03125 -23.1875 L 11.359375 -0.859375 C 11.367188 -0.835938 11.375 -0.804688 11.375 -0.765625 Z M 11.375 -0.765625 "/></g></g><g style="fill:#303144;fill-opacity:1;"><g transform="translate(159.173968, 43.767596)"><path style="stroke:none" d="M 16.734375 -0.796875 C 16.734375 -0.265625 16.476562 0 15.96875 0 L 1.90625 0 C 1.382812 0 1.125 -0.269531 1.125 -0.8125 L 1.125 -0.859375 L 1.5 -7.171875 C 1.539062 -7.804688 1.828125 -8.125 2.359375 -8.125 L 10.109375 -8.125 C 10.597656 -8.125 10.84375 -8.316406 10.84375 -8.703125 L 10.84375 -8.765625 L 10.46875 -15.5 C 10.445312 -15.78125 10.222656 -15.921875 9.796875 -15.921875 L 8.125 -15.921875 C 7.726562 -15.921875 7.507812 -15.726562 7.46875 -15.34375 L 7.09375 -11.28125 C 7.0625 -10.789062 6.765625 -10.546875 6.203125 -10.546875 L 2.4375 -10.546875 C 1.945312 -10.546875 1.703125 -10.796875 1.703125 -11.296875 L 1.703125 -11.359375 L 2.796875 -23.1875 C 2.847656 -23.78125 3.144531 -24.078125 3.6875 -24.078125 L 14.53125 -24.078125 C 15.0625 -24.078125 15.347656 -23.78125 15.390625 -23.1875 L 16.734375 -0.859375 Z M 16.734375 -0.796875 "/></g></g></g></svg>