<svg xmlns="http://www.w3.org/2000/svg" xmlns:xlink="http://www.w3.org/1999/xlink" width="234" zoomAndPan="magnify" viewBox="0 0 175.5 106.499997" height="142" preserveAspectRatio="xMidYMid meet" version="1.2"><defs><clipPath id="73fcefd4a8"><path d="M 0.160156 2.410156 L 174.785156 2.410156 L 174.785156 101 L 0.160156 101 Z M 0.160156 2.410156 "/></clipPath><clipPath id="de242b2380"><path d="M 164.289062 2.8125 L 10.613281 2.8125 C 7.839844 2.8125 5.183594 3.914062 3.222656 5.875 C 1.261719 7.832031 0.160156 10.492188 0.160156 13.261719 L 0.160156 54.375 C 0.160156 57.144531 1.261719 59.804688 3.222656 61.765625 C 5.183594 63.722656 7.839844 64.824219 10.613281 64.824219 L 23.855469 64.824219 C 26.625 64.824219 29.285156 65.925781 31.246094 67.886719 C 33.203125 69.847656 34.304688 72.503906 34.304688 75.277344 L 34.304688 95.128906 C 34.304688 97.246094 35.449219 99.195312 37.296875 100.230469 C 39.144531 101.261719 41.40625 101.21875 43.210938 100.109375 L 91.761719 70.292969 C 97.585938 66.71875 104.285156 64.824219 111.117188 64.824219 L 164.289062 64.824219 C 167.058594 64.824219 169.71875 63.722656 171.679688 61.765625 C 173.636719 59.804688 174.738281 57.144531 174.738281 54.375 L 174.738281 13.261719 C 174.738281 10.492188 173.636719 7.832031 171.679688 5.875 C 169.71875 3.914062 167.058594 2.8125 164.289062 2.8125 Z M 164.289062 2.8125 "/></clipPath></defs><g id="e8c87cea5b"><g clip-rule="nonzero" clip-path="url(#73fcefd4a8)"><g clip-rule="nonzero" clip-path="url(#de242b2380)"><path style=" stroke:none;fill-rule:nonzero;fill:#ffcf7e;fill-opacity:1;" d="M 0.160156 2.8125 L 174.785156 2.8125 L 174.785156 105.578125 L 0.160156 105.578125 Z M 0.160156 2.8125 "/></g></g><g style="fill:#303144;fill-opacity:1;"><g transform="translate(13.213438, 43.767596)"><path style="stroke:none" d="M 13.328125 -0.8125 C 13.328125 -0.269531 13.109375 0 12.671875 0 L 8.6875 0 C 8.164062 0 7.90625 -0.269531 7.90625 -0.8125 L 7.90625 -15.546875 C 7.90625 -15.828125 7.757812 -15.96875 7.46875 -15.96875 L 2.015625 -15.96875 C 1.460938 -15.96875 1.179688 -16.222656 1.171875 -16.734375 L 0.765625 -23.1875 L 0.765625 -23.234375 C 0.765625 -23.796875 1.023438 -24.078125 1.546875 -24.078125 L 12.515625 -24.078125 C 13.054688 -24.078125 13.328125 -23.78125 13.328125 -23.1875 Z M 13.328125 -0.8125 "/></g></g><g style="fill:#303144;fill-opacity:1;"><g transform="translate(28.163542, 43.767596)"><path style="stroke:none" d="M 9.796875 -26.546875 C 9.796875 -26.390625 9.78125 -26.242188 9.75 -26.109375 L 7.359375 -16.359375 C 7.253906 -15.960938 6.976562 -15.765625 6.53125 -15.765625 C 5.914062 -15.765625 5.609375 -16.0625 5.609375 -16.65625 L 5.609375 -26.03125 C 5.609375 -26.757812 5.832031 -27.125 6.28125 -27.125 L 9.34375 -27.125 C 9.644531 -27.125 9.796875 -26.929688 9.796875 -26.546875 Z M 5.0625 -26.546875 C 5.0625 -26.421875 5.039062 -26.273438 5 -26.109375 L 2.59375 -16.359375 C 2.488281 -15.960938 2.207031 -15.765625 1.75 -15.765625 C 1.125 -15.765625 0.8125 -16.0625 0.8125 -16.65625 L 0.8125 -26.03125 C 0.8125 -26.757812 1.054688 -27.125 1.546875 -27.125 L 4.578125 -27.125 C 4.898438 -27.125 5.0625 -26.929688 5.0625 -26.546875 Z M 5.0625 -26.546875 "/></g></g><g style="fill:#303144;fill-opacity:1;"><g transform="translate(38.513615, 43.767596)"><path style="stroke:none" d="M 16.078125 -23.1875 L 14.734375 -0.859375 C 14.691406 -0.285156 14.40625 0 13.875 0 L 1.703125 0 C 1.210938 0 0.96875 -0.265625 0.96875 -0.796875 L 0.96875 -0.859375 L 1.5 -7.3125 C 1.539062 -7.851562 1.84375 -8.125 2.40625 -8.125 L 3.25 -8.125 L 1.9375 -23.1875 L 1.9375 -23.296875 C 1.9375 -23.785156 2.179688 -24.03125 2.671875 -24.03125 L 6.421875 -24.03125 C 6.960938 -24.03125 7.257812 -23.75 7.3125 -23.1875 L 8.609375 -8.09375 L 9.375 -8.09375 C 9.65625 -8.09375 9.804688 -8.265625 9.828125 -8.609375 L 10.8125 -23.1875 C 10.84375 -23.75 11.125 -24.03125 11.65625 -24.03125 L 15.3125 -24.03125 C 15.820312 -24.03125 16.078125 -23.78125 16.078125 -23.28125 Z M 16.078125 -23.1875 "/></g></g><g style="fill:#303144;fill-opacity:1;"><g transform="translate(55.743907, 43.767596)"><path style="stroke:none" d="M 16.296875 -23.15625 C 16.296875 -23.144531 16.296875 -23.113281 16.296875 -23.0625 C 16.296875 -23.007812 16.289062 -22.929688 16.28125 -22.828125 L 14.953125 -1.546875 C 14.921875 -1.140625 14.753906 -0.78125 14.453125 -0.46875 C 14.148438 -0.15625 13.800781 0 13.40625 0 L 9.265625 0 C 8.722656 0 8.453125 -0.3125 8.453125 -0.9375 L 8.453125 -7.359375 C 8.453125 -7.867188 8.75 -8.125 9.34375 -8.125 C 9.726562 -8.125 9.929688 -8.320312 9.953125 -8.71875 L 10.515625 -15.390625 C 10.523438 -15.410156 10.53125 -15.441406 10.53125 -15.484375 C 10.53125 -15.804688 10.40625 -15.96875 10.15625 -15.96875 L 2.359375 -15.96875 C 1.867188 -15.96875 1.613281 -16.238281 1.59375 -16.78125 L 1.203125 -22.984375 L 1.203125 -23.21875 C 1.203125 -23.789062 1.445312 -24.078125 1.9375 -24.078125 L 15.6875 -24.03125 C 16.09375 -24.03125 16.296875 -23.738281 16.296875 -23.15625 Z M 7.171875 3.25 C 7.171875 3.820312 6.863281 4.109375 6.25 4.109375 L 2.875 4.109375 C 2.195312 4.109375 1.859375 3.820312 1.859375 3.25 L 1.859375 -10.8125 C 1.859375 -11.351562 2.195312 -11.625 2.875 -11.625 L 6.25 -11.625 C 6.863281 -11.625 7.171875 -11.351562 7.171875 -10.8125 Z M 7.171875 3.25 "/></g></g><g style="fill:#303144;fill-opacity:1;"><g transform="translate(73.192305, 43.767596)"><path style="stroke:none" d="M 16.734375 -0.796875 C 16.734375 -0.265625 16.476562 0 15.96875 0 L 1.90625 0 C 1.382812 0 1.125 -0.269531 1.125 -0.8125 L 1.125 -0.859375 L 1.5 -7.171875 C 1.539062 -7.804688 1.828125 -8.125 2.359375 -8.125 L 10.109375 -8.125 C 10.597656 -8.125 10.84375 -8.316406 10.84375 -8.703125 L 10.84375 -8.765625 L 10.46875 -15.5 C 10.445312 -15.78125 10.222656 -15.921875 9.796875 -15.921875 L 8.125 -15.921875 C 7.726562 -15.921875 7.507812 -15.726562 7.46875 -15.34375 L 7.09375 -11.28125 C 7.0625 -10.789062 6.765625 -10.546875 6.203125 -10.546875 L 2.4375 -10.546875 C 1.945312 -10.546875 1.703125 -10.796875 1.703125 -11.296875 L 1.703125 -11.359375 L 2.796875 -23.1875 C 2.847656 -23.78125 3.144531 -24.078125 3.6875 -24.078125 L 14.53125 -24.078125 C 15.0625 -24.078125 15.347656 -23.78125 15.390625 -23.1875 L 16.734375 -0.859375 Z M 16.734375 -0.796875 "/></g></g><g style="fill:#303144;fill-opacity:1;"><g transform="translate(91.076912, 43.767596)"><path style="stroke:none" d=""/></g></g><g style="fill:#303144;fill-opacity:1;"><g transform="translate(100.058871, 43.767596)"><path style="stroke:none" d="M 7.953125 3.296875 C 7.953125 3.835938 7.753906 4.109375 7.359375 4.109375 L 3.328125 4.109375 C 2.835938 4.109375 2.59375 3.835938 2.59375 3.296875 L 2.59375 -15.578125 C 2.59375 -15.835938 2.5 -15.96875 2.3125 -15.96875 L 2.109375 -15.96875 C 1.773438 -15.96875 1.585938 -16.238281 1.546875 -16.78125 L 1.125 -23.1875 L 1.125 -23.234375 C 1.125 -23.796875 1.382812 -24.078125 1.90625 -24.078125 L 7.140625 -24.078125 C 7.679688 -24.078125 7.953125 -23.78125 7.953125 -23.1875 Z M 7.953125 3.296875 "/></g></g><g style="fill:#303144;fill-opacity:1;"><g transform="translate(109.298591, 43.767596)"><path style="stroke:none" d="M 7.953125 -0.8125 C 7.953125 -0.269531 7.753906 0 7.359375 0 L 3.328125 0 C 2.835938 0 2.59375 -0.269531 2.59375 -0.8125 L 2.59375 -15.578125 C 2.59375 -15.835938 2.5 -15.96875 2.3125 -15.96875 L 2.109375 -15.96875 C 1.773438 -15.96875 1.585938 -16.238281 1.546875 -16.78125 L 1.125 -23.1875 L 1.125 -23.234375 C 1.125 -23.796875 1.382812 -24.078125 1.90625 -24.078125 L 7.140625 -24.078125 C 7.679688 -24.078125 7.953125 -23.78125 7.953125 -23.1875 Z M 7.953125 -0.8125 "/></g></g><g style="fill:#303144;fill-opacity:1;"><g transform="translate(118.538311, 43.767596)"><path style="stroke:none" d="M 14.09375 -23.1875 L 12.796875 -0.859375 C 12.753906 -0.285156 12.46875 0 11.9375 0 L 5.609375 0 C 5.078125 0 4.796875 -0.285156 4.765625 -0.859375 L 4.375 -7.171875 L 4.375 -7.28125 C 4.375 -7.84375 4.632812 -8.125 5.15625 -8.125 L 7.59375 -8.125 C 7.882812 -8.125 8.035156 -8.269531 8.046875 -8.5625 L 8.375 -15.390625 L 8.375 -15.453125 C 8.375 -15.765625 8.234375 -15.921875 7.953125 -15.921875 L 2.15625 -15.921875 C 1.613281 -15.921875 1.332031 -16.191406 1.3125 -16.734375 L 0.6875 -27.703125 L 0.6875 -27.859375 C 0.6875 -28.367188 0.90625 -28.625 1.34375 -28.625 L 5.1875 -28.625 C 5.75 -28.625 6.035156 -28.34375 6.046875 -27.78125 L 6.203125 -24.609375 C 6.210938 -24.253906 6.363281 -24.078125 6.65625 -24.078125 L 13.328125 -24.03125 C 13.835938 -24.03125 14.09375 -23.785156 14.09375 -23.296875 Z M 14.09375 -23.1875 "/></g></g><g style="fill:#303144;fill-opacity:1;"><g transform="translate(133.766003, 43.767596)"><path style="stroke:none" d="M 8.328125 -10.390625 C 8.328125 -9.847656 8.109375 -9.578125 7.671875 -9.578125 L 3.6875 -9.578125 C 3.207031 -9.578125 2.96875 -9.847656 2.96875 -10.390625 L 2.96875 -15.546875 C 2.96875 -15.828125 2.832031 -15.96875 2.5625 -15.96875 L 2.234375 -15.96875 C 1.816406 -15.96875 1.585938 -16.238281 1.546875 -16.78125 L 1.125 -23.1875 L 1.125 -23.265625 C 1.125 -23.804688 1.382812 -24.078125 1.90625 -24.078125 L 7.515625 -24.078125 C 8.054688 -24.078125 8.328125 -23.78125 8.328125 -23.1875 Z M 8.328125 -10.390625 "/></g></g><g style="fill:#303144;fill-opacity:1;"><g transform="translate(143.362622, 43.767596)"><path style="stroke:none" d="M 17.171875 -0.796875 C 17.171875 -0.265625 16.910156 0 16.390625 0 L 8.984375 0 C 8.460938 0 8.203125 -0.269531 8.203125 -0.8125 L 8.203125 -0.859375 L 8.5625 -7.140625 C 8.601562 -7.796875 8.890625 -8.125 9.421875 -8.125 L 10.96875 -8.125 C 11.21875 -8.125 11.34375 -8.25 11.34375 -8.5 C 11.34375 -8.550781 11.335938 -8.585938 11.328125 -8.609375 L 10.890625 -15.46875 C 10.867188 -15.800781 10.71875 -15.96875 10.4375 -15.96875 L 7.875 -15.96875 C 7.59375 -15.96875 7.445312 -15.800781 7.4375 -15.46875 L 6.546875 -0.859375 C 6.503906 -0.285156 6.21875 0 5.6875 0 L 1.90625 0 C 1.382812 0 1.125 -0.269531 1.125 -0.8125 L 1.125 -0.859375 L 2.5625 -23.1875 C 2.601562 -23.78125 2.898438 -24.078125 3.453125 -24.078125 L 14.90625 -24.078125 C 15.4375 -24.078125 15.722656 -23.78125 15.765625 -23.1875 L 17.171875 -0.859375 Z M 17.171875 -0.796875 "/></g></g></g></svg>