<svg xmlns="http://www.w3.org/2000/svg" xmlns:xlink="http://www.w3.org/1999/xlink" width="234" zoomAndPan="magnify" viewBox="0 0 175.5 106.499997" height="142" preserveAspectRatio="xMidYMid meet" version="1.2"><defs><clipPath id="972d70ebc3"><path d="M 0.160156 2.410156 L 174.785156 2.410156 L 174.785156 101 L 0.160156 101 Z M 0.160156 2.410156 "/></clipPath><clipPath id="b92b1f96f3"><path d="M 164.289062 2.8125 L 10.613281 2.8125 C 7.839844 2.8125 5.183594 3.914062 3.222656 5.875 C 1.261719 7.832031 0.160156 10.492188 0.160156 13.261719 L 0.160156 54.375 C 0.160156 57.144531 1.261719 59.804688 3.222656 61.765625 C 5.183594 63.722656 7.839844 64.824219 10.613281 64.824219 L 23.855469 64.824219 C 26.625 64.824219 29.285156 65.925781 31.246094 67.886719 C 33.203125 69.847656 34.304688 72.503906 34.304688 75.277344 L 34.304688 95.128906 C 34.304688 97.246094 35.449219 99.195312 37.296875 100.230469 C 39.144531 101.261719 41.40625 101.21875 43.210938 100.109375 L 91.761719 70.292969 C 97.585938 66.71875 104.285156 64.824219 111.117188 64.824219 L 164.289062 64.824219 C 167.058594 64.824219 169.71875 63.722656 171.679688 61.765625 C 173.636719 59.804688 174.738281 57.144531 174.738281 54.375 L 174.738281 13.261719 C 174.738281 10.492188 173.636719 7.832031 171.679688 5.875 C 169.71875 3.914062 167.058594 2.8125 164.289062 2.8125 Z M 164.289062 2.8125 "/></clipPath></defs><g id="1bcf704579"><g clip-rule="nonzero" clip-path="url(#972d70ebc3)"><g clip-rule="nonzero" clip-path="url(#b92b1f96f3)"><path style=" stroke:none;fill-rule:nonzero;fill:#ffcf7e;fill-opacity:1;" d="M 0.160156 2.8125 L 174.785156 2.8125 L 174.785156 105.578125 L 0.160156 105.578125 Z M 0.160156 2.8125 "/></g></g><g style="fill:#303144;fill-opacity:1;"><g transform="translate(14.471257, 43.767596)"><path style="stroke:none" d="M 17.09375 -23.21875 L 15.765625 -0.890625 C 15.722656 -0.296875 15.425781 0 14.875 0 L 3.296875 0 C 2.765625 0 2.476562 -0.296875 2.4375 -0.890625 L 1.09375 -23.21875 L 1.09375 -23.3125 C 1.09375 -23.820312 1.347656 -24.078125 1.859375 -24.078125 L 16.3125 -24.078125 C 16.832031 -24.078125 17.09375 -23.8125 17.09375 -23.28125 Z M 11.328125 -15.625 C 11.328125 -15.875 11.207031 -16 10.96875 -16 L 7.171875 -16 C 6.941406 -16 6.828125 -15.878906 6.828125 -15.640625 L 6.828125 -15.578125 L 7.390625 -8.40625 C 7.410156 -8.25 7.503906 -8.171875 7.671875 -8.171875 L 10.609375 -8.171875 C 10.796875 -8.171875 10.898438 -8.25 10.921875 -8.40625 L 11.328125 -15.578125 Z M 11.328125 -15.625 "/></g></g><g style="fill:#303144;fill-opacity:1;"><g transform="translate(32.732592, 43.767596)"><path style="stroke:none" d="M 9.796875 -26.546875 C 9.796875 -26.390625 9.78125 -26.242188 9.75 -26.109375 L 7.359375 -16.359375 C 7.253906 -15.960938 6.976562 -15.765625 6.53125 -15.765625 C 5.914062 -15.765625 5.609375 -16.0625 5.609375 -16.65625 L 5.609375 -26.03125 C 5.609375 -26.757812 5.832031 -27.125 6.28125 -27.125 L 9.34375 -27.125 C 9.644531 -27.125 9.796875 -26.929688 9.796875 -26.546875 Z M 5.0625 -26.546875 C 5.0625 -26.421875 5.039062 -26.273438 5 -26.109375 L 2.59375 -16.359375 C 2.488281 -15.960938 2.207031 -15.765625 1.75 -15.765625 C 1.125 -15.765625 0.8125 -16.0625 0.8125 -16.65625 L 0.8125 -26.03125 C 0.8125 -26.757812 1.054688 -27.125 1.546875 -27.125 L 4.578125 -27.125 C 4.898438 -27.125 5.0625 -26.929688 5.0625 -26.546875 Z M 5.0625 -26.546875 "/></g></g><g style="fill:#303144;fill-opacity:1;"><g transform="translate(43.082664, 43.767596)"><path style="stroke:none" d="M 16.078125 -23.1875 L 14.734375 -0.859375 C 14.691406 -0.285156 14.40625 0 13.875 0 L 1.703125 0 C 1.210938 0 0.96875 -0.265625 0.96875 -0.796875 L 0.96875 -0.859375 L 1.5 -7.3125 C 1.539062 -7.851562 1.84375 -8.125 2.40625 -8.125 L 3.25 -8.125 L 1.9375 -23.1875 L 1.9375 -23.296875 C 1.9375 -23.785156 2.179688 -24.03125 2.671875 -24.03125 L 6.421875 -24.03125 C 6.960938 -24.03125 7.257812 -23.75 7.3125 -23.1875 L 8.609375 -8.09375 L 9.375 -8.09375 C 9.65625 -8.09375 9.804688 -8.265625 9.828125 -8.609375 L 10.8125 -23.1875 C 10.84375 -23.75 11.125 -24.03125 11.65625 -24.03125 L 15.3125 -24.03125 C 15.820312 -24.03125 16.078125 -23.78125 16.078125 -23.28125 Z M 16.078125 -23.1875 "/></g></g><g style="fill:#303144;fill-opacity:1;"><g transform="translate(60.312957, 43.767596)"><path style="stroke:none" d="M 15.921875 -0.90625 C 15.921875 -0.300781 15.648438 0 15.109375 0 L 11.46875 0 C 10.863281 0 10.546875 -0.335938 10.515625 -1.015625 L 9.65625 -15.3125 C 9.625 -15.75 9.4375 -15.96875 9.09375 -15.96875 L 2.875 -15.96875 C 2.25 -15.96875 1.9375 -16.316406 1.9375 -17.015625 L 1.9375 -17.125 L 2.28125 -23.09375 C 2.320312 -23.75 2.671875 -24.078125 3.328125 -24.078125 L 13.71875 -24.078125 C 14.332031 -24.078125 14.65625 -23.722656 14.6875 -23.015625 L 15.921875 -1.015625 Z M 6.65625 -10.546875 L 6.390625 -0.9375 C 6.359375 -0.3125 6.023438 0 5.390625 0 L 1.9375 0 C 1.394531 0 1.125 -0.316406 1.125 -0.953125 L 1.125 -1.015625 L 1.5 -10.640625 C 1.519531 -11.296875 1.882812 -11.625 2.59375 -11.625 L 5.734375 -11.625 C 6.347656 -11.625 6.65625 -11.289062 6.65625 -10.625 Z M 6.65625 -10.546875 "/></g></g><g style="fill:#303144;fill-opacity:1;"><g transform="translate(77.384628, 43.767596)"><path style="stroke:none" d=""/></g></g><g style="fill:#303144;fill-opacity:1;"><g transform="translate(86.366587, 43.767596)"><path style="stroke:none" d="M 17.09375 -23.21875 L 15.765625 -0.890625 C 15.722656 -0.296875 15.425781 0 14.875 0 L 3.296875 0 C 2.765625 0 2.476562 -0.296875 2.4375 -0.890625 L 1.09375 -23.21875 L 1.09375 -23.3125 C 1.09375 -23.820312 1.347656 -24.078125 1.859375 -24.078125 L 16.3125 -24.078125 C 16.832031 -24.078125 17.09375 -23.8125 17.09375 -23.28125 Z M 11.328125 -15.625 C 11.328125 -15.875 11.207031 -16 10.96875 -16 L 7.171875 -16 C 6.941406 -16 6.828125 -15.878906 6.828125 -15.640625 L 6.828125 -15.578125 L 7.390625 -8.40625 C 7.410156 -8.25 7.503906 -8.171875 7.671875 -8.171875 L 10.609375 -8.171875 C 10.796875 -8.171875 10.898438 -8.25 10.921875 -8.40625 L 11.328125 -15.578125 Z M 11.328125 -15.625 "/></g></g><g style="fill:#303144;fill-opacity:1;"><g transform="translate(104.627921, 43.767596)"><path style="stroke:none" d="M 9.796875 -26.546875 C 9.796875 -26.390625 9.78125 -26.242188 9.75 -26.109375 L 7.359375 -16.359375 C 7.253906 -15.960938 6.976562 -15.765625 6.53125 -15.765625 C 5.914062 -15.765625 5.609375 -16.0625 5.609375 -16.65625 L 5.609375 -26.03125 C 5.609375 -26.757812 5.832031 -27.125 6.28125 -27.125 L 9.34375 -27.125 C 9.644531 -27.125 9.796875 -26.929688 9.796875 -26.546875 Z M 5.0625 -26.546875 C 5.0625 -26.421875 5.039062 -26.273438 5 -26.109375 L 2.59375 -16.359375 C 2.488281 -15.960938 2.207031 -15.765625 1.75 -15.765625 C 1.125 -15.765625 0.8125 -16.0625 0.8125 -16.65625 L 0.8125 -26.03125 C 0.8125 -26.757812 1.054688 -27.125 1.546875 -27.125 L 4.578125 -27.125 C 4.898438 -27.125 5.0625 -26.929688 5.0625 -26.546875 Z M 5.0625 -26.546875 "/></g></g><g style="fill:#303144;fill-opacity:1;"><g transform="translate(114.977994, 43.767596)"><path style="stroke:none" d="M 17.171875 -0.796875 C 17.171875 -0.265625 16.910156 0 16.390625 0 L 8.984375 0 C 8.460938 0 8.203125 -0.269531 8.203125 -0.8125 L 8.203125 -0.859375 L 8.5625 -7.140625 C 8.601562 -7.796875 8.890625 -8.125 9.421875 -8.125 L 10.96875 -8.125 C 11.21875 -8.125 11.34375 -8.25 11.34375 -8.5 C 11.34375 -8.550781 11.335938 -8.585938 11.328125 -8.609375 L 10.890625 -15.46875 C 10.867188 -15.800781 10.71875 -15.96875 10.4375 -15.96875 L 7.875 -15.96875 C 7.59375 -15.96875 7.445312 -15.800781 7.4375 -15.46875 L 6.546875 -0.859375 C 6.503906 -0.285156 6.21875 0 5.6875 0 L 1.90625 0 C 1.382812 0 1.125 -0.269531 1.125 -0.8125 L 1.125 -0.859375 L 2.5625 -23.1875 C 2.601562 -23.78125 2.898438 -24.078125 3.453125 -24.078125 L 14.90625 -24.078125 C 15.4375 -24.078125 15.722656 -23.78125 15.765625 -23.1875 L 17.171875 -0.859375 Z M 17.171875 -0.796875 "/></g></g><g style="fill:#303144;fill-opacity:1;"><g transform="translate(133.298811, 43.767596)"><path style="stroke:none" d="M 7.953125 -0.8125 C 7.953125 -0.269531 7.753906 0 7.359375 0 L 3.328125 0 C 2.835938 0 2.59375 -0.269531 2.59375 -0.8125 L 2.59375 -15.578125 C 2.59375 -15.835938 2.5 -15.96875 2.3125 -15.96875 L 2.109375 -15.96875 C 1.773438 -15.96875 1.585938 -16.238281 1.546875 -16.78125 L 1.125 -23.1875 L 1.125 -23.234375 C 1.125 -23.796875 1.382812 -24.078125 1.90625 -24.078125 L 7.140625 -24.078125 C 7.679688 -24.078125 7.953125 -23.78125 7.953125 -23.1875 Z M 7.953125 -0.8125 "/></g></g><g style="fill:#303144;fill-opacity:1;"><g transform="translate(142.53853, 43.767596)"><path style="stroke:none" d="M 16.734375 -0.65625 C 16.734375 -0.21875 16.539062 0 16.15625 0 L 12.21875 0 C 11.78125 0 11.539062 -0.285156 11.5 -0.859375 L 10.46875 -15.578125 C 10.445312 -15.804688 10.300781 -15.921875 10.03125 -15.921875 L 7.796875 -15.921875 C 7.597656 -15.921875 7.488281 -15.796875 7.46875 -15.546875 L 6.390625 -0.859375 C 6.347656 -0.285156 6.085938 0 5.609375 0 L 1.78125 0 C 1.34375 0 1.125 -0.265625 1.125 -0.796875 L 1.125 -0.859375 L 2.5625 -23.1875 C 2.601562 -23.78125 2.882812 -24.078125 3.40625 -24.078125 L 14.609375 -24.078125 C 15.140625 -24.078125 15.425781 -23.78125 15.46875 -23.1875 L 16.734375 -0.859375 Z M 16.734375 -0.65625 "/></g></g></g></svg>