<svg xmlns="http://www.w3.org/2000/svg" xmlns:xlink="http://www.w3.org/1999/xlink" width="260" zoomAndPan="magnify" viewBox="0 0 194.87999 104.999996" height="140" preserveAspectRatio="xMidYMid meet" version="1.2"><defs><clipPath id="4b25c93a36"><path d="M 2.191406 4.460938 L 192.4375 4.460938 L 192.4375 103.613281 L 2.191406 103.613281 Z M 2.191406 4.460938 "/></clipPath><clipPath id="3a6c09bd8f"><path d="M 12.890625 103.210938 L 181.539062 103.210938 C 184.324219 103.210938 186.992188 102.105469 188.960938 100.136719 C 190.929688 98.167969 192.035156 95.5 192.035156 92.71875 L 192.035156 51.4375 C 192.035156 48.65625 190.929688 45.988281 188.960938 44.019531 C 186.992188 42.050781 184.324219 40.945312 181.539062 40.945312 L 168.242188 40.945312 C 165.460938 40.945312 162.792969 39.839844 160.824219 37.871094 C 158.855469 35.902344 157.75 33.234375 157.75 30.453125 L 157.75 10.519531 C 157.75 8.394531 156.601562 6.433594 154.746094 5.394531 C 152.890625 4.359375 150.621094 4.40625 148.808594 5.515625 L 100.058594 35.453125 C 94.214844 39.042969 87.484375 40.945312 80.625 40.945312 L 12.890625 40.945312 C 10.109375 40.945312 7.4375 42.050781 5.472656 44.019531 C 3.503906 45.988281 2.398438 48.65625 2.398438 51.4375 L 2.398438 92.71875 C 2.398438 95.5 3.503906 98.167969 5.472656 100.136719 C 7.4375 102.105469 10.109375 103.210938 12.890625 103.210938 Z M 12.890625 103.210938 "/></clipPath></defs><g id="7552b74488"><g clip-rule="nonzero" clip-path="url(#4b25c93a36)"><g clip-rule="nonzero" clip-path="url(#3a6c09bd8f)"><path style=" stroke:none;fill-rule:nonzero;fill:#ffcf7e;fill-opacity:1;" d="M 192.035156 103.210938 L 2.59375 103.210938 L 2.59375 0.0273438 L 192.035156 0.0273438 Z M 192.035156 103.210938 "/></g></g><g style="fill:#303144;fill-opacity:1;"><g transform="translate(8.164219, 83.419109)"><path style="stroke:none" d="M 17.546875 -0.78125 C 17.546875 -0.257812 17.285156 0 16.765625 0 L 1.90625 0 C 1.394531 0 1.140625 -0.265625 1.140625 -0.796875 L 1.140625 -0.859375 L 2.53125 -23.28125 C 2.570312 -23.875 2.859375 -24.171875 3.390625 -24.171875 L 15.328125 -24.171875 C 15.859375 -24.171875 16.144531 -23.875 16.1875 -23.28125 L 17.546875 -0.859375 Z M 11.78125 -8.515625 L 11.203125 -15.75 C 11.179688 -15.90625 11.101562 -15.984375 10.96875 -15.984375 L 7.671875 -15.984375 C 7.472656 -15.984375 7.363281 -15.90625 7.34375 -15.75 L 6.921875 -8.515625 L 6.921875 -8.5 C 6.921875 -8.28125 7.050781 -8.171875 7.3125 -8.171875 L 11.40625 -8.171875 C 11.65625 -8.171875 11.78125 -8.269531 11.78125 -8.46875 Z M 11.78125 -8.515625 "/></g></g><g style="fill:#303144;fill-opacity:1;"><g transform="translate(26.838442, 83.419109)"><path style="stroke:none" d="M 8.359375 -10.4375 C 8.359375 -9.894531 8.140625 -9.625 7.703125 -9.625 L 3.703125 -9.625 C 3.222656 -9.625 2.984375 -9.894531 2.984375 -10.4375 L 2.984375 -15.609375 C 2.984375 -15.890625 2.84375 -16.03125 2.5625 -16.03125 L 2.25 -16.03125 C 1.820312 -16.03125 1.585938 -16.300781 1.546875 -16.84375 L 1.140625 -23.28125 L 1.140625 -23.359375 C 1.140625 -23.898438 1.394531 -24.171875 1.90625 -24.171875 L 7.546875 -24.171875 C 8.085938 -24.171875 8.359375 -23.875 8.359375 -23.28125 Z M 8.359375 -10.4375 "/></g></g><g style="fill:#303144;fill-opacity:1;"><g transform="translate(36.474182, 83.419109)"><path style="stroke:none" d="M 14.234375 -23.15625 L 13.8125 -17.203125 C 13.75 -16.421875 13.492188 -16.03125 13.046875 -16.03125 L 11.828125 -16.03125 L 11.828125 -0.859375 C 11.828125 -0.285156 11.515625 0 10.890625 0 L 7.265625 0 C 6.691406 0 6.40625 -0.296875 6.40625 -0.890625 L 6.40625 -16.03125 L 1.515625 -16.03125 C 1.003906 -16.03125 0.734375 -16.421875 0.703125 -17.203125 L 0.390625 -23.15625 L 0.390625 -23.296875 C 0.390625 -23.878906 0.675781 -24.171875 1.25 -24.171875 L 13.5 -24.171875 C 13.988281 -24.171875 14.234375 -23.882812 14.234375 -23.3125 Z M 14.234375 -23.15625 "/></g></g><g style="fill:#303144;fill-opacity:1;"><g transform="translate(51.126877, 83.419109)"><path style="stroke:none" d="M 7.984375 -0.8125 C 7.984375 -0.269531 7.785156 0 7.390625 0 L 3.34375 0 C 2.851562 0 2.609375 -0.269531 2.609375 -0.8125 L 2.609375 -15.65625 C 2.609375 -15.90625 2.515625 -16.03125 2.328125 -16.03125 L 2.109375 -16.03125 C 1.773438 -16.03125 1.585938 -16.300781 1.546875 -16.84375 L 1.140625 -23.28125 L 1.140625 -23.34375 C 1.140625 -23.894531 1.394531 -24.171875 1.90625 -24.171875 L 7.171875 -24.171875 C 7.710938 -24.171875 7.984375 -23.875 7.984375 -23.28125 Z M 7.984375 -0.8125 "/></g></g><g style="fill:#303144;fill-opacity:1;"><g transform="translate(60.404263, 83.419109)"><path style="stroke:none" d="M 14.234375 -23.15625 L 13.8125 -17.203125 C 13.75 -16.421875 13.492188 -16.03125 13.046875 -16.03125 L 11.828125 -16.03125 L 11.828125 -0.859375 C 11.828125 -0.285156 11.515625 0 10.890625 0 L 7.265625 0 C 6.691406 0 6.40625 -0.296875 6.40625 -0.890625 L 6.40625 -16.03125 L 1.515625 -16.03125 C 1.003906 -16.03125 0.734375 -16.421875 0.703125 -17.203125 L 0.390625 -23.15625 L 0.390625 -23.296875 C 0.390625 -23.878906 0.675781 -24.171875 1.25 -24.171875 L 13.5 -24.171875 C 13.988281 -24.171875 14.234375 -23.882812 14.234375 -23.3125 Z M 14.234375 -23.15625 "/></g></g><g style="fill:#303144;fill-opacity:1;"><g transform="translate(75.056958, 83.419109)"><path style="stroke:none" d="M 11.75 -0.734375 C 11.75 -0.242188 11.488281 0 10.96875 0 L 7.171875 0 C 6.703125 0 6.460938 -0.242188 6.453125 -0.734375 L 6.3125 -2.890625 L 1.796875 0.8125 C 1.648438 0.914062 1.507812 0.96875 1.375 0.96875 C 1 0.96875 0.8125 0.742188 0.8125 0.296875 L 0.8125 0.203125 L 1.390625 -7.125 C 1.429688 -7.613281 1.691406 -8.015625 2.171875 -8.328125 L 5.71875 -10.546875 L 5.375 -15.578125 C 5.351562 -15.847656 5.222656 -15.984375 4.984375 -15.984375 L 3.34375 -15.984375 C 2.695312 -15.984375 2.375 -16.234375 2.375 -16.734375 L 2.375 -16.890625 L 2.8125 -23.375 C 2.851562 -23.90625 3.109375 -24.171875 3.578125 -24.171875 L 9.625 -24.171875 C 10.09375 -24.171875 10.347656 -23.882812 10.390625 -23.3125 L 11.75 -0.859375 Z M 11.75 -0.734375 "/></g></g><g style="fill:#303144;fill-opacity:1;"><g transform="translate(87.599347, 83.419109)"><path style="stroke:none" d="M 14.15625 -23.28125 L 12.84375 -0.859375 C 12.800781 -0.285156 12.515625 0 11.984375 0 L 5.640625 0 C 5.109375 0 4.820312 -0.285156 4.78125 -0.859375 L 4.40625 -7.203125 L 4.40625 -7.3125 C 4.40625 -7.882812 4.660156 -8.171875 5.171875 -8.171875 L 7.625 -8.171875 C 7.914062 -8.171875 8.066406 -8.316406 8.078125 -8.609375 L 8.40625 -15.453125 L 8.40625 -15.515625 C 8.40625 -15.828125 8.265625 -15.984375 7.984375 -15.984375 L 2.171875 -15.984375 C 1.628906 -15.984375 1.34375 -16.257812 1.3125 -16.8125 L 0.703125 -27.8125 L 0.703125 -27.984375 C 0.703125 -28.492188 0.921875 -28.75 1.359375 -28.75 L 5.21875 -28.75 C 5.769531 -28.75 6.054688 -28.460938 6.078125 -27.890625 L 6.234375 -24.71875 C 6.242188 -24.351562 6.394531 -24.171875 6.6875 -24.171875 L 13.375 -24.140625 C 13.894531 -24.140625 14.15625 -23.890625 14.15625 -23.390625 Z M 14.15625 -23.28125 "/></g></g><g style="fill:#303144;fill-opacity:1;"><g transform="translate(102.889116, 83.419109)"><path style="stroke:none" d=""/></g></g><g style="fill:#303144;fill-opacity:1;"><g transform="translate(111.90769, 83.419109)"><path style="stroke:none" d="M 17.171875 -23.3125 L 15.828125 -0.890625 C 15.785156 -0.296875 15.488281 0 14.9375 0 L 3.3125 0 C 2.78125 0 2.492188 -0.296875 2.453125 -0.890625 L 1.09375 -23.3125 L 1.09375 -23.421875 C 1.09375 -23.921875 1.351562 -24.171875 1.875 -24.171875 L 16.390625 -24.171875 C 16.910156 -24.171875 17.171875 -23.90625 17.171875 -23.375 Z M 11.375 -15.6875 C 11.375 -15.9375 11.253906 -16.0625 11.015625 -16.0625 L 7.203125 -16.0625 C 6.960938 -16.0625 6.84375 -15.945312 6.84375 -15.71875 L 6.84375 -15.65625 L 7.421875 -8.4375 C 7.441406 -8.28125 7.535156 -8.203125 7.703125 -8.203125 L 10.65625 -8.203125 C 10.84375 -8.203125 10.945312 -8.28125 10.96875 -8.4375 L 11.375 -15.65625 Z M 11.375 -15.6875 "/></g></g><g style="fill:#303144;fill-opacity:1;"><g transform="translate(130.243468, 83.419109)"><path style="stroke:none" d="M 9.84375 -26.65625 C 9.84375 -26.5 9.828125 -26.351562 9.796875 -26.21875 L 7.390625 -16.421875 C 7.285156 -16.023438 7.003906 -15.828125 6.546875 -15.828125 C 5.941406 -15.828125 5.640625 -16.128906 5.640625 -16.734375 L 5.640625 -26.140625 C 5.640625 -26.867188 5.863281 -27.234375 6.3125 -27.234375 L 9.375 -27.234375 C 9.6875 -27.234375 9.84375 -27.039062 9.84375 -26.65625 Z M 5.078125 -26.65625 C 5.078125 -26.53125 5.054688 -26.382812 5.015625 -26.21875 L 2.609375 -16.421875 C 2.503906 -16.023438 2.21875 -15.828125 1.75 -15.828125 C 1.125 -15.828125 0.8125 -16.128906 0.8125 -16.734375 L 0.8125 -26.140625 C 0.8125 -26.867188 1.054688 -27.234375 1.546875 -27.234375 L 4.59375 -27.234375 C 4.914062 -27.234375 5.078125 -27.039062 5.078125 -26.65625 Z M 5.078125 -26.65625 "/></g></g><g style="fill:#303144;fill-opacity:1;"><g transform="translate(140.635732, 83.419109)"><path style="stroke:none" d="M 17.25 -0.796875 C 17.25 -0.265625 16.988281 0 16.46875 0 L 9.015625 0 C 8.503906 0 8.25 -0.269531 8.25 -0.8125 L 8.25 -0.859375 L 8.609375 -7.171875 C 8.640625 -7.835938 8.921875 -8.171875 9.453125 -8.171875 L 11.015625 -8.171875 C 11.265625 -8.171875 11.390625 -8.296875 11.390625 -8.546875 C 11.390625 -8.597656 11.382812 -8.628906 11.375 -8.640625 L 10.9375 -15.53125 C 10.914062 -15.863281 10.757812 -16.03125 10.46875 -16.03125 L 7.90625 -16.03125 C 7.625 -16.03125 7.476562 -15.863281 7.46875 -15.53125 L 6.578125 -0.859375 C 6.535156 -0.285156 6.25 0 5.71875 0 L 1.90625 0 C 1.394531 0 1.140625 -0.269531 1.140625 -0.8125 L 1.140625 -0.859375 L 2.5625 -23.28125 C 2.601562 -23.875 2.90625 -24.171875 3.46875 -24.171875 L 14.96875 -24.171875 C 15.5 -24.171875 15.785156 -23.875 15.828125 -23.28125 L 17.25 -0.859375 Z M 17.25 -0.796875 "/></g></g><g style="fill:#303144;fill-opacity:1;"><g transform="translate(159.031235, 83.419109)"><path style="stroke:none" d="M 7.984375 -0.8125 C 7.984375 -0.269531 7.785156 0 7.390625 0 L 3.34375 0 C 2.851562 0 2.609375 -0.269531 2.609375 -0.8125 L 2.609375 -15.65625 C 2.609375 -15.90625 2.515625 -16.03125 2.328125 -16.03125 L 2.109375 -16.03125 C 1.773438 -16.03125 1.585938 -16.300781 1.546875 -16.84375 L 1.140625 -23.28125 L 1.140625 -23.34375 C 1.140625 -23.894531 1.394531 -24.171875 1.90625 -24.171875 L 7.171875 -24.171875 C 7.710938 -24.171875 7.984375 -23.875 7.984375 -23.28125 Z M 7.984375 -0.8125 "/></g></g><g style="fill:#303144;fill-opacity:1;"><g transform="translate(168.308621, 83.419109)"><path style="stroke:none" d="M 16.8125 -0.65625 C 16.8125 -0.21875 16.617188 0 16.234375 0 L 12.265625 0 C 11.828125 0 11.585938 -0.285156 11.546875 -0.859375 L 10.515625 -15.65625 C 10.484375 -15.875 10.335938 -15.984375 10.078125 -15.984375 L 7.828125 -15.984375 C 7.628906 -15.984375 7.519531 -15.859375 7.5 -15.609375 L 6.40625 -0.859375 C 6.375 -0.285156 6.117188 0 5.640625 0 L 1.796875 0 C 1.359375 0 1.140625 -0.265625 1.140625 -0.796875 L 1.140625 -0.859375 L 2.5625 -23.28125 C 2.601562 -23.875 2.890625 -24.171875 3.421875 -24.171875 L 14.671875 -24.171875 C 15.203125 -24.171875 15.488281 -23.875 15.53125 -23.28125 L 16.8125 -0.859375 Z M 16.8125 -0.65625 "/></g></g></g></svg>