<svg xmlns="http://www.w3.org/2000/svg" xmlns:xlink="http://www.w3.org/1999/xlink" width="263" zoomAndPan="magnify" viewBox="0 0 197.25 104.999996" height="140" preserveAspectRatio="xMidYMid meet" version="1.2"><defs><clipPath id="af2588ab61"><path d="M 0 4.613281 L 194.417969 4.613281 L 194.417969 103.453125 L 0 103.453125 Z M 0 4.613281 "/></clipPath><clipPath id="c122b6a484"><path d="M 10.457031 103.050781 L 183.554688 103.050781 C 186.332031 103.050781 188.992188 101.949219 190.953125 99.984375 C 192.914062 98.023438 194.015625 95.363281 194.015625 92.589844 L 194.015625 51.441406 C 194.015625 48.667969 192.914062 46.007812 190.953125 44.046875 C 188.992188 42.085938 186.332031 40.980469 183.554688 40.980469 L 170.300781 40.980469 C 167.527344 40.980469 164.867188 39.878906 162.90625 37.917969 C 160.941406 35.957031 159.839844 33.296875 159.839844 30.523438 L 159.839844 10.652344 C 159.839844 8.535156 158.695312 6.582031 156.847656 5.546875 C 154.996094 4.511719 152.734375 4.558594 150.925781 5.667969 L 102.332031 35.507812 C 96.503906 39.085938 89.800781 40.980469 82.960938 40.980469 L 10.457031 40.980469 C 7.683594 40.980469 5.023438 42.085938 3.0625 44.046875 C 1.101562 46.007812 0 48.667969 0 51.441406 L 0 92.589844 C 0 95.363281 1.101562 98.023438 3.0625 99.984375 C 5.023438 101.949219 7.683594 103.050781 10.457031 103.050781 Z M 10.457031 103.050781 "/></clipPath></defs><g id="b3bf23d626"><g clip-rule="nonzero" clip-path="url(#af2588ab61)"><g clip-rule="nonzero" clip-path="url(#c122b6a484)"><path style=" stroke:none;fill-rule:nonzero;fill:#ffcf7e;fill-opacity:1;" d="M 194.015625 103.050781 L -0.046875 103.050781 L -0.046875 0.191406 L 194.015625 0.191406 Z M 194.015625 103.050781 "/></g></g><g style="fill:#303144;fill-opacity:1;"><g transform="translate(10.955283, 83.32096)"><path style="stroke:none" d="M 17.6875 -0.75 C 17.6875 -0.25 17.441406 0 16.953125 0 L 13.328125 0 C 12.773438 0 12.476562 -0.285156 12.4375 -0.859375 L 11.375 -15.484375 C 11.34375 -15.785156 11.195312 -15.9375 10.9375 -15.9375 L 8.984375 -15.9375 C 8.710938 -15.9375 8.5625 -15.785156 8.53125 -15.484375 L 7.796875 -0.859375 C 7.785156 -0.285156 7.503906 0 6.953125 0 L 1.703125 0 C 1.191406 0 0.9375 -0.273438 0.9375 -0.828125 L 0.9375 -0.859375 L 1.25 -7.25 C 1.257812 -7.84375 1.53125 -8.140625 2.0625 -8.140625 L 2.640625 -8.140625 C 2.921875 -8.140625 3.070312 -8.269531 3.09375 -8.53125 L 3.5 -15.515625 L 3.5 -15.578125 C 3.5 -15.816406 3.378906 -15.9375 3.140625 -15.9375 L 2.4375 -15.9375 C 1.875 -15.9375 1.578125 -16.25 1.546875 -16.875 L 1.25 -23.203125 L 1.25 -23.3125 C 1.25 -23.832031 1.492188 -24.09375 1.984375 -24.09375 L 15.484375 -24.09375 C 16.003906 -24.09375 16.285156 -23.796875 16.328125 -23.203125 L 17.6875 -0.859375 Z M 17.6875 -0.75 "/></g></g><g style="fill:#303144;fill-opacity:1;"><g transform="translate(29.788525, 83.32096)"><path style="stroke:none" d="M 7.953125 -0.8125 C 7.953125 -0.269531 7.753906 0 7.359375 0 L 3.328125 0 C 2.835938 0 2.59375 -0.269531 2.59375 -0.8125 L 2.59375 -15.59375 C 2.59375 -15.84375 2.503906 -15.96875 2.328125 -15.96875 L 2.109375 -15.96875 C 1.773438 -15.96875 1.585938 -16.238281 1.546875 -16.78125 L 1.125 -23.203125 L 1.125 -23.25 C 1.125 -23.8125 1.382812 -24.09375 1.90625 -24.09375 L 7.140625 -24.09375 C 7.679688 -24.09375 7.953125 -23.796875 7.953125 -23.203125 Z M 7.953125 -0.8125 "/></g></g><g style="fill:#303144;fill-opacity:1;"><g transform="translate(39.036461, 83.32096)"><path style="stroke:none" d="M 14.109375 -23.203125 L 12.796875 -0.859375 C 12.753906 -0.285156 12.472656 0 11.953125 0 L 5.609375 0 C 5.085938 0 4.804688 -0.285156 4.765625 -0.859375 L 4.390625 -7.1875 L 4.390625 -7.28125 C 4.390625 -7.851562 4.644531 -8.140625 5.15625 -8.140625 L 7.59375 -8.140625 C 7.882812 -8.140625 8.039062 -8.285156 8.0625 -8.578125 L 8.375 -15.40625 L 8.375 -15.453125 C 8.375 -15.773438 8.234375 -15.9375 7.953125 -15.9375 L 2.15625 -15.9375 C 1.613281 -15.9375 1.332031 -16.207031 1.3125 -16.75 L 0.6875 -27.71875 L 0.6875 -27.875 C 0.6875 -28.394531 0.90625 -28.65625 1.34375 -28.65625 L 5.203125 -28.65625 C 5.753906 -28.65625 6.035156 -28.367188 6.046875 -27.796875 L 6.21875 -24.625 C 6.226562 -24.269531 6.378906 -24.09375 6.671875 -24.09375 L 13.328125 -24.046875 C 13.847656 -24.046875 14.109375 -23.800781 14.109375 -23.3125 Z M 14.109375 -23.203125 "/></g></g><g style="fill:#303144;fill-opacity:1;"><g transform="translate(54.277694, 83.32096)"><path style="stroke:none" d="M 16.921875 -23.578125 C 16.921875 -23.472656 16.914062 -23.394531 16.90625 -23.34375 L 14.15625 -7.328125 L 16.78125 -0.609375 C 16.8125 -0.535156 16.828125 -0.472656 16.828125 -0.421875 C 16.828125 -0.140625 16.625 0 16.21875 0 L 10.65625 0 C 10.269531 0 10 -0.191406 9.84375 -0.578125 L 7.03125 -7.640625 L 6.046875 -0.6875 C 5.984375 -0.226562 5.726562 0 5.28125 0 L 1.171875 0 C 0.816406 0 0.640625 -0.164062 0.640625 -0.5 C 0.640625 -0.5625 0.644531 -0.613281 0.65625 -0.65625 L 3.328125 -16.671875 L 0.8125 -23.421875 C 0.757812 -23.535156 0.734375 -23.644531 0.734375 -23.75 C 0.734375 -23.976562 0.851562 -24.09375 1.09375 -24.09375 L 6.671875 -24.09375 C 7.023438 -24.09375 7.28125 -23.878906 7.4375 -23.453125 L 10.203125 -16.375 L 11.375 -23.453125 C 11.4375 -23.878906 11.664062 -24.09375 12.0625 -24.09375 L 16.40625 -24.09375 C 16.75 -24.09375 16.921875 -23.921875 16.921875 -23.578125 Z M 16.921875 -23.578125 "/></g></g><g style="fill:#303144;fill-opacity:1;"><g transform="translate(71.880524, 83.32096)"><path style="stroke:none" d="M 13.734375 -11.546875 C 13.734375 -10.984375 13.421875 -10.703125 12.796875 -10.703125 L 9.421875 -10.703125 C 8.742188 -10.703125 8.40625 -10.984375 8.40625 -11.546875 L 8.40625 -23.296875 C 8.40625 -23.828125 8.742188 -24.09375 9.421875 -24.09375 L 12.796875 -24.09375 C 13.421875 -24.09375 13.734375 -23.828125 13.734375 -23.296875 Z M 21.21875 -23.234375 L 19.828125 -0.890625 C 19.785156 -0.296875 19.488281 0 18.9375 0 L 3.296875 0 C 2.765625 0 2.476562 -0.296875 2.4375 -0.890625 L 1.125 -23.234375 L 1.125 -23.453125 C 1.125 -23.878906 1.316406 -24.09375 1.703125 -24.09375 L 5.8125 -24.09375 C 6.238281 -24.09375 6.472656 -23.804688 6.515625 -23.234375 L 7.4375 -8.5 C 7.457031 -8.28125 7.59375 -8.171875 7.84375 -8.171875 L 14.546875 -8.171875 C 14.742188 -8.171875 14.859375 -8.289062 14.890625 -8.53125 L 15.96875 -23.234375 C 16.007812 -23.804688 16.269531 -24.09375 16.75 -24.09375 L 20.5625 -24.09375 C 21 -24.09375 21.21875 -23.832031 21.21875 -23.3125 Z M 21.21875 -23.234375 "/></g></g><g style="fill:#303144;fill-opacity:1;"><g transform="translate(94.206549, 83.32096)"><path style="stroke:none" d=""/></g></g><g style="fill:#303144;fill-opacity:1;"><g transform="translate(103.196495, 83.32096)"><path style="stroke:none" d="M 17.6875 -0.75 C 17.6875 -0.25 17.441406 0 16.953125 0 L 13.328125 0 C 12.773438 0 12.476562 -0.285156 12.4375 -0.859375 L 11.375 -15.484375 C 11.34375 -15.785156 11.195312 -15.9375 10.9375 -15.9375 L 8.984375 -15.9375 C 8.710938 -15.9375 8.5625 -15.785156 8.53125 -15.484375 L 7.796875 -0.859375 C 7.785156 -0.285156 7.503906 0 6.953125 0 L 1.703125 0 C 1.191406 0 0.9375 -0.273438 0.9375 -0.828125 L 0.9375 -0.859375 L 1.25 -7.25 C 1.257812 -7.84375 1.53125 -8.140625 2.0625 -8.140625 L 2.640625 -8.140625 C 2.921875 -8.140625 3.070312 -8.269531 3.09375 -8.53125 L 3.5 -15.515625 L 3.5 -15.578125 C 3.5 -15.816406 3.378906 -15.9375 3.140625 -15.9375 L 2.4375 -15.9375 C 1.875 -15.9375 1.578125 -16.25 1.546875 -16.875 L 1.25 -23.203125 L 1.25 -23.3125 C 1.25 -23.832031 1.492188 -24.09375 1.984375 -24.09375 L 15.484375 -24.09375 C 16.003906 -24.09375 16.285156 -23.796875 16.328125 -23.203125 L 17.6875 -0.859375 Z M 17.6875 -0.75 "/></g></g><g style="fill:#303144;fill-opacity:1;"><g transform="translate(122.029737, 83.32096)"><path style="stroke:none" d="M 14.3125 -0.796875 C 14.3125 -0.265625 14.050781 0 13.53125 0 L 1.546875 0 C 1.054688 0 0.8125 -0.242188 0.8125 -0.734375 L 0.8125 -0.859375 L 1.390625 -7.328125 C 1.453125 -7.867188 1.75 -8.140625 2.28125 -8.140625 L 8.171875 -8.140625 C 8.460938 -8.140625 8.609375 -8.273438 8.609375 -8.546875 L 8.609375 -8.609375 L 8.171875 -15.5625 C 8.160156 -15.8125 8.035156 -15.9375 7.796875 -15.9375 L 2.25 -15.9375 C 1.726562 -15.9375 1.46875 -16.175781 1.46875 -16.65625 L 1.46875 -16.703125 L 1.90625 -23.203125 C 1.945312 -23.796875 2.242188 -24.09375 2.796875 -24.09375 L 12.109375 -24.09375 C 12.640625 -24.09375 12.921875 -23.796875 12.953125 -23.203125 L 14.3125 -0.859375 Z M 14.3125 -0.796875 "/></g></g><g style="fill:#303144;fill-opacity:1;"><g transform="translate(137.489268, 83.32096)"><path style="stroke:none" d="M 13.328125 -0.8125 C 13.328125 -0.269531 13.113281 0 12.6875 0 L 8.6875 0 C 8.175781 0 7.921875 -0.269531 7.921875 -0.8125 L 7.921875 -15.5625 C 7.921875 -15.832031 7.773438 -15.96875 7.484375 -15.96875 L 2.03125 -15.96875 C 1.46875 -15.96875 1.179688 -16.226562 1.171875 -16.75 L 0.78125 -23.203125 L 0.78125 -23.25 C 0.78125 -23.8125 1.035156 -24.09375 1.546875 -24.09375 L 12.515625 -24.09375 C 13.054688 -24.09375 13.328125 -23.796875 13.328125 -23.203125 Z M 13.328125 -0.8125 "/></g></g><g style="fill:#303144;fill-opacity:1;"><g transform="translate(152.452666, 83.32096)"><path style="stroke:none" d="M 16.09375 -23.203125 L 14.75 -0.859375 C 14.707031 -0.285156 14.421875 0 13.890625 0 L 1.703125 0 C 1.210938 0 0.96875 -0.265625 0.96875 -0.796875 L 0.96875 -0.859375 L 1.515625 -7.328125 C 1.546875 -7.867188 1.84375 -8.140625 2.40625 -8.140625 L 3.25 -8.140625 L 1.9375 -23.203125 L 1.9375 -23.3125 C 1.9375 -23.800781 2.179688 -24.046875 2.671875 -24.046875 L 6.421875 -24.046875 C 6.972656 -24.046875 7.273438 -23.765625 7.328125 -23.203125 L 8.609375 -8.09375 L 9.390625 -8.09375 C 9.660156 -8.09375 9.8125 -8.265625 9.84375 -8.609375 L 10.8125 -23.203125 C 10.851562 -23.765625 11.140625 -24.046875 11.671875 -24.046875 L 15.3125 -24.046875 C 15.832031 -24.046875 16.09375 -23.796875 16.09375 -23.296875 Z M 16.09375 -23.203125 "/></g></g><g style="fill:#303144;fill-opacity:1;"><g transform="translate(169.698288, 83.32096)"><path style="stroke:none" d="M 17.1875 -0.796875 C 17.1875 -0.265625 16.925781 0 16.40625 0 L 8.984375 0 C 8.472656 0 8.21875 -0.269531 8.21875 -0.8125 L 8.21875 -0.859375 L 8.578125 -7.140625 C 8.609375 -7.804688 8.890625 -8.140625 9.421875 -8.140625 L 10.96875 -8.140625 C 11.21875 -8.140625 11.34375 -8.265625 11.34375 -8.515625 C 11.34375 -8.566406 11.335938 -8.597656 11.328125 -8.609375 L 10.890625 -15.484375 C 10.878906 -15.804688 10.726562 -15.96875 10.4375 -15.96875 L 7.875 -15.96875 C 7.601562 -15.96875 7.457031 -15.804688 7.4375 -15.484375 L 6.546875 -0.859375 C 6.503906 -0.285156 6.21875 0 5.6875 0 L 1.90625 0 C 1.382812 0 1.125 -0.269531 1.125 -0.8125 L 1.125 -0.859375 L 2.5625 -23.203125 C 2.601562 -23.796875 2.898438 -24.09375 3.453125 -24.09375 L 14.921875 -24.09375 C 15.453125 -24.09375 15.738281 -23.796875 15.78125 -23.203125 L 17.1875 -0.859375 Z M 17.1875 -0.796875 "/></g></g></g></svg>