<svg xmlns="http://www.w3.org/2000/svg" xmlns:xlink="http://www.w3.org/1999/xlink" width="251" zoomAndPan="magnify" viewBox="0 0 188.25 103.5" height="138" preserveAspectRatio="xMidYMid meet" version="1.2"><defs><clipPath id="432510c0ea"><path d="M 0.078125 4.410156 L 187.425781 4.410156 L 187.425781 103 L 0.078125 103 Z M 0.078125 4.410156 "/></clipPath><clipPath id="a6422aba75"><path d="M 10.519531 102.746094 L 176.964844 102.746094 C 179.734375 102.746094 182.390625 101.644531 184.351562 99.683594 C 186.3125 97.726562 187.414062 95.066406 187.414062 92.296875 L 187.414062 51.191406 C 187.414062 48.417969 186.3125 45.761719 184.351562 43.800781 C 182.390625 41.84375 179.734375 40.742188 176.964844 40.742188 L 163.722656 40.742188 C 160.949219 40.742188 158.292969 39.640625 156.332031 37.679688 C 154.375 35.722656 153.273438 33.0625 153.273438 30.292969 L 153.273438 10.441406 C 153.273438 8.328125 152.128906 6.375 150.28125 5.339844 C 148.433594 4.308594 146.171875 4.355469 144.367188 5.460938 L 95.824219 35.273438 C 90 38.847656 83.300781 40.742188 76.46875 40.742188 L 10.519531 40.742188 C 7.746094 40.742188 5.089844 41.84375 3.128906 43.800781 C 1.171875 45.761719 0.0703125 48.417969 0.0703125 51.191406 L 0.0703125 92.296875 C 0.0703125 95.066406 1.171875 97.726562 3.128906 99.683594 C 5.089844 101.644531 7.746094 102.746094 10.519531 102.746094 Z M 10.519531 102.746094 "/></clipPath></defs><g id="15851e24fa"><g clip-rule="nonzero" clip-path="url(#432510c0ea)"><g clip-rule="nonzero" clip-path="url(#a6422aba75)"><path style=" stroke:none;fill-rule:nonzero;fill:#ffcf7e;fill-opacity:1;" d="M 187.414062 102.746094 L -0.03125 102.746094 L -0.03125 -0.0078125 L 187.414062 -0.0078125 Z M 187.414062 102.746094 "/></g></g><g style="fill:#303144;fill-opacity:1;"><g transform="translate(9.262016, 80.797828)"><path style="stroke:none" d="M 16.078125 -23.1875 L 14.734375 -0.859375 C 14.691406 -0.285156 14.40625 0 13.875 0 L 1.703125 0 C 1.210938 0 0.96875 -0.265625 0.96875 -0.796875 L 0.96875 -0.859375 L 1.5 -7.3125 C 1.539062 -7.851562 1.84375 -8.125 2.40625 -8.125 L 3.25 -8.125 L 1.9375 -23.1875 L 1.9375 -23.296875 C 1.9375 -23.785156 2.179688 -24.03125 2.671875 -24.03125 L 6.421875 -24.03125 C 6.960938 -24.03125 7.257812 -23.75 7.3125 -23.1875 L 8.609375 -8.09375 L 9.375 -8.09375 C 9.65625 -8.09375 9.804688 -8.265625 9.828125 -8.609375 L 10.8125 -23.1875 C 10.84375 -23.75 11.125 -24.03125 11.65625 -24.03125 L 15.3125 -24.03125 C 15.820312 -24.03125 16.078125 -23.78125 16.078125 -23.28125 Z M 16.078125 -23.1875 "/></g></g><g style="fill:#303144;fill-opacity:1;"><g transform="translate(26.489976, 80.797828)"><path style="stroke:none" d="M 14.171875 -23.0625 L 13.765625 -17.125 C 13.691406 -16.351562 13.429688 -15.96875 12.984375 -15.96875 L 11.78125 -15.96875 L 11.78125 -0.859375 C 11.78125 -0.285156 11.46875 0 10.84375 0 L 7.234375 0 C 6.671875 0 6.390625 -0.296875 6.390625 -0.890625 L 6.390625 -15.96875 L 1.5 -15.96875 C 1 -15.96875 0.726562 -16.351562 0.6875 -17.125 L 0.390625 -23.0625 L 0.390625 -23.203125 C 0.390625 -23.785156 0.675781 -24.078125 1.25 -24.078125 L 13.4375 -24.078125 C 13.925781 -24.078125 14.171875 -23.789062 14.171875 -23.21875 Z M 14.171875 -23.0625 "/></g></g><g style="fill:#303144;fill-opacity:1;"><g transform="translate(41.081205, 80.797828)"><path style="stroke:none" d="M 8.328125 -10.390625 C 8.328125 -9.847656 8.109375 -9.578125 7.671875 -9.578125 L 3.6875 -9.578125 C 3.207031 -9.578125 2.96875 -9.847656 2.96875 -10.390625 L 2.96875 -15.546875 C 2.96875 -15.828125 2.832031 -15.96875 2.5625 -15.96875 L 2.234375 -15.96875 C 1.816406 -15.96875 1.585938 -16.238281 1.546875 -16.78125 L 1.125 -23.1875 L 1.125 -23.265625 C 1.125 -23.804688 1.382812 -24.078125 1.90625 -24.078125 L 7.515625 -24.078125 C 8.054688 -24.078125 8.328125 -23.78125 8.328125 -23.1875 Z M 8.328125 -10.390625 "/></g></g><g style="fill:#303144;fill-opacity:1;"><g transform="translate(50.676525, 80.797828)"><path style="stroke:none" d="M 17.171875 -0.796875 C 17.171875 -0.265625 16.910156 0 16.390625 0 L 8.984375 0 C 8.460938 0 8.203125 -0.269531 8.203125 -0.8125 L 8.203125 -0.859375 L 8.5625 -7.140625 C 8.601562 -7.796875 8.890625 -8.125 9.421875 -8.125 L 10.96875 -8.125 C 11.21875 -8.125 11.34375 -8.25 11.34375 -8.5 C 11.34375 -8.550781 11.335938 -8.585938 11.328125 -8.609375 L 10.890625 -15.46875 C 10.867188 -15.800781 10.71875 -15.96875 10.4375 -15.96875 L 7.875 -15.96875 C 7.59375 -15.96875 7.445312 -15.800781 7.4375 -15.46875 L 6.546875 -0.859375 C 6.503906 -0.285156 6.21875 0 5.6875 0 L 1.90625 0 C 1.382812 0 1.125 -0.269531 1.125 -0.8125 L 1.125 -0.859375 L 2.5625 -23.1875 C 2.601562 -23.78125 2.898438 -24.078125 3.453125 -24.078125 L 14.90625 -24.078125 C 15.4375 -24.078125 15.722656 -23.78125 15.765625 -23.1875 L 17.171875 -0.859375 Z M 17.171875 -0.796875 "/></g></g><g style="fill:#303144;fill-opacity:1;"><g transform="translate(68.994861, 80.797828)"><path style="stroke:none" d="M 15.921875 -0.90625 C 15.921875 -0.300781 15.648438 0 15.109375 0 L 11.46875 0 C 10.863281 0 10.546875 -0.335938 10.515625 -1.015625 L 9.65625 -15.3125 C 9.625 -15.75 9.4375 -15.96875 9.09375 -15.96875 L 2.875 -15.96875 C 2.25 -15.96875 1.9375 -16.316406 1.9375 -17.015625 L 1.9375 -17.125 L 2.28125 -23.09375 C 2.320312 -23.75 2.671875 -24.078125 3.328125 -24.078125 L 13.71875 -24.078125 C 14.332031 -24.078125 14.65625 -23.722656 14.6875 -23.015625 L 15.921875 -1.015625 Z M 6.65625 -10.546875 L 6.390625 -0.9375 C 6.359375 -0.3125 6.023438 0 5.390625 0 L 1.9375 0 C 1.394531 0 1.125 -0.316406 1.125 -0.953125 L 1.125 -1.015625 L 1.5 -10.640625 C 1.519531 -11.296875 1.882812 -11.625 2.59375 -11.625 L 5.734375 -11.625 C 6.347656 -11.625 6.65625 -11.289062 6.65625 -10.625 Z M 6.65625 -10.546875 "/></g></g><g style="fill:#303144;fill-opacity:1;"><g transform="translate(86.064221, 80.797828)"><path style="stroke:none" d=""/></g></g><g style="fill:#303144;fill-opacity:1;"><g transform="translate(95.044964, 80.797828)"><path style="stroke:none" d="M 17.671875 -0.75 C 17.671875 -0.25 17.425781 0 16.9375 0 L 13.328125 0 C 12.765625 0 12.46875 -0.285156 12.4375 -0.859375 L 11.359375 -15.46875 C 11.335938 -15.769531 11.191406 -15.921875 10.921875 -15.921875 L 8.984375 -15.921875 C 8.703125 -15.921875 8.550781 -15.769531 8.53125 -15.46875 L 7.796875 -0.859375 C 7.773438 -0.285156 7.488281 0 6.9375 0 L 1.703125 0 C 1.191406 0 0.9375 -0.273438 0.9375 -0.828125 L 0.9375 -0.859375 L 1.25 -7.234375 C 1.257812 -7.828125 1.53125 -8.125 2.0625 -8.125 L 2.640625 -8.125 C 2.910156 -8.125 3.0625 -8.257812 3.09375 -8.53125 L 3.484375 -15.5 L 3.484375 -15.5625 C 3.484375 -15.800781 3.367188 -15.921875 3.140625 -15.921875 L 2.4375 -15.921875 C 1.875 -15.921875 1.578125 -16.234375 1.546875 -16.859375 L 1.25 -23.1875 L 1.25 -23.296875 C 1.25 -23.816406 1.492188 -24.078125 1.984375 -24.078125 L 15.46875 -24.078125 C 16 -24.078125 16.28125 -23.78125 16.3125 -23.1875 L 17.671875 -0.859375 Z M 17.671875 -0.75 "/></g></g><g style="fill:#303144;fill-opacity:1;"><g transform="translate(113.858927, 80.797828)"><path style="stroke:none" d="M 13.71875 -11.546875 C 13.71875 -10.972656 13.410156 -10.6875 12.796875 -10.6875 L 9.421875 -10.6875 C 8.742188 -10.6875 8.40625 -10.972656 8.40625 -11.546875 L 8.40625 -23.28125 C 8.40625 -23.8125 8.742188 -24.078125 9.421875 -24.078125 L 12.796875 -24.078125 C 13.410156 -24.078125 13.71875 -23.8125 13.71875 -23.28125 Z M 21.203125 -23.21875 L 19.8125 -0.890625 C 19.769531 -0.296875 19.472656 0 18.921875 0 L 3.296875 0 C 2.765625 0 2.476562 -0.296875 2.4375 -0.890625 L 1.125 -23.21875 L 1.125 -23.4375 C 1.125 -23.863281 1.316406 -24.078125 1.703125 -24.078125 L 5.8125 -24.078125 C 6.226562 -24.078125 6.457031 -23.789062 6.5 -23.21875 L 7.4375 -8.484375 C 7.445312 -8.273438 7.578125 -8.171875 7.828125 -8.171875 L 14.53125 -8.171875 C 14.726562 -8.171875 14.84375 -8.289062 14.875 -8.53125 L 15.96875 -23.21875 C 16 -23.789062 16.253906 -24.078125 16.734375 -24.078125 L 20.546875 -24.078125 C 20.984375 -24.078125 21.203125 -23.816406 21.203125 -23.296875 Z M 21.203125 -23.21875 "/></g></g><g style="fill:#303144;fill-opacity:1;"><g transform="translate(136.162097, 80.797828)"><path style="stroke:none" d="M 11.703125 -0.734375 C 11.703125 -0.242188 11.441406 0 10.921875 0 L 7.140625 0 C 6.671875 0 6.429688 -0.242188 6.421875 -0.734375 L 6.28125 -2.875 L 1.78125 0.8125 C 1.632812 0.914062 1.5 0.96875 1.375 0.96875 C 1 0.96875 0.8125 0.742188 0.8125 0.296875 L 0.8125 0.203125 L 1.390625 -7.09375 C 1.429688 -7.582031 1.6875 -7.976562 2.15625 -8.28125 L 5.6875 -10.515625 L 5.359375 -15.5 C 5.328125 -15.78125 5.191406 -15.921875 4.953125 -15.921875 L 3.328125 -15.921875 C 2.679688 -15.921875 2.359375 -16.164062 2.359375 -16.65625 L 2.359375 -16.8125 L 2.796875 -23.28125 C 2.835938 -23.8125 3.09375 -24.078125 3.5625 -24.078125 L 9.578125 -24.078125 C 10.054688 -24.078125 10.3125 -23.789062 10.34375 -23.21875 L 11.703125 -0.859375 Z M 11.703125 -0.734375 "/></g></g><g style="fill:#303144;fill-opacity:1;"><g transform="translate(148.65188, 80.797828)"><path style="stroke:none" d="M 11.375 -0.765625 C 11.375 -0.253906 11.117188 0 10.609375 0 L 1.546875 0 C 1.054688 0 0.8125 -0.253906 0.8125 -0.765625 L 0.8125 -0.859375 L 1.421875 -7.28125 C 1.472656 -7.84375 1.757812 -8.125 2.28125 -8.125 L 5.1875 -8.125 C 5.5 -8.125 5.65625 -8.210938 5.65625 -8.390625 L 5.65625 -8.453125 L 5.078125 -15.578125 C 5.046875 -15.804688 4.894531 -15.921875 4.625 -15.921875 L 3.53125 -15.921875 C 3.007812 -15.921875 2.75 -16.179688 2.75 -16.703125 L 2.75 -16.734375 L 3.21875 -23.1875 C 3.25 -23.78125 3.546875 -24.078125 4.109375 -24.078125 L 9.1875 -24.078125 C 9.707031 -24.078125 9.988281 -23.78125 10.03125 -23.1875 L 11.359375 -0.859375 C 11.367188 -0.835938 11.375 -0.804688 11.375 -0.765625 Z M 11.375 -0.765625 "/></g></g><g style="fill:#303144;fill-opacity:1;"><g transform="translate(161.161472, 80.797828)"><path style="stroke:none" d="M 15.921875 -0.90625 C 15.921875 -0.300781 15.648438 0 15.109375 0 L 11.46875 0 C 10.863281 0 10.546875 -0.335938 10.515625 -1.015625 L 9.65625 -15.3125 C 9.625 -15.75 9.4375 -15.96875 9.09375 -15.96875 L 2.875 -15.96875 C 2.25 -15.96875 1.9375 -16.316406 1.9375 -17.015625 L 1.9375 -17.125 L 2.28125 -23.09375 C 2.320312 -23.75 2.671875 -24.078125 3.328125 -24.078125 L 13.71875 -24.078125 C 14.332031 -24.078125 14.65625 -23.722656 14.6875 -23.015625 L 15.921875 -1.015625 Z M 6.65625 -10.546875 L 6.390625 -0.9375 C 6.359375 -0.3125 6.023438 0 5.390625 0 L 1.9375 0 C 1.394531 0 1.125 -0.316406 1.125 -0.953125 L 1.125 -1.015625 L 1.5 -10.640625 C 1.519531 -11.296875 1.882812 -11.625 2.59375 -11.625 L 5.734375 -11.625 C 6.347656 -11.625 6.65625 -11.289062 6.65625 -10.625 Z M 6.65625 -10.546875 "/></g></g></g></svg>