<svg xmlns="http://www.w3.org/2000/svg" xmlns:xlink="http://www.w3.org/1999/xlink" width="276" zoomAndPan="magnify" viewBox="0 0 206.87999 106.499997" height="142" preserveAspectRatio="xMidYMid meet" version="1.2"><defs><clipPath id="b456f6e06a"><path d="M 0.421875 2.410156 L 205.957031 2.410156 L 205.957031 101 L 0.421875 101 Z M 0.421875 2.410156 "/></clipPath><clipPath id="05a08ec0df"><path d="M 195.398438 2.8125 L 10.875 2.8125 C 8.101562 2.8125 5.445312 3.914062 3.484375 5.875 C 1.523438 7.832031 0.421875 10.492188 0.421875 13.261719 L 0.421875 54.375 C 0.421875 57.144531 1.523438 59.804688 3.484375 61.765625 C 5.445312 63.722656 8.101562 64.824219 10.875 64.824219 L 24.117188 64.824219 C 26.890625 64.824219 29.546875 65.925781 31.507812 67.886719 C 33.46875 69.847656 34.566406 72.503906 34.566406 75.277344 L 34.566406 95.128906 C 34.566406 97.246094 35.710938 99.195312 37.558594 100.230469 C 39.40625 101.261719 41.671875 101.21875 43.472656 100.109375 L 92.023438 70.292969 C 97.847656 66.71875 104.546875 64.824219 111.382812 64.824219 L 195.398438 64.824219 C 198.171875 64.824219 200.828125 63.722656 202.789062 61.765625 C 204.75 59.804688 205.847656 57.144531 205.847656 54.375 L 205.847656 13.261719 C 205.847656 10.492188 204.75 7.832031 202.789062 5.875 C 200.828125 3.914062 198.171875 2.8125 195.398438 2.8125 Z M 195.398438 2.8125 "/></clipPath></defs><g id="6e496c9192"><g clip-rule="nonzero" clip-path="url(#b456f6e06a)"><g clip-rule="nonzero" clip-path="url(#05a08ec0df)"><path style=" stroke:none;fill-rule:nonzero;fill:#ffcf7e;fill-opacity:1;" d="M 0.421875 2.8125 L 205.957031 2.8125 L 205.957031 105.578125 L 0.421875 105.578125 Z M 0.421875 2.8125 "/></g></g><g style="fill:#303144;fill-opacity:1;"><g transform="translate(15.813828, 43.767596)"><path style="stroke:none" d="M 13.71875 -11.546875 C 13.71875 -10.972656 13.410156 -10.6875 12.796875 -10.6875 L 9.421875 -10.6875 C 8.742188 -10.6875 8.40625 -10.972656 8.40625 -11.546875 L 8.40625 -23.28125 C 8.40625 -23.8125 8.742188 -24.078125 9.421875 -24.078125 L 12.796875 -24.078125 C 13.410156 -24.078125 13.71875 -23.8125 13.71875 -23.28125 Z M 21.203125 -23.21875 L 19.8125 -0.890625 C 19.769531 -0.296875 19.472656 0 18.921875 0 L 3.296875 0 C 2.765625 0 2.476562 -0.296875 2.4375 -0.890625 L 1.125 -23.21875 L 1.125 -23.4375 C 1.125 -23.863281 1.316406 -24.078125 1.703125 -24.078125 L 5.8125 -24.078125 C 6.226562 -24.078125 6.457031 -23.789062 6.5 -23.21875 L 7.4375 -8.484375 C 7.445312 -8.273438 7.578125 -8.171875 7.828125 -8.171875 L 14.53125 -8.171875 C 14.726562 -8.171875 14.84375 -8.289062 14.875 -8.53125 L 15.96875 -23.21875 C 16 -23.789062 16.253906 -24.078125 16.734375 -24.078125 L 20.546875 -24.078125 C 20.984375 -24.078125 21.203125 -23.816406 21.203125 -23.296875 Z M 21.203125 -23.21875 "/></g></g><g style="fill:#303144;fill-opacity:1;"><g transform="translate(38.120018, 43.767596)"><path style="stroke:none" d="M 9.796875 -26.546875 C 9.796875 -26.390625 9.78125 -26.242188 9.75 -26.109375 L 7.359375 -16.359375 C 7.253906 -15.960938 6.976562 -15.765625 6.53125 -15.765625 C 5.914062 -15.765625 5.609375 -16.0625 5.609375 -16.65625 L 5.609375 -26.03125 C 5.609375 -26.757812 5.832031 -27.125 6.28125 -27.125 L 9.34375 -27.125 C 9.644531 -27.125 9.796875 -26.929688 9.796875 -26.546875 Z M 5.0625 -26.546875 C 5.0625 -26.421875 5.039062 -26.273438 5 -26.109375 L 2.59375 -16.359375 C 2.488281 -15.960938 2.207031 -15.765625 1.75 -15.765625 C 1.125 -15.765625 0.8125 -16.0625 0.8125 -16.65625 L 0.8125 -26.03125 C 0.8125 -26.757812 1.054688 -27.125 1.546875 -27.125 L 4.578125 -27.125 C 4.898438 -27.125 5.0625 -26.929688 5.0625 -26.546875 Z M 5.0625 -26.546875 "/></g></g><g style="fill:#303144;fill-opacity:1;"><g transform="translate(48.47009, 43.767596)"><path style="stroke:none" d="M 17.171875 -0.796875 C 17.171875 -0.265625 16.910156 0 16.390625 0 L 8.984375 0 C 8.460938 0 8.203125 -0.269531 8.203125 -0.8125 L 8.203125 -0.859375 L 8.5625 -7.140625 C 8.601562 -7.796875 8.890625 -8.125 9.421875 -8.125 L 10.96875 -8.125 C 11.21875 -8.125 11.34375 -8.25 11.34375 -8.5 C 11.34375 -8.550781 11.335938 -8.585938 11.328125 -8.609375 L 10.890625 -15.46875 C 10.867188 -15.800781 10.71875 -15.96875 10.4375 -15.96875 L 7.875 -15.96875 C 7.59375 -15.96875 7.445312 -15.800781 7.4375 -15.46875 L 6.546875 -0.859375 C 6.503906 -0.285156 6.21875 0 5.6875 0 L 1.90625 0 C 1.382812 0 1.125 -0.269531 1.125 -0.8125 L 1.125 -0.859375 L 2.5625 -23.1875 C 2.601562 -23.78125 2.898438 -24.078125 3.453125 -24.078125 L 14.90625 -24.078125 C 15.4375 -24.078125 15.722656 -23.78125 15.765625 -23.1875 L 17.171875 -0.859375 Z M 17.171875 -0.796875 "/></g></g><g style="fill:#303144;fill-opacity:1;"><g transform="translate(66.790907, 43.767596)"><path style="stroke:none" d="M 16.078125 -23.1875 L 14.734375 -0.859375 C 14.691406 -0.285156 14.40625 0 13.875 0 L 1.703125 0 C 1.210938 0 0.96875 -0.265625 0.96875 -0.796875 L 0.96875 -0.859375 L 1.5 -7.3125 C 1.539062 -7.851562 1.84375 -8.125 2.40625 -8.125 L 3.25 -8.125 L 1.9375 -23.1875 L 1.9375 -23.296875 C 1.9375 -23.785156 2.179688 -24.03125 2.671875 -24.03125 L 6.421875 -24.03125 C 6.960938 -24.03125 7.257812 -23.75 7.3125 -23.1875 L 8.609375 -8.09375 L 9.375 -8.09375 C 9.65625 -8.09375 9.804688 -8.265625 9.828125 -8.609375 L 10.8125 -23.1875 C 10.84375 -23.75 11.125 -24.03125 11.65625 -24.03125 L 15.3125 -24.03125 C 15.820312 -24.03125 16.078125 -23.78125 16.078125 -23.28125 Z M 16.078125 -23.1875 "/></g></g><g style="fill:#303144;fill-opacity:1;"><g transform="translate(84.0212, 43.767596)"><path style="stroke:none" d="M 7.953125 -0.8125 C 7.953125 -0.269531 7.753906 0 7.359375 0 L 3.328125 0 C 2.835938 0 2.59375 -0.269531 2.59375 -0.8125 L 2.59375 -15.578125 C 2.59375 -15.835938 2.5 -15.96875 2.3125 -15.96875 L 2.109375 -15.96875 C 1.773438 -15.96875 1.585938 -16.238281 1.546875 -16.78125 L 1.125 -23.1875 L 1.125 -23.234375 C 1.125 -23.796875 1.382812 -24.078125 1.90625 -24.078125 L 7.140625 -24.078125 C 7.679688 -24.078125 7.953125 -23.78125 7.953125 -23.1875 Z M 7.953125 -0.8125 "/></g></g><g style="fill:#303144;fill-opacity:1;"><g transform="translate(93.26092, 43.767596)"><path style="stroke:none" d="M 8.328125 -10.390625 C 8.328125 -9.847656 8.109375 -9.578125 7.671875 -9.578125 L 3.6875 -9.578125 C 3.207031 -9.578125 2.96875 -9.847656 2.96875 -10.390625 L 2.96875 -15.546875 C 2.96875 -15.828125 2.832031 -15.96875 2.5625 -15.96875 L 2.234375 -15.96875 C 1.816406 -15.96875 1.585938 -16.238281 1.546875 -16.78125 L 1.125 -23.1875 L 1.125 -23.265625 C 1.125 -23.804688 1.382812 -24.078125 1.90625 -24.078125 L 7.515625 -24.078125 C 8.054688 -24.078125 8.328125 -23.78125 8.328125 -23.1875 Z M 8.328125 -10.390625 "/></g></g><g style="fill:#303144;fill-opacity:1;"><g transform="translate(102.857539, 43.767596)"><path style="stroke:none" d=""/></g></g><g style="fill:#303144;fill-opacity:1;"><g transform="translate(111.839498, 43.767596)"><path style="stroke:none" d="M 17.671875 -0.75 C 17.671875 -0.25 17.425781 0 16.9375 0 L 13.328125 0 C 12.765625 0 12.46875 -0.285156 12.4375 -0.859375 L 11.359375 -15.46875 C 11.335938 -15.769531 11.191406 -15.921875 10.921875 -15.921875 L 8.984375 -15.921875 C 8.703125 -15.921875 8.550781 -15.769531 8.53125 -15.46875 L 7.796875 -0.859375 C 7.773438 -0.285156 7.488281 0 6.9375 0 L 1.703125 0 C 1.191406 0 0.9375 -0.273438 0.9375 -0.828125 L 0.9375 -0.859375 L 1.25 -7.234375 C 1.257812 -7.828125 1.53125 -8.125 2.0625 -8.125 L 2.640625 -8.125 C 2.910156 -8.125 3.0625 -8.257812 3.09375 -8.53125 L 3.484375 -15.5 L 3.484375 -15.5625 C 3.484375 -15.800781 3.367188 -15.921875 3.140625 -15.921875 L 2.4375 -15.921875 C 1.875 -15.921875 1.578125 -16.234375 1.546875 -16.859375 L 1.25 -23.1875 L 1.25 -23.296875 C 1.25 -23.816406 1.492188 -24.078125 1.984375 -24.078125 L 15.46875 -24.078125 C 16 -24.078125 16.28125 -23.78125 16.3125 -23.1875 L 17.671875 -0.859375 Z M 17.671875 -0.75 "/></g></g><g style="fill:#303144;fill-opacity:1;"><g transform="translate(130.656008, 43.767596)"><path style="stroke:none" d="M 14.171875 -23.0625 L 13.765625 -17.125 C 13.691406 -16.351562 13.429688 -15.96875 12.984375 -15.96875 L 11.78125 -15.96875 L 11.78125 -0.859375 C 11.78125 -0.285156 11.46875 0 10.84375 0 L 7.234375 0 C 6.671875 0 6.390625 -0.296875 6.390625 -0.890625 L 6.390625 -15.96875 L 1.5 -15.96875 C 1 -15.96875 0.726562 -16.351562 0.6875 -17.125 L 0.390625 -23.0625 L 0.390625 -23.203125 C 0.390625 -23.785156 0.675781 -24.078125 1.25 -24.078125 L 13.4375 -24.078125 C 13.925781 -24.078125 14.171875 -23.789062 14.171875 -23.21875 Z M 14.171875 -23.0625 "/></g></g><g style="fill:#303144;fill-opacity:1;"><g transform="translate(145.249213, 43.767596)"><path style="stroke:none" d="M 17.171875 -0.796875 C 17.171875 -0.265625 16.910156 0 16.390625 0 L 8.984375 0 C 8.460938 0 8.203125 -0.269531 8.203125 -0.8125 L 8.203125 -0.859375 L 8.5625 -7.140625 C 8.601562 -7.796875 8.890625 -8.125 9.421875 -8.125 L 10.96875 -8.125 C 11.21875 -8.125 11.34375 -8.25 11.34375 -8.5 C 11.34375 -8.550781 11.335938 -8.585938 11.328125 -8.609375 L 10.890625 -15.46875 C 10.867188 -15.800781 10.71875 -15.96875 10.4375 -15.96875 L 7.875 -15.96875 C 7.59375 -15.96875 7.445312 -15.800781 7.4375 -15.46875 L 6.546875 -0.859375 C 6.503906 -0.285156 6.21875 0 5.6875 0 L 1.90625 0 C 1.382812 0 1.125 -0.269531 1.125 -0.8125 L 1.125 -0.859375 L 2.5625 -23.1875 C 2.601562 -23.78125 2.898438 -24.078125 3.453125 -24.078125 L 14.90625 -24.078125 C 15.4375 -24.078125 15.722656 -23.78125 15.765625 -23.1875 L 17.171875 -0.859375 Z M 17.171875 -0.796875 "/></g></g><g style="fill:#303144;fill-opacity:1;"><g transform="translate(163.570031, 43.767596)"><path style="stroke:none" d="M 7.953125 -0.8125 C 7.953125 -0.269531 7.753906 0 7.359375 0 L 3.328125 0 C 2.835938 0 2.59375 -0.269531 2.59375 -0.8125 L 2.59375 -15.578125 C 2.59375 -15.835938 2.5 -15.96875 2.3125 -15.96875 L 2.109375 -15.96875 C 1.773438 -15.96875 1.585938 -16.238281 1.546875 -16.78125 L 1.125 -23.1875 L 1.125 -23.234375 C 1.125 -23.796875 1.382812 -24.078125 1.90625 -24.078125 L 7.140625 -24.078125 C 7.679688 -24.078125 7.953125 -23.78125 7.953125 -23.1875 Z M 7.953125 -0.8125 "/></g></g><g style="fill:#303144;fill-opacity:1;"><g transform="translate(172.80975, 43.767596)"><path style="stroke:none" d="M 14.09375 -23.1875 L 12.796875 -0.859375 C 12.753906 -0.285156 12.46875 0 11.9375 0 L 5.609375 0 C 5.078125 0 4.796875 -0.285156 4.765625 -0.859375 L 4.375 -7.171875 L 4.375 -7.28125 C 4.375 -7.84375 4.632812 -8.125 5.15625 -8.125 L 7.59375 -8.125 C 7.882812 -8.125 8.035156 -8.269531 8.046875 -8.5625 L 8.375 -15.390625 L 8.375 -15.453125 C 8.375 -15.765625 8.234375 -15.921875 7.953125 -15.921875 L 2.15625 -15.921875 C 1.613281 -15.921875 1.332031 -16.191406 1.3125 -16.734375 L 0.6875 -27.703125 L 0.6875 -27.859375 C 0.6875 -28.367188 0.90625 -28.625 1.34375 -28.625 L 5.1875 -28.625 C 5.75 -28.625 6.035156 -28.34375 6.046875 -27.78125 L 6.203125 -24.609375 C 6.210938 -24.253906 6.363281 -24.078125 6.65625 -24.078125 L 13.328125 -24.03125 C 13.835938 -24.03125 14.09375 -23.785156 14.09375 -23.296875 Z M 14.09375 -23.1875 "/></g></g></g></svg>