<svg width="4557" height="326" xmlns="http://www.w3.org/2000/svg" xmlns:xlink="http://www.w3.org/1999/xlink" xml:space="preserve" overflow="hidden"><defs><clipPath id="clip0"><rect x="952" y="1862" width="4557" height="326"/></clipPath></defs><g clip-path="url(#clip0)" transform="translate(-952 -1862)"><path d="M1151.54 2000.94 5485 2000.94C5498.29 2000.94 5509.06 2011.71 5509.06 2025 5509.06 2038.29 5498.29 2049.06 5485 2049.06L1151.54 2049.06C1138.25 2049.06 1127.48 2038.29 1127.48 2025 1127.48 2011.71 1138.25 2000.94 1151.54 2000.94ZM1231.98 2127.33 1115.03 2025 1231.98 1922.67C1241.98 1913.92 1257.18 1914.93 1265.93 1924.94 1274.69 1934.94 1273.67 1950.14 1263.67 1958.89L1167.42 2043.11 1167.42 2006.89 1263.67 2091.11C1273.67 2099.86 1274.69 2115.06 1265.93 2125.06 1257.18 2135.07 1241.98 2136.08 1231.98 2127.33Z" fill="#323742"/></g></svg>