<svg xmlns="http://www.w3.org/2000/svg" xmlns:xlink="http://www.w3.org/1999/xlink" width="100" zoomAndPan="magnify" viewBox="0 0 75 60" height="80" preserveAspectRatio="xMidYMid meet" version="1.2"><defs><clipPath id="3a62fbd93e"><path d="M 3.394531 8 L 74.644531 8 L 74.644531 60 L 3.394531 60 Z M 3.394531 8 "/></clipPath></defs><g id="567d6b090c"><g clip-rule="nonzero" clip-path="url(#3a62fbd93e)"><path style=" stroke:none;fill-rule:nonzero;fill:#303144;fill-opacity:1;" d="M 32.433594 17.570312 L 32.433594 10.820312 C 32.433594 8.792969 30.070312 7.78125 28.71875 9.128906 L 5.421875 30.0625 C 3.398438 31.75 3.398438 35.128906 5.421875 36.816406 L 28.71875 58.425781 C 30.070312 59.777344 32.433594 58.761719 32.433594 56.738281 L 32.433594 47.957031 C 32.433594 45.347656 34.582031 43.230469 37.191406 43.230469 C 55.742188 43.238281 65.1875 48.300781 70.585938 53.359375 C 72.273438 54.710938 74.636719 53.023438 73.960938 50.996094 C 66.535156 32.765625 51.339844 23.648438 37.160156 22.296875 C 34.460938 22.296875 32.433594 20.273438 32.433594 17.570312 "/></g><path style=" stroke:none;fill-rule:nonzero;fill:#ffcf7e;fill-opacity:1;" d="M 29.039062 9.847656 L 29.039062 3.09375 C 29.039062 1.070312 26.675781 0.0546875 25.324219 1.40625 L 2.03125 22.339844 C 0.00390625 24.027344 0.00390625 27.402344 2.03125 29.089844 L 25.324219 50.699219 C 26.675781 52.050781 29.039062 51.039062 29.039062 49.011719 L 29.039062 40.234375 C 29.039062 37.621094 31.1875 35.503906 33.800781 35.507812 C 52.347656 35.511719 61.792969 40.574219 67.191406 45.636719 C 68.878906 46.984375 71.242188 45.296875 70.566406 43.273438 C 63.140625 25.039062 47.945312 15.921875 33.765625 14.574219 C 31.066406 14.574219 29.039062 12.546875 29.039062 9.847656 "/></g></svg>