<svg xmlns="http://www.w3.org/2000/svg" xmlns:xlink="http://www.w3.org/1999/xlink" width="1500" zoomAndPan="magnify" viewBox="0 0 1125 63.749997" height="85" preserveAspectRatio="xMidYMid meet" version="1.2"><defs><clipPath id="876d4dbce9"><path d="M 1037.648438 20.289062 L 1066.082031 20.289062 L 1066.082031 42.847656 L 1037.648438 42.847656 Z M 1037.648438 20.289062 "/></clipPath></defs><g id="dffe9203e3"><g clip-rule="nonzero" clip-path="url(#876d4dbce9)"><path style=" stroke:none;fill-rule:nonzero;fill:#fffef8;fill-opacity:1;" d="M 1037.648438 20.289062 L 1066.113281 20.289062 L 1066.113281 42.847656 L 1037.648438 42.847656 Z M 1037.648438 20.289062 "/></g><g style="fill:#ff8ca1;fill-opacity:1;"><g transform="translate(89.092224, 42.276712)"><path style="stroke:none" d="M 7.421875 0 L 7.421875 -17.125 C 7.421875 -18.0625 6.953125 -18.53125 6.015625 -18.53125 L 0.546875 -18.53125 L 0.546875 -23.3125 L 9.515625 -23.3125 C 10.960938 -23.3125 11.976562 -23.007812 12.5625 -22.40625 C 13.144531 -21.8125 13.4375 -20.804688 13.4375 -19.390625 L 13.4375 0 Z M 7.421875 0 "/></g></g><g style="fill:#ff8ca1;fill-opacity:1;"><g transform="translate(106.340592, 42.276712)"><path style="stroke:none" d="M 16.125 -9.046875 L 17.171875 -4.078125 C 17.429688 -2.890625 17.300781 -1.910156 16.78125 -1.140625 C 16.257812 -0.378906 15.351562 0 14.0625 0 L 0.890625 0 L 0.890625 -4.78125 L 9.90625 -4.78125 C 10.269531 -4.78125 10.519531 -4.875 10.65625 -5.0625 C 10.800781 -5.257812 10.8125 -5.679688 10.6875 -6.328125 L 10.40625 -7.5 C 10.332031 -7.9375 10.1875 -8.273438 9.96875 -8.515625 C 9.75 -8.765625 9.441406 -8.984375 9.046875 -9.171875 L 5.015625 -11.109375 C 4.546875 -11.316406 4.1875 -11.554688 3.9375 -11.828125 C 3.695312 -12.097656 3.507812 -12.503906 3.375 -13.046875 L 0.859375 -23.3125 L 6.953125 -23.3125 L 9.046875 -14.796875 L 11.140625 -23.3125 L 17.328125 -23.3125 L 14.21875 -11.34375 C 14.707031 -11.113281 15.117188 -10.820312 15.453125 -10.46875 C 15.796875 -10.113281 16.019531 -9.640625 16.125 -9.046875 Z M 16.125 -9.046875 "/></g></g><g style="fill:#ff8ca1;fill-opacity:1;"><g transform="translate(126.968707, 42.276712)"><path style="stroke:none" d="M 3.453125 0 L 3.453125 -17.671875 C 3.453125 -18.035156 3.394531 -18.269531 3.28125 -18.375 C 3.164062 -18.476562 2.925781 -18.53125 2.5625 -18.53125 L 1.171875 -18.53125 L 1.171875 -23.3125 L 6.875 -23.3125 C 7.832031 -23.3125 8.503906 -23.113281 8.890625 -22.71875 C 9.285156 -22.332031 9.484375 -21.675781 9.484375 -20.75 L 9.484375 0 Z M 3.453125 0 "/></g></g><g style="fill:#ff8ca1;fill-opacity:1;"><g transform="translate(140.254613, 42.276712)"><path style="stroke:none" d="M 15.296875 -23.3125 C 16.753906 -23.3125 17.785156 -23.003906 18.390625 -22.390625 C 19.003906 -21.785156 19.3125 -20.742188 19.3125 -19.265625 L 19.3125 0 L 13.28125 0 L 13.28125 -17.203125 C 13.28125 -17.722656 13.1875 -18.097656 13 -18.328125 C 12.820312 -18.566406 12.488281 -18.6875 12 -18.6875 L 10.953125 -18.6875 C 10.078125 -18.6875 9.46875 -18.410156 9.125 -17.859375 C 8.789062 -17.316406 8.78125 -16.179688 9.09375 -14.453125 L 10.484375 -6.296875 C 10.878906 -4.171875 10.765625 -2.585938 10.140625 -1.546875 C 9.515625 -0.515625 8.257812 0 6.375 0 L 1.203125 0 L 1.203125 -4.78125 L 3.5 -4.78125 C 3.863281 -4.78125 4.140625 -4.882812 4.328125 -5.09375 C 4.523438 -5.300781 4.582031 -5.6875 4.5 -6.25 L 3.21875 -13.671875 C 2.957031 -15.117188 2.914062 -16.210938 3.09375 -16.953125 C 3.28125 -17.691406 3.519531 -18.21875 3.8125 -18.53125 L 1.28125 -18.53125 L 1.28125 -23.3125 Z M 15.296875 -23.3125 "/></g></g><g style="fill:#ff8ca1;fill-opacity:1;"><g transform="translate(163.407829, 42.276712)"><path style="stroke:none" d="M 12.203125 0 L 12.203125 -17.359375 C 12.203125 -17.828125 12.113281 -18.140625 11.9375 -18.296875 C 11.769531 -18.453125 11.457031 -18.53125 11 -18.53125 L 2.015625 -18.53125 L 2.015625 -23.3125 L 14.6875 -23.3125 C 15.976562 -23.3125 16.890625 -23.003906 17.421875 -22.390625 C 17.953125 -21.785156 18.21875 -20.742188 18.21875 -19.265625 L 18.21875 0 Z M 4 0 C 2.675781 0 2.015625 -0.671875 2.015625 -2.015625 L 2.015625 -14.53125 L 8.046875 -14.53125 L 8.046875 -5.515625 C 8.046875 -5.023438 8.238281 -4.78125 8.625 -4.78125 L 9.125 -4.78125 L 9.125 0 Z M 4 0 "/></g></g><g style="fill:#ff8ca1;fill-opacity:1;"><g transform="translate(185.434466, 42.276712)"><path style="stroke:none" d="M 18.6875 -3.296875 C 18.738281 -2.160156 18.5 -1.328125 17.96875 -0.796875 C 17.4375 -0.265625 16.5625 0 15.34375 0 L 9.640625 0 L 9.640625 -4.78125 L 11.578125 -4.78125 C 11.992188 -4.78125 12.25 -4.863281 12.34375 -5.03125 C 12.445312 -5.195312 12.488281 -5.472656 12.46875 -5.859375 L 11.890625 -16.625 C 11.859375 -17.375 11.757812 -17.90625 11.59375 -18.21875 C 11.425781 -18.53125 11.125 -18.6875 10.6875 -18.6875 L 10.53125 -18.6875 C 10.1875 -18.6875 9.941406 -18.585938 9.796875 -18.390625 C 9.660156 -18.191406 9.554688 -17.796875 9.484375 -17.203125 L 7.1875 0 L 1.046875 0 L 3.21875 -14.953125 C 3.457031 -16.585938 3.910156 -17.78125 4.578125 -18.53125 L 1.703125 -18.53125 L 1.703125 -23.3125 L 12.78125 -23.3125 C 14.257812 -23.3125 15.453125 -22.90625 16.359375 -22.09375 C 17.265625 -21.289062 17.769531 -19.78125 17.875 -17.5625 Z M 18.6875 -3.296875 "/></g></g><g style="fill:#ff8ca1;fill-opacity:1;"><g transform="translate(207.189159, 42.276712)"><path style="stroke:none" d=""/></g></g><g style="fill:#ff8ca1;fill-opacity:1;"><g transform="translate(216.823374, 42.276712)"><path style="stroke:none" d="M 15.296875 -23.3125 C 16.753906 -23.3125 17.785156 -23.003906 18.390625 -22.390625 C 19.003906 -21.785156 19.3125 -20.742188 19.3125 -19.265625 L 19.3125 0 L 13.28125 0 L 13.28125 -17.203125 C 13.28125 -17.722656 13.1875 -18.097656 13 -18.328125 C 12.820312 -18.566406 12.488281 -18.6875 12 -18.6875 L 10.953125 -18.6875 C 10.078125 -18.6875 9.46875 -18.410156 9.125 -17.859375 C 8.789062 -17.316406 8.78125 -16.179688 9.09375 -14.453125 L 10.484375 -6.296875 C 10.878906 -4.171875 10.765625 -2.585938 10.140625 -1.546875 C 9.515625 -0.515625 8.257812 0 6.375 0 L 1.203125 0 L 1.203125 -4.78125 L 3.5 -4.78125 C 3.863281 -4.78125 4.140625 -4.882812 4.328125 -5.09375 C 4.523438 -5.300781 4.582031 -5.6875 4.5 -6.25 L 3.21875 -13.671875 C 2.957031 -15.117188 2.914062 -16.210938 3.09375 -16.953125 C 3.28125 -17.691406 3.519531 -18.21875 3.8125 -18.53125 L 1.28125 -18.53125 L 1.28125 -23.3125 Z M 15.296875 -23.3125 "/></g></g><g style="fill:#ff8ca1;fill-opacity:1;"><g transform="translate(239.97659, 42.276712)"><path style="stroke:none" d="M 3.453125 0 L 3.453125 -17.671875 C 3.453125 -18.035156 3.394531 -18.269531 3.28125 -18.375 C 3.164062 -18.476562 2.925781 -18.53125 2.5625 -18.53125 L 1.171875 -18.53125 L 1.171875 -23.3125 L 6.875 -23.3125 C 7.832031 -23.3125 8.503906 -23.113281 8.890625 -22.71875 C 9.285156 -22.332031 9.484375 -21.675781 9.484375 -20.75 L 9.484375 0 Z M 3.453125 0 "/></g></g><g style="fill:#ff8ca1;fill-opacity:1;"><g transform="translate(253.262496, 42.276712)"><path style="stroke:none" d="M 1.78125 0 L 1.78125 -4.78125 L 10.921875 -4.78125 C 11.847656 -4.78125 12.3125 -5.234375 12.3125 -6.140625 L 12.3125 -17.4375 C 12.3125 -17.925781 12.265625 -18.253906 12.171875 -18.421875 C 12.085938 -18.597656 11.769531 -18.6875 11.21875 -18.6875 L 9.40625 -18.6875 C 8.882812 -18.6875 8.539062 -18.597656 8.375 -18.421875 C 8.207031 -18.253906 8.097656 -17.925781 8.046875 -17.4375 L 7.609375 -14.015625 C 7.585938 -13.660156 7.628906 -13.410156 7.734375 -13.265625 C 7.835938 -13.117188 8.066406 -13.046875 8.421875 -13.046875 L 9.859375 -13.046875 L 9.859375 -8.390625 L 4.390625 -8.390625 C 3.222656 -8.390625 2.398438 -8.65625 1.921875 -9.1875 C 1.441406 -9.71875 1.265625 -10.550781 1.390625 -11.6875 L 2.375 -19.96875 C 2.5 -21.132812 2.851562 -21.984375 3.4375 -22.515625 C 4.019531 -23.046875 4.878906 -23.3125 6.015625 -23.3125 L 14.453125 -23.3125 C 15.878906 -23.3125 16.878906 -23.019531 17.453125 -22.4375 C 18.035156 -21.851562 18.328125 -20.835938 18.328125 -19.390625 L 18.328125 -3.890625 C 18.328125 -2.460938 18.035156 -1.457031 17.453125 -0.875 C 16.878906 -0.289062 15.878906 0 14.453125 0 Z M 1.78125 0 "/></g></g><g style="fill:#ff8ca1;fill-opacity:1;"><g transform="translate(275.250284, 42.276712)"><path style="stroke:none" d="M 15.5 -23.3125 C 16.875 -23.3125 17.945312 -23.125 18.71875 -22.75 C 19.5 -22.375 20.035156 -21.707031 20.328125 -20.75 C 20.628906 -19.789062 20.71875 -18.425781 20.59375 -16.65625 L 19.890625 -6.21875 C 19.835938 -5.332031 19.703125 -4.523438 19.484375 -3.796875 C 19.265625 -3.078125 18.875 -2.460938 18.3125 -1.953125 C 17.757812 -1.453125 16.9375 -1.113281 15.84375 -0.9375 L 8.8125 0.234375 C 7.207031 0.515625 6.09375 0.40625 5.46875 -0.09375 C 4.851562 -0.601562 4.492188 -1.46875 4.390625 -2.6875 L 3.375 -15.890625 C 3.320312 -16.484375 3.367188 -17.003906 3.515625 -17.453125 C 3.660156 -17.910156 3.863281 -18.296875 4.125 -18.609375 C 3.394531 -18.710938 2.6875 -18.953125 2 -19.328125 C 1.3125 -19.703125 0.75 -20.265625 0.3125 -21.015625 L 3.453125 -24.625 C 3.816406 -24.050781 4.1875 -23.6875 4.5625 -23.53125 C 4.9375 -23.382812 5.421875 -23.3125 6.015625 -23.3125 Z M 14.796875 -15.03125 C 14.847656 -16.070312 14.851562 -16.851562 14.8125 -17.375 C 14.78125 -17.90625 14.625 -18.257812 14.34375 -18.4375 C 14.070312 -18.625 13.601562 -18.707031 12.9375 -18.6875 L 9.90625 -18.609375 C 9.28125 -18.453125 9.007812 -17.929688 9.09375 -17.046875 L 9.984375 -6.015625 C 10.035156 -5.523438 10.171875 -5.203125 10.390625 -5.046875 C 10.609375 -4.890625 10.925781 -4.835938 11.34375 -4.890625 L 13.046875 -5.25 C 13.515625 -5.320312 13.84375 -5.515625 14.03125 -5.828125 C 14.226562 -6.140625 14.34375 -6.628906 14.375 -7.296875 Z M 14.796875 -15.03125 "/></g></g><g style="fill:#ff8ca1;fill-opacity:1;"><g transform="translate(299.025074, 42.276712)"><path style="stroke:none" d="M 3.453125 0 L 3.453125 -17.671875 C 3.453125 -18.035156 3.394531 -18.269531 3.28125 -18.375 C 3.164062 -18.476562 2.925781 -18.53125 2.5625 -18.53125 L 1.171875 -18.53125 L 1.171875 -23.3125 L 6.875 -23.3125 C 7.832031 -23.3125 8.503906 -23.113281 8.890625 -22.71875 C 9.285156 -22.332031 9.484375 -21.675781 9.484375 -20.75 L 9.484375 0 Z M 3.453125 0 "/></g></g><g style="fill:#ff8ca1;fill-opacity:1;"><g transform="translate(312.310969, 42.276712)"><path style="stroke:none" d="M 0.109375 0 L 0.109375 -4.78125 L 3.34375 -4.78125 C 3.882812 -4.78125 4.242188 -4.867188 4.421875 -5.046875 C 4.609375 -5.234375 4.703125 -5.609375 4.703125 -6.171875 L 4.703125 -17.359375 C 4.703125 -17.828125 4.625 -18.140625 4.46875 -18.296875 C 4.3125 -18.453125 4.015625 -18.53125 3.578125 -18.53125 L 2.21875 -18.53125 L 2.21875 -23.3125 L 7.140625 -23.3125 C 8.441406 -23.3125 9.363281 -23.019531 9.90625 -22.4375 C 10.445312 -21.851562 10.71875 -20.875 10.71875 -19.5 L 10.71875 -3.890625 C 10.71875 -2.460938 10.4375 -1.457031 9.875 -0.875 C 9.320312 -0.289062 8.382812 0 7.0625 0 Z M 0.109375 0 "/></g></g><g style="fill:#ff8ca1;fill-opacity:1;"><g transform="translate(326.645744, 42.276712)"><path style="stroke:none" d=""/></g></g><g style="fill:#ff8ca1;fill-opacity:1;"><g transform="translate(336.279959, 42.276712)"><path style="stroke:none" d="M 15.296875 -23.3125 C 16.753906 -23.3125 17.785156 -23.003906 18.390625 -22.390625 C 19.003906 -21.785156 19.3125 -20.742188 19.3125 -19.265625 L 19.3125 0 L 13.28125 0 L 13.28125 -17.203125 C 13.28125 -17.722656 13.1875 -18.097656 13 -18.328125 C 12.820312 -18.566406 12.488281 -18.6875 12 -18.6875 L 10.953125 -18.6875 C 10.078125 -18.6875 9.46875 -18.410156 9.125 -17.859375 C 8.789062 -17.316406 8.78125 -16.179688 9.09375 -14.453125 L 10.484375 -6.296875 C 10.878906 -4.171875 10.765625 -2.585938 10.140625 -1.546875 C 9.515625 -0.515625 8.257812 0 6.375 0 L 1.203125 0 L 1.203125 -4.78125 L 3.5 -4.78125 C 3.863281 -4.78125 4.140625 -4.882812 4.328125 -5.09375 C 4.523438 -5.300781 4.582031 -5.6875 4.5 -6.25 L 3.21875 -13.671875 C 2.957031 -15.117188 2.914062 -16.210938 3.09375 -16.953125 C 3.28125 -17.691406 3.519531 -18.21875 3.8125 -18.53125 L 1.28125 -18.53125 L 1.28125 -23.3125 Z M 15.296875 -23.3125 "/></g></g><g style="fill:#ff8ca1;fill-opacity:1;"><g transform="translate(359.433187, 42.276712)"><path style="stroke:none" d="M 3.453125 0 L 3.453125 -17.671875 C 3.453125 -18.035156 3.394531 -18.269531 3.28125 -18.375 C 3.164062 -18.476562 2.925781 -18.53125 2.5625 -18.53125 L 1.171875 -18.53125 L 1.171875 -23.3125 L 6.875 -23.3125 C 7.832031 -23.3125 8.503906 -23.113281 8.890625 -22.71875 C 9.285156 -22.332031 9.484375 -21.675781 9.484375 -20.75 L 9.484375 0 Z M 3.453125 0 "/></g></g><g style="fill:#ff8ca1;fill-opacity:1;"><g transform="translate(372.719104, 42.276712)"><path style="stroke:none" d="M 7.765625 -12.203125 C 7.429688 -12.066406 7.238281 -11.878906 7.1875 -11.640625 C 7.132812 -11.410156 7.171875 -11.039062 7.296875 -10.53125 L 9.046875 -4.890625 C 9.484375 -3.492188 9.570312 -2.328125 9.3125 -1.390625 C 9.0625 -0.460938 8.273438 0 6.953125 0 L 1.328125 0 L 1.328125 -4.78125 L 2.5625 -4.78125 C 2.894531 -4.78125 3.035156 -4.921875 2.984375 -5.203125 L 1.984375 -10.0625 C 1.722656 -11.28125 1.703125 -12.273438 1.921875 -13.046875 C 2.140625 -13.828125 2.515625 -14.472656 3.046875 -14.984375 C 3.578125 -15.503906 4.15625 -15.9375 4.78125 -16.28125 L 5.359375 -16.59375 L 1.359375 -23.3125 L 7.5 -23.3125 L 12.9375 -13.515625 C 13.144531 -13.648438 13.285156 -13.8125 13.359375 -14 C 13.441406 -14.195312 13.484375 -14.515625 13.484375 -14.953125 L 13.484375 -23.3125 L 19.234375 -23.3125 L 19.234375 -14.484375 C 19.234375 -13.296875 18.992188 -12.289062 18.515625 -11.46875 C 18.035156 -10.65625 17.195312 -9.890625 16 -9.171875 L 15.453125 -8.8125 L 20 0 L 13.9375 0 L 7.8125 -12.203125 Z M 7.765625 -12.203125 "/></g></g><g style="fill:#ff8ca1;fill-opacity:1;"><g transform="translate(395.211896, 42.276712)"><path style="stroke:none" d="M 18.6875 -3.296875 C 18.738281 -2.160156 18.5 -1.328125 17.96875 -0.796875 C 17.4375 -0.265625 16.5625 0 15.34375 0 L 9.640625 0 L 9.640625 -4.78125 L 11.578125 -4.78125 C 11.992188 -4.78125 12.25 -4.863281 12.34375 -5.03125 C 12.445312 -5.195312 12.488281 -5.472656 12.46875 -5.859375 L 11.890625 -16.625 C 11.859375 -17.375 11.757812 -17.90625 11.59375 -18.21875 C 11.425781 -18.53125 11.125 -18.6875 10.6875 -18.6875 L 10.53125 -18.6875 C 10.1875 -18.6875 9.941406 -18.585938 9.796875 -18.390625 C 9.660156 -18.191406 9.554688 -17.796875 9.484375 -17.203125 L 7.1875 0 L 1.046875 0 L 3.21875 -14.953125 C 3.457031 -16.585938 3.910156 -17.78125 4.578125 -18.53125 L 1.703125 -18.53125 L 1.703125 -23.3125 L 12.78125 -23.3125 C 14.257812 -23.3125 15.453125 -22.90625 16.359375 -22.09375 C 17.265625 -21.289062 17.769531 -19.78125 17.875 -17.5625 Z M 18.6875 -3.296875 "/></g></g><g style="fill:#ff8ca1;fill-opacity:1;"><g transform="translate(416.966601, 42.276712)"><path style="stroke:none" d="M 14.640625 0 L 9.203125 0 L 6.921875 -8.15625 C 6.679688 -8.050781 6.519531 -7.929688 6.4375 -7.796875 C 6.363281 -7.671875 6.316406 -7.503906 6.296875 -7.296875 L 5.75 0 L 0.03125 0 L 1.125 -8.890625 C 1.226562 -9.722656 1.445312 -10.359375 1.78125 -10.796875 C 2.125 -11.234375 2.644531 -11.597656 3.34375 -11.890625 L 5.78125 -12.890625 C 6.195312 -13.078125 6.507812 -13.316406 6.71875 -13.609375 C 6.925781 -13.910156 7.03125 -14.347656 7.03125 -14.921875 L 7.03125 -17.484375 C 7.03125 -17.921875 6.960938 -18.203125 6.828125 -18.328125 C 6.703125 -18.460938 6.421875 -18.53125 5.984375 -18.53125 L 3.1875 -18.53125 L 3.1875 -23.3125 L 9.40625 -23.3125 C 10.539062 -23.3125 11.375 -23.019531 11.90625 -22.4375 C 12.4375 -21.851562 12.703125 -20.910156 12.703125 -19.609375 L 12.703125 -12.3125 C 12.703125 -11.71875 12.625 -11.238281 12.46875 -10.875 C 12.3125 -10.507812 12.09375 -10.222656 11.8125 -10.015625 Z M 14.640625 0 "/></g></g><g style="fill:#ff8ca1;fill-opacity:1;"><g transform="translate(433.787628, 42.276712)"><path style="stroke:none" d="M 3.453125 0 L 3.453125 -17.671875 C 3.453125 -18.035156 3.394531 -18.269531 3.28125 -18.375 C 3.164062 -18.476562 2.925781 -18.53125 2.5625 -18.53125 L 1.171875 -18.53125 L 1.171875 -23.3125 L 6.875 -23.3125 C 7.832031 -23.3125 8.503906 -23.113281 8.890625 -22.71875 C 9.285156 -22.332031 9.484375 -21.675781 9.484375 -20.75 L 9.484375 0 Z M 3.453125 0 "/></g></g><g style="fill:#ff8ca1;fill-opacity:1;"><g transform="translate(447.073523, 42.276712)"><path style="stroke:none" d="M 0.546875 -23.3125 L 14.84375 -23.3125 L 14.84375 -18.53125 L 14.0625 -18.53125 C 13.257812 -18.53125 12.859375 -18 12.859375 -16.9375 L 12.859375 0 L 7.1875 0 L 7.1875 -16.046875 C 7.1875 -17.128906 7.351562 -17.957031 7.6875 -18.53125 L 0.546875 -18.53125 Z M 0.546875 -23.3125 "/></g></g><g style="fill:#ff8ca1;fill-opacity:1;"><g transform="translate(464.632683, 42.276712)"><path style="stroke:none" d=""/></g></g><g style="fill:#ff8ca1;fill-opacity:1;"><g transform="translate(474.266898, 42.276712)"><path style="stroke:none" d="M 15.296875 -23.3125 C 16.753906 -23.3125 17.785156 -23.003906 18.390625 -22.390625 C 19.003906 -21.785156 19.3125 -20.742188 19.3125 -19.265625 L 19.3125 0 L 13.28125 0 L 13.28125 -17.203125 C 13.28125 -17.722656 13.1875 -18.097656 13 -18.328125 C 12.820312 -18.566406 12.488281 -18.6875 12 -18.6875 L 10.953125 -18.6875 C 10.078125 -18.6875 9.46875 -18.410156 9.125 -17.859375 C 8.789062 -17.316406 8.78125 -16.179688 9.09375 -14.453125 L 10.484375 -6.296875 C 10.878906 -4.171875 10.765625 -2.585938 10.140625 -1.546875 C 9.515625 -0.515625 8.257812 0 6.375 0 L 1.203125 0 L 1.203125 -4.78125 L 3.5 -4.78125 C 3.863281 -4.78125 4.140625 -4.882812 4.328125 -5.09375 C 4.523438 -5.300781 4.582031 -5.6875 4.5 -6.25 L 3.21875 -13.671875 C 2.957031 -15.117188 2.914062 -16.210938 3.09375 -16.953125 C 3.28125 -17.691406 3.519531 -18.21875 3.8125 -18.53125 L 1.28125 -18.53125 L 1.28125 -23.3125 Z M 15.296875 -23.3125 "/></g></g><g style="fill:#ff8ca1;fill-opacity:1;"><g transform="translate(497.420102, 42.276712)"><path style="stroke:none" d="M 3.453125 0 L 3.453125 -17.671875 C 3.453125 -18.035156 3.394531 -18.269531 3.28125 -18.375 C 3.164062 -18.476562 2.925781 -18.53125 2.5625 -18.53125 L 1.171875 -18.53125 L 1.171875 -23.3125 L 6.875 -23.3125 C 7.832031 -23.3125 8.503906 -23.113281 8.890625 -22.71875 C 9.285156 -22.332031 9.484375 -21.675781 9.484375 -20.75 L 9.484375 0 Z M 3.453125 0 "/></g></g><g style="fill:#ff8ca1;fill-opacity:1;"><g transform="translate(510.706043, 42.276712)"><path style="stroke:none" d="M 7.765625 -12.203125 C 7.429688 -12.066406 7.238281 -11.878906 7.1875 -11.640625 C 7.132812 -11.410156 7.171875 -11.039062 7.296875 -10.53125 L 9.046875 -4.890625 C 9.484375 -3.492188 9.570312 -2.328125 9.3125 -1.390625 C 9.0625 -0.460938 8.273438 0 6.953125 0 L 1.328125 0 L 1.328125 -4.78125 L 2.5625 -4.78125 C 2.894531 -4.78125 3.035156 -4.921875 2.984375 -5.203125 L 1.984375 -10.0625 C 1.722656 -11.28125 1.703125 -12.273438 1.921875 -13.046875 C 2.140625 -13.828125 2.515625 -14.472656 3.046875 -14.984375 C 3.578125 -15.503906 4.15625 -15.9375 4.78125 -16.28125 L 5.359375 -16.59375 L 1.359375 -23.3125 L 7.5 -23.3125 L 12.9375 -13.515625 C 13.144531 -13.648438 13.285156 -13.8125 13.359375 -14 C 13.441406 -14.195312 13.484375 -14.515625 13.484375 -14.953125 L 13.484375 -23.3125 L 19.234375 -23.3125 L 19.234375 -14.484375 C 19.234375 -13.296875 18.992188 -12.289062 18.515625 -11.46875 C 18.035156 -10.65625 17.195312 -9.890625 16 -9.171875 L 15.453125 -8.8125 L 20 0 L 13.9375 0 L 7.8125 -12.203125 Z M 7.765625 -12.203125 "/></g></g><g style="fill:#ff8ca1;fill-opacity:1;"><g transform="translate(533.198812, 42.276712)"><path style="stroke:none" d="M 7.421875 0 L 7.421875 -17.125 C 7.421875 -18.0625 6.953125 -18.53125 6.015625 -18.53125 L 0.546875 -18.53125 L 0.546875 -23.3125 L 9.515625 -23.3125 C 10.960938 -23.3125 11.976562 -23.007812 12.5625 -22.40625 C 13.144531 -21.8125 13.4375 -20.804688 13.4375 -19.390625 L 13.4375 0 Z M 7.421875 0 "/></g></g><g style="fill:#ff8ca1;fill-opacity:1;"><g transform="translate(550.44718, 42.276712)"><path style="stroke:none" d="M 6.21875 0 C 4.71875 0 3.707031 -0.46875 3.1875 -1.40625 C 2.664062 -2.351562 2.691406 -3.710938 3.265625 -5.484375 L 7.0625 -17.28125 C 7.320312 -18.113281 7.039062 -18.53125 6.21875 -18.53125 L 1.671875 -18.53125 C 1.253906 -18.53125 0.960938 -18.613281 0.796875 -18.78125 C 0.628906 -18.945312 0.546875 -19.25 0.546875 -19.6875 L 0.546875 -26.40625 L 6.21875 -26.40625 L 6.21875 -23.3125 L 10.375 -23.3125 C 11.84375 -23.3125 12.867188 -22.820312 13.453125 -21.84375 C 14.035156 -20.875 14.070312 -19.585938 13.5625 -17.984375 L 9.4375 -5.78125 C 9.332031 -5.5 9.3125 -5.257812 9.375 -5.0625 C 9.445312 -4.875 9.648438 -4.78125 9.984375 -4.78125 L 11.6875 -4.78125 L 11.6875 0 Z M 6.21875 0 "/></g></g><g style="fill:#ff8ca1;fill-opacity:1;"><g transform="translate(567.112856, 42.276712)"><path style="stroke:none" d=""/></g></g><g style="fill:#ff8ca1;fill-opacity:1;"><g transform="translate(576.747071, 42.276712)"><path style="stroke:none" d="M 3.421875 -9.859375 L 3.421875 -17.671875 C 3.421875 -18.035156 3.359375 -18.269531 3.234375 -18.375 C 3.117188 -18.476562 2.882812 -18.53125 2.53125 -18.53125 L 1.046875 -18.53125 L 1.046875 -23.3125 L 6.375 -23.3125 C 7.488281 -23.3125 8.269531 -23.082031 8.71875 -22.625 C 9.175781 -22.175781 9.40625 -21.394531 9.40625 -20.28125 L 9.40625 -9.859375 Z M 3.421875 -9.859375 "/></g></g><g style="fill:#ff8ca1;fill-opacity:1;"><g transform="translate(589.722173, 42.276712)"><path style="stroke:none" d="M 0.546875 -23.3125 L 14.84375 -23.3125 L 14.84375 -18.53125 L 14.0625 -18.53125 C 13.257812 -18.53125 12.859375 -18 12.859375 -16.9375 L 12.859375 0 L 7.1875 0 L 7.1875 -16.046875 C 7.1875 -17.128906 7.351562 -17.957031 7.6875 -18.53125 L 0.546875 -18.53125 Z M 0.546875 -23.3125 "/></g></g><g style="fill:#ff8ca1;fill-opacity:1;"><g transform="translate(607.281333, 42.276712)"><path style="stroke:none" d="M 0.703125 0 L 0.703125 -4.78125 L 6.6875 -4.78125 C 7.144531 -4.78125 7.457031 -4.859375 7.625 -5.015625 C 7.800781 -5.171875 7.890625 -5.46875 7.890625 -5.90625 L 7.890625 -17.359375 C 7.890625 -17.828125 7.800781 -18.140625 7.625 -18.296875 C 7.457031 -18.453125 7.144531 -18.53125 6.6875 -18.53125 L 1.125 -18.53125 L 1.125 -23.3125 L 10.21875 -23.3125 C 11.5625 -23.3125 12.507812 -23.03125 13.0625 -22.46875 C 13.625 -21.914062 13.90625 -20.960938 13.90625 -19.609375 L 13.90625 -3.65625 C 13.90625 -2.332031 13.625 -1.390625 13.0625 -0.828125 C 12.507812 -0.273438 11.5625 0 10.21875 0 Z M 0.703125 0 "/></g></g><g style="fill:#ff8ca1;fill-opacity:1;"><g transform="translate(624.801643, 42.276712)"><path style="stroke:none" d=""/></g></g><g style="fill:#ff8ca1;fill-opacity:1;"><g transform="translate(634.435858, 42.276712)"><path style="stroke:none" d="M 16.15625 -23.3125 C 17.300781 -23.3125 18.117188 -23.0625 18.609375 -22.5625 C 19.097656 -22.070312 19.34375 -21.242188 19.34375 -20.078125 L 19.34375 -1.4375 C 19.34375 -0.914062 19.234375 -0.546875 19.015625 -0.328125 C 18.796875 -0.109375 18.425781 0 17.90625 0 L 4.421875 0 C 3.910156 0 3.539062 -0.109375 3.3125 -0.328125 C 3.09375 -0.546875 2.984375 -0.914062 2.984375 -1.4375 L 2.984375 -16.046875 C 2.984375 -17.210938 3.179688 -18.039062 3.578125 -18.53125 L 1.390625 -18.53125 L 1.390625 -23.3125 Z M 13.484375 -5.09375 L 13.484375 -17.359375 C 13.484375 -17.878906 13.40625 -18.226562 13.25 -18.40625 C 13.09375 -18.59375 12.78125 -18.6875 12.3125 -18.6875 L 9.984375 -18.6875 C 9.515625 -18.6875 9.207031 -18.566406 9.0625 -18.328125 C 8.925781 -18.097656 8.859375 -17.710938 8.859375 -17.171875 L 8.859375 -5.09375 C 8.859375 -4.90625 8.890625 -4.78125 8.953125 -4.71875 C 9.015625 -4.65625 9.140625 -4.625 9.328125 -4.625 L 13.015625 -4.625 C 13.222656 -4.625 13.351562 -4.65625 13.40625 -4.71875 C 13.457031 -4.78125 13.484375 -4.90625 13.484375 -5.09375 Z M 13.484375 -5.09375 "/></g></g><g style="fill:#ff8ca1;fill-opacity:1;"><g transform="translate(657.589062, 42.276712)"><path style="stroke:none" d="M 3.421875 -9.859375 L 3.421875 -17.671875 C 3.421875 -18.035156 3.359375 -18.269531 3.234375 -18.375 C 3.117188 -18.476562 2.882812 -18.53125 2.53125 -18.53125 L 1.046875 -18.53125 L 1.046875 -23.3125 L 6.375 -23.3125 C 7.488281 -23.3125 8.269531 -23.082031 8.71875 -22.625 C 9.175781 -22.175781 9.40625 -21.394531 9.40625 -20.28125 L 9.40625 -9.859375 Z M 3.421875 -9.859375 "/></g></g><g style="fill:#ff8ca1;fill-opacity:1;"><g transform="translate(670.56421, 42.276712)"><path style="stroke:none" d="M 14.875 -4.78125 L 16.046875 -4.78125 L 16.046875 0 L 0.703125 0 L 0.703125 -4.78125 L 8.28125 -4.78125 C 8.195312 -4.9375 8.128906 -5.125 8.078125 -5.34375 C 8.023438 -5.5625 8 -5.800781 8 -6.0625 L 8 -17.359375 C 8 -17.828125 7.921875 -18.140625 7.765625 -18.296875 C 7.609375 -18.453125 7.300781 -18.53125 6.84375 -18.53125 L 1.125 -18.53125 L 1.125 -23.3125 L 10.296875 -23.3125 C 11.671875 -23.3125 12.632812 -23.003906 13.1875 -22.390625 C 13.738281 -21.785156 14.015625 -20.742188 14.015625 -19.265625 L 14.015625 -5.75 C 14.015625 -5.101562 14.300781 -4.78125 14.875 -4.78125 Z M 14.875 -4.78125 "/></g></g><g style="fill:#ff8ca1;fill-opacity:1;"><g transform="translate(688.628363, 42.276712)"><path style="stroke:none" d="M 3.453125 0 L 3.453125 -17.671875 C 3.453125 -18.035156 3.394531 -18.269531 3.28125 -18.375 C 3.164062 -18.476562 2.925781 -18.53125 2.5625 -18.53125 L 1.171875 -18.53125 L 1.171875 -23.3125 L 6.875 -23.3125 C 7.832031 -23.3125 8.503906 -23.113281 8.890625 -22.71875 C 9.285156 -22.332031 9.484375 -21.675781 9.484375 -20.75 L 9.484375 0 Z M 3.453125 0 "/></g></g><g style="fill:#ff8ca1;fill-opacity:1;"><g transform="translate(701.914258, 42.276712)"><path style="stroke:none" d="M 12.203125 0 L 12.203125 -17.359375 C 12.203125 -17.828125 12.113281 -18.140625 11.9375 -18.296875 C 11.769531 -18.453125 11.457031 -18.53125 11 -18.53125 L 2.015625 -18.53125 L 2.015625 -23.3125 L 14.6875 -23.3125 C 15.976562 -23.3125 16.890625 -23.003906 17.421875 -22.390625 C 17.953125 -21.785156 18.21875 -20.742188 18.21875 -19.265625 L 18.21875 0 Z M 4 0 C 2.675781 0 2.015625 -0.671875 2.015625 -2.015625 L 2.015625 -14.53125 L 8.046875 -14.53125 L 8.046875 -5.515625 C 8.046875 -5.023438 8.238281 -4.78125 8.625 -4.78125 L 9.125 -4.78125 L 9.125 0 Z M 4 0 "/></g></g><g style="fill:#ff8ca1;fill-opacity:1;"><g transform="translate(723.940884, 42.276712)"><path style="stroke:none" d="M 16.125 -9.046875 L 17.171875 -4.078125 C 17.429688 -2.890625 17.300781 -1.910156 16.78125 -1.140625 C 16.257812 -0.378906 15.351562 0 14.0625 0 L 0.890625 0 L 0.890625 -4.78125 L 9.90625 -4.78125 C 10.269531 -4.78125 10.519531 -4.875 10.65625 -5.0625 C 10.800781 -5.257812 10.8125 -5.679688 10.6875 -6.328125 L 10.40625 -7.5 C 10.332031 -7.9375 10.1875 -8.273438 9.96875 -8.515625 C 9.75 -8.765625 9.441406 -8.984375 9.046875 -9.171875 L 5.015625 -11.109375 C 4.546875 -11.316406 4.1875 -11.554688 3.9375 -11.828125 C 3.695312 -12.097656 3.507812 -12.503906 3.375 -13.046875 L 0.859375 -23.3125 L 6.953125 -23.3125 L 9.046875 -14.796875 L 11.140625 -23.3125 L 17.328125 -23.3125 L 14.21875 -11.34375 C 14.707031 -11.113281 15.117188 -10.820312 15.453125 -10.46875 C 15.796875 -10.113281 16.019531 -9.640625 16.125 -9.046875 Z M 16.125 -9.046875 "/></g></g><g style="fill:#ff8ca1;fill-opacity:1;"><g transform="translate(744.569033, 42.276712)"><path style="stroke:none" d="M 12.203125 0 L 12.203125 -17.359375 C 12.203125 -17.828125 12.113281 -18.140625 11.9375 -18.296875 C 11.769531 -18.453125 11.457031 -18.53125 11 -18.53125 L 2.015625 -18.53125 L 2.015625 -23.3125 L 14.6875 -23.3125 C 15.976562 -23.3125 16.890625 -23.003906 17.421875 -22.390625 C 17.953125 -21.785156 18.21875 -20.742188 18.21875 -19.265625 L 18.21875 0 Z M 4 0 C 2.675781 0 2.015625 -0.671875 2.015625 -2.015625 L 2.015625 -14.53125 L 8.046875 -14.53125 L 8.046875 -5.515625 C 8.046875 -5.023438 8.238281 -4.78125 8.625 -4.78125 L 9.125 -4.78125 L 9.125 0 Z M 4 0 "/></g></g><g style="fill:#ff8ca1;fill-opacity:1;"><g transform="translate(766.595659, 42.276712)"><path style="stroke:none" d=""/></g></g><g style="fill:#ff8ca1;fill-opacity:1;"><g transform="translate(776.229874, 42.276712)"><path style="stroke:none" d="M 16.15625 -23.3125 C 17.300781 -23.3125 18.117188 -23.0625 18.609375 -22.5625 C 19.097656 -22.070312 19.34375 -21.242188 19.34375 -20.078125 L 19.34375 -1.4375 C 19.34375 -0.914062 19.234375 -0.546875 19.015625 -0.328125 C 18.796875 -0.109375 18.425781 0 17.90625 0 L 4.421875 0 C 3.910156 0 3.539062 -0.109375 3.3125 -0.328125 C 3.09375 -0.546875 2.984375 -0.914062 2.984375 -1.4375 L 2.984375 -16.046875 C 2.984375 -17.210938 3.179688 -18.039062 3.578125 -18.53125 L 1.390625 -18.53125 L 1.390625 -23.3125 Z M 13.484375 -5.09375 L 13.484375 -17.359375 C 13.484375 -17.878906 13.40625 -18.226562 13.25 -18.40625 C 13.09375 -18.59375 12.78125 -18.6875 12.3125 -18.6875 L 9.984375 -18.6875 C 9.515625 -18.6875 9.207031 -18.566406 9.0625 -18.328125 C 8.925781 -18.097656 8.859375 -17.710938 8.859375 -17.171875 L 8.859375 -5.09375 C 8.859375 -4.90625 8.890625 -4.78125 8.953125 -4.71875 C 9.015625 -4.65625 9.140625 -4.625 9.328125 -4.625 L 13.015625 -4.625 C 13.222656 -4.625 13.351562 -4.65625 13.40625 -4.71875 C 13.457031 -4.78125 13.484375 -4.90625 13.484375 -5.09375 Z M 13.484375 -5.09375 "/></g></g><g style="fill:#ff8ca1;fill-opacity:1;"><g transform="translate(799.383078, 42.276712)"><path style="stroke:none" d="M 3.421875 -9.859375 L 3.421875 -17.671875 C 3.421875 -18.035156 3.359375 -18.269531 3.234375 -18.375 C 3.117188 -18.476562 2.882812 -18.53125 2.53125 -18.53125 L 1.046875 -18.53125 L 1.046875 -23.3125 L 6.375 -23.3125 C 7.488281 -23.3125 8.269531 -23.082031 8.71875 -22.625 C 9.175781 -22.175781 9.40625 -21.394531 9.40625 -20.28125 L 9.40625 -9.859375 Z M 3.421875 -9.859375 "/></g></g><g style="fill:#ff8ca1;fill-opacity:1;"><g transform="translate(812.35818, 42.276712)"><path style="stroke:none" d="M 11.921875 -23.3125 L 17.953125 -23.3125 L 17.953125 -11.6875 C 17.953125 -9.976562 17.753906 -8.570312 17.359375 -7.46875 C 16.972656 -6.375 16.410156 -5.46875 15.671875 -4.75 C 14.929688 -4.039062 14.035156 -3.429688 12.984375 -2.921875 C 11.941406 -2.421875 10.773438 -1.910156 9.484375 -1.390625 L 2.609375 1.328125 L 0.9375 -3.21875 L 4.890625 -4.734375 C 3.910156 -5.671875 3.34375 -6.925781 3.1875 -8.5 L 1.59375 -23.3125 L 7.609375 -23.3125 L 9.359375 -7.8125 C 9.410156 -7.34375 9.515625 -7.035156 9.671875 -6.890625 C 9.828125 -6.753906 10.035156 -6.722656 10.296875 -6.796875 L 10.484375 -6.875 C 10.921875 -7.082031 11.269531 -7.378906 11.53125 -7.765625 C 11.789062 -8.148438 11.921875 -8.734375 11.921875 -9.515625 Z M 11.921875 -23.3125 "/></g></g><g style="fill:#ff8ca1;fill-opacity:1;"><g transform="translate(833.879813, 42.276712)"><path style="stroke:none" d="M 3.453125 0 L 3.453125 -17.671875 C 3.453125 -18.035156 3.394531 -18.269531 3.28125 -18.375 C 3.164062 -18.476562 2.925781 -18.53125 2.5625 -18.53125 L 1.171875 -18.53125 L 1.171875 -23.3125 L 6.875 -23.3125 C 7.832031 -23.3125 8.503906 -23.113281 8.890625 -22.71875 C 9.285156 -22.332031 9.484375 -21.675781 9.484375 -20.75 L 9.484375 0 Z M 3.453125 0 "/></g></g><g style="fill:#ff8ca1;fill-opacity:1;"><g transform="translate(847.165708, 42.276712)"><path style="stroke:none" d="M 14.875 -4.78125 L 16.046875 -4.78125 L 16.046875 0 L 0.703125 0 L 0.703125 -4.78125 L 8.28125 -4.78125 C 8.195312 -4.9375 8.128906 -5.125 8.078125 -5.34375 C 8.023438 -5.5625 8 -5.800781 8 -6.0625 L 8 -17.359375 C 8 -17.828125 7.921875 -18.140625 7.765625 -18.296875 C 7.609375 -18.453125 7.300781 -18.53125 6.84375 -18.53125 L 1.125 -18.53125 L 1.125 -23.3125 L 10.296875 -23.3125 C 11.671875 -23.3125 12.632812 -23.003906 13.1875 -22.390625 C 13.738281 -21.785156 14.015625 -20.742188 14.015625 -19.265625 L 14.015625 -5.75 C 14.015625 -5.101562 14.300781 -4.78125 14.875 -4.78125 Z M 14.875 -4.78125 "/></g></g><g style="fill:#ff8ca1;fill-opacity:1;"><g transform="translate(865.229906, 42.276712)"><path style="stroke:none" d="M 3.421875 -9.859375 L 3.421875 -17.671875 C 3.421875 -18.035156 3.359375 -18.269531 3.234375 -18.375 C 3.117188 -18.476562 2.882812 -18.53125 2.53125 -18.53125 L 1.046875 -18.53125 L 1.046875 -23.3125 L 6.375 -23.3125 C 7.488281 -23.3125 8.269531 -23.082031 8.71875 -22.625 C 9.175781 -22.175781 9.40625 -21.394531 9.40625 -20.28125 L 9.40625 -9.859375 Z M 3.421875 -9.859375 "/></g></g><g style="fill:#ff8ca1;fill-opacity:1;"><g transform="translate(878.205054, 42.276712)"><path style="stroke:none" d="M 7.421875 0 L 7.421875 -17.125 C 7.421875 -18.0625 6.953125 -18.53125 6.015625 -18.53125 L 0.546875 -18.53125 L 0.546875 -23.3125 L 9.515625 -23.3125 C 10.960938 -23.3125 11.976562 -23.007812 12.5625 -22.40625 C 13.144531 -21.8125 13.4375 -20.804688 13.4375 -19.390625 L 13.4375 0 Z M 7.421875 0 "/></g></g><g style="fill:#ff8ca1;fill-opacity:1;"><g transform="translate(895.45333, 42.276712)"><path style="stroke:none" d="M 12.203125 0 L 12.203125 -17.359375 C 12.203125 -17.828125 12.113281 -18.140625 11.9375 -18.296875 C 11.769531 -18.453125 11.457031 -18.53125 11 -18.53125 L 2.015625 -18.53125 L 2.015625 -23.3125 L 14.6875 -23.3125 C 15.976562 -23.3125 16.890625 -23.003906 17.421875 -22.390625 C 17.953125 -21.785156 18.21875 -20.742188 18.21875 -19.265625 L 18.21875 0 Z M 4 0 C 2.675781 0 2.015625 -0.671875 2.015625 -2.015625 L 2.015625 -14.53125 L 8.046875 -14.53125 L 8.046875 -5.515625 C 8.046875 -5.023438 8.238281 -4.78125 8.625 -4.78125 L 9.125 -4.78125 L 9.125 0 Z M 4 0 "/></g></g><g style="fill:#ff8ca1;fill-opacity:1;"><g transform="translate(917.480047, 42.276712)"><path style="stroke:none" d=""/></g></g><g style="fill:#ff8ca1;fill-opacity:1;"><g transform="translate(927.114262, 42.276712)"><path style="stroke:none" d="M 6.21875 0 C 4.71875 0 3.707031 -0.46875 3.1875 -1.40625 C 2.664062 -2.351562 2.691406 -3.710938 3.265625 -5.484375 L 7.0625 -17.28125 C 7.320312 -18.113281 7.039062 -18.53125 6.21875 -18.53125 L 1.671875 -18.53125 C 1.253906 -18.53125 0.960938 -18.613281 0.796875 -18.78125 C 0.628906 -18.945312 0.546875 -19.25 0.546875 -19.6875 L 0.546875 -26.40625 L 6.21875 -26.40625 L 6.21875 -23.3125 L 10.375 -23.3125 C 11.84375 -23.3125 12.867188 -22.820312 13.453125 -21.84375 C 14.035156 -20.875 14.070312 -19.585938 13.5625 -17.984375 L 9.4375 -5.78125 C 9.332031 -5.5 9.3125 -5.257812 9.375 -5.0625 C 9.445312 -4.875 9.648438 -4.78125 9.984375 -4.78125 L 11.6875 -4.78125 L 11.6875 0 Z M 6.21875 0 "/></g></g><g style="fill:#ff8ca1;fill-opacity:1;"><g transform="translate(943.779893, 42.276712)"><path style="stroke:none" d="M 11.921875 -23.3125 L 17.953125 -23.3125 L 17.953125 -11.6875 C 17.953125 -9.976562 17.753906 -8.570312 17.359375 -7.46875 C 16.972656 -6.375 16.410156 -5.46875 15.671875 -4.75 C 14.929688 -4.039062 14.035156 -3.429688 12.984375 -2.921875 C 11.941406 -2.421875 10.773438 -1.910156 9.484375 -1.390625 L 2.609375 1.328125 L 0.9375 -3.21875 L 4.890625 -4.734375 C 3.910156 -5.671875 3.34375 -6.925781 3.1875 -8.5 L 1.59375 -23.3125 L 7.609375 -23.3125 L 9.359375 -7.8125 C 9.410156 -7.34375 9.515625 -7.035156 9.671875 -6.890625 C 9.828125 -6.753906 10.035156 -6.722656 10.296875 -6.796875 L 10.484375 -6.875 C 10.921875 -7.082031 11.269531 -7.378906 11.53125 -7.765625 C 11.789062 -8.148438 11.921875 -8.734375 11.921875 -9.515625 Z M 11.921875 -23.3125 "/></g></g><g style="fill:#ff8ca1;fill-opacity:1;"><g transform="translate(965.30148, 42.276712)"><path style="stroke:none" d=""/></g></g><g style="fill:#ff8ca1;fill-opacity:1;"><g transform="translate(974.935695, 42.276712)"><path style="stroke:none" d="M 11.96875 -23.3125 L 17.984375 -23.3125 L 16.890625 -13.515625 C 16.785156 -12.554688 16.570312 -11.894531 16.25 -11.53125 C 15.925781 -11.175781 15.390625 -10.816406 14.640625 -10.453125 L 10.921875 -8.546875 C 10.578125 -8.367188 10.347656 -8.1875 10.234375 -8 C 10.117188 -7.820312 10.0625 -7.550781 10.0625 -7.1875 L 10.0625 0.546875 C 10.0625 0.804688 10.101562 0.972656 10.1875 1.046875 C 10.28125 1.128906 10.445312 1.171875 10.6875 1.171875 L 11.578125 1.171875 L 11.578125 5.9375 L 6.171875 5.9375 C 4.753906 5.9375 4.046875 5.226562 4.046875 3.8125 L 4.046875 -9.015625 C 4.046875 -9.628906 4.15625 -10.125 4.375 -10.5 C 4.59375 -10.882812 4.910156 -11.21875 5.328125 -11.5 L 0.5 -23.3125 L 6.765625 -23.3125 L 10.21875 -14.0625 C 10.375 -14.1875 10.515625 -14.328125 10.640625 -14.484375 C 10.773438 -14.640625 10.851562 -14.820312 10.875 -15.03125 Z M 11.96875 -23.3125 "/></g></g><g style="fill:#ff8ca1;fill-opacity:1;"><g transform="translate(995.991184, 42.276712)"><path style="stroke:none" d="M 21.71875 -23.3125 L 21.71875 -18.53125 L 19.5 -18.53125 C 19.78125 -18.039062 19.921875 -17.109375 19.921875 -15.734375 L 19.921875 0 L 13.90625 0 L 13.90625 -16.78125 C 13.90625 -17.53125 13.847656 -18.007812 13.734375 -18.21875 C 13.617188 -18.425781 13.378906 -18.53125 13.015625 -18.53125 L 10.0625 -18.53125 C 9.726562 -18.53125 9.5 -18.425781 9.375 -18.21875 C 9.257812 -18.007812 9.203125 -17.53125 9.203125 -16.78125 L 9.203125 0 L 3.1875 0 L 3.1875 -15.734375 C 3.1875 -17.109375 3.328125 -18.039062 3.609375 -18.53125 L 1.390625 -18.53125 L 1.390625 -23.3125 Z M 21.71875 -23.3125 "/></g></g><g style="fill:#ff8ca1;fill-opacity:1;"><g transform="translate(1020.776005, 42.276712)"><path style="stroke:none" d="M 6.21875 0 C 4.71875 0 3.707031 -0.46875 3.1875 -1.40625 C 2.664062 -2.351562 2.691406 -3.710938 3.265625 -5.484375 L 7.0625 -17.28125 C 7.320312 -18.113281 7.039062 -18.53125 6.21875 -18.53125 L 1.671875 -18.53125 C 1.253906 -18.53125 0.960938 -18.613281 0.796875 -18.78125 C 0.628906 -18.945312 0.546875 -19.25 0.546875 -19.6875 L 0.546875 -26.40625 L 6.21875 -26.40625 L 6.21875 -23.3125 L 10.375 -23.3125 C 11.84375 -23.3125 12.867188 -22.820312 13.453125 -21.84375 C 14.035156 -20.875 14.070312 -19.585938 13.5625 -17.984375 L 9.4375 -5.78125 C 9.332031 -5.5 9.3125 -5.257812 9.375 -5.0625 C 9.445312 -4.875 9.648438 -4.78125 9.984375 -4.78125 L 11.6875 -4.78125 L 11.6875 0 Z M 6.21875 0 "/></g></g></g></svg>