<svg xmlns="http://www.w3.org/2000/svg" xmlns:xlink="http://www.w3.org/1999/xlink" width="71" zoomAndPan="magnify" viewBox="0 0 53.25 50.249999" height="67" preserveAspectRatio="xMidYMid meet" version="1.2"><defs><clipPath id="c8944159ad"><path d="M 3 4.078125 L 52 4.078125 L 52 49.15625 L 3 49.15625 Z M 3 4.078125 "/></clipPath><clipPath id="2df98ca0fb"><path d="M 0.0234375 0 L 49 0 L 49 45.078125 L 0.0234375 45.078125 Z M 0.0234375 0 "/></clipPath></defs><g id="b8c03a2181"><g clip-rule="nonzero" clip-path="url(#c8944159ad)"><path style=" stroke:none;fill-rule:nonzero;fill:#ffd75f;fill-opacity:1;" d="M 48.867188 29.109375 L 45.507812 29.109375 C 44.972656 29.109375 44.542969 29.570312 44.542969 30.136719 L 44.542969 48.078125 C 44.542969 48.644531 44.109375 49.105469 43.574219 49.105469 L 32.296875 49.105469 L 32.296875 39.492188 C 32.296875 38.941406 31.851562 38.496094 31.296875 38.496094 L 23.308594 38.496094 C 22.636719 38.496094 22.09375 39.039062 22.09375 39.710938 L 22.09375 49.105469 L 10.8125 49.105469 C 10.277344 49.105469 9.847656 48.644531 9.847656 48.078125 L 9.847656 30.136719 C 9.847656 29.570312 9.417969 29.109375 8.882812 29.109375 L 5.519531 29.109375 C 3.59375 29.109375 2.609375 26.941406 3.949219 25.640625 L 11.679688 18.171875 L 11.679688 8.191406 C 11.679688 7.363281 12.355469 6.691406 13.183594 6.691406 L 19.972656 6.691406 C 20.804688 6.691406 21.476562 7.363281 21.476562 8.191406 L 21.476562 8.707031 L 25.351562 4.960938 C 26.207031 4.144531 27.617188 4.136719 28.480469 4.945312 L 50.417969 25.625 C 51.789062 26.917969 50.8125 29.109375 48.867188 29.109375 Z M 48.867188 29.109375 "/></g><g clip-rule="nonzero" clip-path="url(#2df98ca0fb)"><path style=" stroke:none;fill-rule:nonzero;fill:#ff8ca1;fill-opacity:1;" d="M 46.289062 25.03125 L 42.929688 25.03125 C 42.394531 25.03125 41.964844 25.492188 41.964844 26.058594 L 41.964844 44 C 41.964844 44.566406 41.53125 45.027344 40.996094 45.027344 L 29.71875 45.027344 L 29.71875 35.414062 C 29.71875 34.863281 29.269531 34.417969 28.71875 34.417969 L 20.730469 34.417969 C 20.058594 34.417969 19.515625 34.960938 19.515625 35.632812 L 19.515625 45.027344 L 8.234375 45.027344 C 7.699219 45.027344 7.265625 44.566406 7.265625 44 L 7.265625 26.058594 C 7.265625 25.492188 6.839844 25.03125 6.304688 25.03125 L 2.941406 25.03125 C 1.015625 25.03125 0.03125 22.863281 1.371094 21.5625 L 9.101562 14.09375 L 9.101562 4.113281 C 9.101562 3.285156 9.773438 2.613281 10.605469 2.613281 L 17.394531 2.613281 C 18.226562 2.613281 18.898438 3.285156 18.898438 4.113281 L 18.898438 4.628906 L 22.773438 0.886719 C 23.628906 0.0664062 25.039062 0.0585938 25.902344 0.867188 L 47.839844 21.546875 C 49.207031 22.839844 48.234375 25.03125 46.289062 25.03125 Z M 46.289062 25.03125 "/></g></g></svg>