<svg xmlns="http://www.w3.org/2000/svg" xmlns:xlink="http://www.w3.org/1999/xlink" width="1213" zoomAndPan="magnify" viewBox="0 0 909.75 326.250004" height="435" preserveAspectRatio="xMidYMid meet" version="1.2"><defs><clipPath id="9d4218e03d"><path d="M 0.917969 159 L 121 159 L 121 166 L 0.917969 166 Z M 0.917969 159 "/></clipPath><clipPath id="13d6b18966"><path d="M 788 159 L 908.582031 159 L 908.582031 166 L 788 166 Z M 788 159 "/></clipPath></defs><g id="9f9550b949"><g style="fill:#fffef8;fill-opacity:1;"><g transform="translate(144.336524, 221.640559)"><path style="stroke:none" d="M 72.4375 8.984375 C 71.632812 8.984375 70.832031 8.878906 70.03125 8.671875 C 69.238281 8.472656 68.375 8.109375 67.4375 7.578125 L 61.453125 3.1875 C 60.660156 2.519531 60.160156 1.890625 59.953125 1.296875 C 59.753906 0.703125 59.65625 0.00390625 59.65625 -0.796875 L 59.65625 -86.203125 L 21.75 -86.203125 C 20.820312 -86.203125 19.957031 -86.265625 19.15625 -86.390625 C 18.351562 -86.523438 17.488281 -86.859375 16.5625 -87.390625 L 9.984375 -91.390625 C 9.046875 -92.054688 8.375 -92.65625 7.96875 -93.1875 C 7.570312 -93.71875 7.375 -94.445312 7.375 -95.375 L 7.375 -119.515625 C 7.375 -121.648438 8.441406 -122.71875 10.578125 -122.71875 L 75.421875 -122.71875 C 83.804688 -122.71875 90.523438 -120.253906 95.578125 -115.328125 C 97.703125 -113.335938 99.429688 -111.441406 100.765625 -109.640625 C 102.097656 -107.847656 103.0625 -105.6875 103.65625 -103.15625 C 104.25 -100.625 104.546875 -97.234375 104.546875 -92.984375 L 104.546875 3.796875 C 104.546875 5.253906 104.046875 6.484375 103.046875 7.484375 C 102.054688 8.484375 100.828125 8.984375 99.359375 8.984375 Z M 62.65625 0 L 93.578125 0 L 93.578125 -98.96875 C 93.578125 -106.550781 92.210938 -111.90625 89.484375 -115.03125 C 86.765625 -118.15625 82.078125 -119.71875 75.421875 -119.71875 L 10.375 -119.71875 L 10.375 -95.171875 L 56.46875 -95.171875 C 58.863281 -95.171875 60.492188 -94.769531 61.359375 -93.96875 C 62.222656 -93.175781 62.65625 -91.582031 62.65625 -89.1875 Z M 29.328125 8.984375 C 26.398438 8.984375 23.875 8.515625 21.75 7.578125 C 19.625 6.648438 17.5625 5.453125 15.5625 3.984375 C 12.769531 1.859375 10.707031 -0.234375 9.375 -2.296875 C 8.039062 -4.359375 7.375 -7.050781 7.375 -10.375 L 7.375 -74.421875 C 7.375 -76.554688 8.441406 -77.625 10.578125 -77.625 L 40.90625 -77.625 C 42.5 -77.625 43.757812 -77.15625 44.6875 -76.21875 L 50.28125 -70.640625 C 51.207031 -69.703125 51.769531 -68.96875 51.96875 -68.4375 C 52.175781 -67.90625 52.28125 -67.238281 52.28125 -66.4375 L 52.28125 -23.9375 L 56.46875 -20.75 C 57.394531 -19.945312 57.859375 -18.679688 57.859375 -16.953125 L 57.859375 3.796875 C 57.859375 5.253906 57.359375 6.484375 56.359375 7.484375 C 55.367188 8.484375 54.140625 8.984375 52.671875 8.984375 Z M 20.546875 0 L 46.890625 0 L 46.890625 -24.546875 L 44.296875 -24.546875 C 42.296875 -24.546875 41.296875 -25.804688 41.296875 -28.328125 L 41.296875 -74.625 L 10.375 -74.625 L 10.375 -10.375 C 10.375 -3.457031 13.765625 0 20.546875 0 Z M 20.546875 0 "/></g></g><g style="fill:#fffef8;fill-opacity:1;"><g transform="translate(244.503541, 221.640559)"><path style="stroke:none" d="M 19.546875 -83.609375 C 18.484375 -83.609375 17.519531 -83.769531 16.65625 -84.09375 C 15.789062 -84.425781 14.960938 -84.796875 14.171875 -85.203125 L 5.984375 -89.59375 C 4.785156 -90.257812 4.320312 -91.519531 4.59375 -93.375 L 7.984375 -135.6875 C 7.984375 -137.675781 9.113281 -138.671875 11.375 -138.671875 L 33.328125 -138.671875 C 34.117188 -138.671875 34.878906 -138.535156 35.609375 -138.265625 C 36.347656 -138.003906 36.984375 -137.410156 37.515625 -136.484375 L 38.515625 -135.078125 C 38.910156 -137.472656 40.171875 -138.671875 42.296875 -138.671875 L 64.640625 -138.671875 C 66.640625 -138.671875 68.304688 -137.941406 69.640625 -136.484375 L 74.625 -130.6875 C 75.6875 -129.363281 76.085938 -127.96875 75.828125 -126.5 L 68.234375 -88 C 67.835938 -85.070312 66.046875 -83.609375 62.859375 -83.609375 L 48.890625 -83.609375 C 47.285156 -83.609375 45.820312 -84.140625 44.5 -85.203125 L 38.109375 -89.984375 L 37.71875 -88 C 37.3125 -85.070312 35.515625 -83.609375 32.328125 -83.609375 Z M 7.578125 -92.578125 L 26.53125 -92.578125 L 34.921875 -135.6875 L 10.96875 -135.6875 Z M 38.109375 -92.578125 L 57.0625 -92.578125 L 65.453125 -135.6875 L 41.5 -135.6875 Z M 38.109375 -92.578125 "/></g></g><g style="fill:#fffef8;fill-opacity:1;"><g transform="translate(305.761025, 221.640559)"><path style="stroke:none" d="M 20.359375 8.984375 C 19.285156 8.984375 18.382812 8.847656 17.65625 8.578125 C 16.925781 8.316406 16.226562 7.984375 15.5625 7.578125 L 8.578125 3.1875 C 6.984375 2.125 6.1875 0.726562 6.1875 -1 L 6.1875 -24.34375 C 6.1875 -26.46875 7.25 -27.53125 9.375 -27.53125 L 56.0625 -27.53125 C 57.789062 -27.53125 58.921875 -27.796875 59.453125 -28.328125 C 59.992188 -28.859375 60.265625 -29.925781 60.265625 -31.53125 L 60.265625 -35.71875 C 59.191406 -34.65625 57.925781 -34.125 56.46875 -34.125 L 30.53125 -34.125 C 26.40625 -34.125 23.046875 -34.722656 20.453125 -35.921875 C 17.859375 -37.117188 15.5 -38.378906 13.375 -39.703125 C 9.78125 -42.234375 7.21875 -45.023438 5.6875 -48.078125 C 4.15625 -51.140625 3.65625 -55.265625 4.1875 -60.453125 L 9.171875 -102.953125 C 9.972656 -109.742188 12.132812 -114.734375 15.65625 -117.921875 C 19.1875 -121.117188 24.273438 -122.71875 30.921875 -122.71875 L 74.21875 -122.71875 C 79.007812 -122.71875 83.066406 -122.082031 86.390625 -120.8125 C 89.722656 -119.550781 92.585938 -117.921875 94.984375 -115.921875 C 98.304688 -113.265625 100.832031 -110.375 102.5625 -107.25 C 104.289062 -104.125 105.15625 -99.566406 105.15625 -93.578125 L 105.15625 -13.96875 C 105.15625 -5.851562 103.390625 0 99.859375 3.59375 C 96.335938 7.1875 90.453125 8.984375 82.203125 8.984375 Z M 9.171875 0 L 74.21875 0 C 81.539062 0 86.695312 -1.492188 89.6875 -4.484375 C 92.675781 -7.484375 94.171875 -12.640625 94.171875 -19.953125 L 94.171875 -99.5625 C 94.171875 -107.007812 92.675781 -112.226562 89.6875 -115.21875 C 86.695312 -118.21875 81.539062 -119.71875 74.21875 -119.71875 L 30.921875 -119.71875 C 25.066406 -119.71875 20.644531 -118.351562 17.65625 -115.625 C 14.664062 -112.894531 12.835938 -108.539062 12.171875 -102.5625 L 7.1875 -60.0625 C 6.519531 -54.207031 7.414062 -49.914062 9.875 -47.1875 C 12.332031 -44.457031 16.554688 -43.09375 22.546875 -43.09375 L 50.6875 -43.09375 L 50.6875 -67.046875 L 43.296875 -67.046875 C 41.429688 -67.046875 40.234375 -67.410156 39.703125 -68.140625 C 39.171875 -68.867188 38.972656 -70.164062 39.109375 -72.03125 L 41.296875 -89.59375 C 41.566406 -92.113281 42.132812 -93.804688 43 -94.671875 C 43.863281 -95.535156 45.625 -95.96875 48.28125 -95.96875 L 57.671875 -95.96875 C 60.460938 -95.96875 62.085938 -95.535156 62.546875 -94.671875 C 63.015625 -93.804688 63.25 -92.113281 63.25 -89.59375 L 63.25 -31.53125 C 63.25 -26.875 60.851562 -24.546875 56.0625 -24.546875 L 9.171875 -24.546875 Z M 60.265625 -87 L 56.265625 -87 C 54.535156 -87 53.503906 -86.832031 53.171875 -86.5 C 52.835938 -86.164062 52.539062 -85.066406 52.28125 -83.203125 L 51.078125 -70.640625 L 60.265625 -63.453125 Z M 60.265625 -87 "/></g></g><g style="fill:#fffef8;fill-opacity:1;"><g transform="translate(408.122917, 221.640559)"><path style="stroke:none" d=""/></g></g><g style="fill:#fffef8;fill-opacity:1;"><g transform="translate(447.03237, 221.640559)"><path style="stroke:none" d="M 48.6875 8.984375 C 47.75 8.984375 46.878906 8.914062 46.078125 8.78125 C 45.285156 8.644531 44.359375 8.175781 43.296875 7.375 L 37.71875 3.59375 C 35.988281 2.394531 35.125 0.929688 35.125 -0.796875 L 35.125 -86.203125 L 11.96875 -86.203125 C 11.039062 -86.203125 10.207031 -86.363281 9.46875 -86.6875 C 8.738281 -87.019531 8.039062 -87.390625 7.375 -87.796875 L 2.59375 -91.1875 C 0.726562 -92.519531 -0.203125 -94.050781 -0.203125 -95.78125 L -0.203125 -119.515625 C -0.203125 -121.648438 0.863281 -122.71875 3 -122.71875 L 48.890625 -122.71875 C 53.671875 -122.71875 57.757812 -122.117188 61.15625 -120.921875 C 64.550781 -119.722656 67.378906 -118.191406 69.640625 -116.328125 C 73.097656 -113.671875 75.691406 -110.675781 77.421875 -107.34375 C 79.148438 -104.019531 80.015625 -99.429688 80.015625 -93.578125 L 80.015625 3.796875 C 80.015625 5.253906 79.515625 6.484375 78.515625 7.484375 C 77.515625 8.484375 76.285156 8.984375 74.828125 8.984375 Z M 38.109375 0 L 69.03125 0 L 69.03125 -99.5625 C 69.03125 -106.882812 67.535156 -112.070312 64.546875 -115.125 C 61.554688 -118.1875 56.335938 -119.71875 48.890625 -119.71875 L 2.796875 -119.71875 L 2.796875 -95.171875 L 30.921875 -95.171875 C 35.710938 -95.171875 38.109375 -92.78125 38.109375 -88 Z M 38.109375 0 "/></g></g><g style="fill:#fffef8;fill-opacity:1;"><g transform="translate(525.05086, 221.640559)"><path style="stroke:none" d="M 27.53125 8.984375 C 25.800781 8.984375 24.140625 8.445312 22.546875 7.375 L 16.953125 3.59375 C 16.023438 2.925781 15.425781 2.226562 15.15625 1.5 C 14.894531 0.769531 14.765625 0.00390625 14.765625 -0.796875 L 14.765625 -86 L 4.59375 -93.78125 C 3.53125 -94.707031 3 -95.90625 3 -97.375 L 3 -119.515625 C 3 -121.648438 4.0625 -122.71875 6.1875 -122.71875 L 35.3125 -122.71875 C 39.039062 -122.71875 42.164062 -122.179688 44.6875 -121.109375 C 47.21875 -120.046875 49.484375 -118.785156 51.484375 -117.328125 C 54.140625 -115.328125 56.164062 -113.128906 57.5625 -110.734375 C 58.957031 -108.335938 59.65625 -104.945312 59.65625 -100.5625 L 59.65625 3.796875 C 59.65625 5.785156 59.15625 7.144531 58.15625 7.875 C 57.164062 8.613281 55.9375 8.984375 54.46875 8.984375 Z M 17.765625 0 L 48.6875 0 L 48.6875 -106.546875 C 48.6875 -111.335938 47.6875 -114.726562 45.6875 -116.71875 C 43.695312 -118.71875 40.238281 -119.71875 35.3125 -119.71875 L 5.984375 -119.71875 L 5.984375 -95.171875 L 13.171875 -95.171875 C 15.035156 -95.171875 16.265625 -94.90625 16.859375 -94.375 C 17.460938 -93.84375 17.765625 -92.644531 17.765625 -90.78125 Z M 17.765625 0 "/></g></g><g style="fill:#fffef8;fill-opacity:1;"><g transform="translate(581.918572, 221.640559)"><path style="stroke:none" d="M 47.09375 8.984375 C 45.226562 8.984375 43.765625 8.582031 42.703125 7.78125 L 36.109375 3.1875 C 34.648438 2.125 33.921875 0.660156 33.921875 -1.203125 L 33.921875 -82.40625 C 33.921875 -83.070312 33.921875 -83.738281 33.921875 -84.40625 C 33.921875 -85.070312 33.988281 -85.671875 34.125 -86.203125 L 12.96875 -86.203125 C 11.507812 -86.203125 10.046875 -86.664062 8.578125 -87.59375 L 1.796875 -92.390625 C 0.867188 -93.046875 0.300781 -93.707031 0.09375 -94.375 C -0.101562 -95.039062 -0.203125 -95.835938 -0.203125 -96.765625 L -0.203125 -119.515625 C -0.203125 -121.648438 0.863281 -122.71875 3 -122.71875 L 74.828125 -122.71875 C 76.421875 -122.71875 77.75 -122.25 78.8125 -121.3125 L 85.203125 -115.734375 C 86.523438 -114.535156 87.1875 -113.203125 87.1875 -111.734375 L 87.1875 -91.390625 C 87.1875 -89.921875 86.722656 -88.6875 85.796875 -87.6875 C 84.867188 -86.695312 83.671875 -86.203125 82.203125 -86.203125 L 80.21875 -86.203125 C 79.019531 -86.203125 78.1875 -85.898438 77.71875 -85.296875 C 77.25 -84.703125 77.015625 -83.273438 77.015625 -81.015625 L 77.015625 3.796875 C 77.015625 5.253906 76.515625 6.484375 75.515625 7.484375 C 74.523438 8.484375 73.296875 8.984375 71.828125 8.984375 Z M 36.90625 0 L 66.046875 0 L 66.046875 -87 C 66.046875 -92.445312 68.109375 -95.171875 72.234375 -95.171875 L 76.21875 -95.171875 L 76.21875 -119.71875 L 2.796875 -119.71875 L 2.796875 -95.171875 L 39.5 -95.171875 C 37.769531 -92.242188 36.90625 -87.988281 36.90625 -82.40625 Z M 36.90625 0 "/></g></g><g style="fill:#fffef8;fill-opacity:1;"><g transform="translate(661.533368, 221.640559)"><path style="stroke:none" d="M 16.15625 8.984375 C 14.5625 8.984375 13.164062 8.582031 11.96875 7.78125 L 4.59375 3 C 2.863281 1.925781 2.195312 0.394531 2.59375 -1.59375 L 13.5625 -77.21875 C 13.832031 -79.082031 14.164062 -80.84375 14.5625 -82.5 C 14.96875 -84.164062 15.367188 -85.726562 15.765625 -87.1875 L 8.375 -91.78125 C 6.644531 -92.84375 5.78125 -94.304688 5.78125 -96.171875 L 5.78125 -119.515625 C 5.78125 -121.648438 6.847656 -122.71875 8.984375 -122.71875 L 65.640625 -122.71875 C 70.566406 -122.71875 74.691406 -122.015625 78.015625 -120.609375 C 81.335938 -119.210938 84.597656 -117.320312 87.796875 -114.9375 C 92.585938 -111.207031 96.175781 -107.144531 98.5625 -102.75 C 100.957031 -98.363281 102.359375 -92.25 102.765625 -84.40625 L 106.953125 -11.171875 C 107.484375 2.265625 100.765625 8.984375 86.796875 8.984375 L 59.65625 8.984375 C 57.925781 8.984375 56.53125 8.515625 55.46875 7.578125 L 48.484375 2.1875 L 48.09375 4.1875 C 47.820312 5.914062 47.15625 7.144531 46.09375 7.875 C 45.03125 8.613281 43.898438 8.984375 42.703125 8.984375 Z M 5.390625 0 L 36.90625 0 L 48.6875 -88.390625 C 49.082031 -91.453125 49.644531 -93.476562 50.375 -94.46875 C 51.113281 -95.46875 52.347656 -95.96875 54.078125 -95.96875 L 54.875 -95.96875 C 57.132812 -95.96875 58.695312 -95.171875 59.5625 -93.578125 C 60.425781 -91.984375 60.925781 -89.257812 61.0625 -85.40625 L 64.046875 -30.125 C 64.179688 -28.132812 63.984375 -26.707031 63.453125 -25.84375 C 62.921875 -24.976562 61.585938 -24.546875 59.453125 -24.546875 L 49.484375 -24.546875 L 49.484375 0 L 78.8125 0 C 85.0625 0 89.550781 -1.363281 92.28125 -4.09375 C 95.007812 -6.820312 96.238281 -11.109375 95.96875 -16.953125 L 91.78125 -90.1875 C 91.25 -101.625 88.65625 -109.40625 84 -113.53125 C 79.34375 -117.65625 73.222656 -119.71875 65.640625 -119.71875 L 8.78125 -119.71875 L 8.78125 -95.171875 L 23.546875 -95.171875 C 20.085938 -91.316406 17.757812 -85.195312 16.5625 -76.8125 Z M 52.484375 -27.53125 L 59.0625 -27.53125 C 60.394531 -27.53125 61.0625 -28.332031 61.0625 -29.9375 L 58.65625 -74.625 Z M 52.484375 -27.53125 "/></g></g><g clip-rule="nonzero" clip-path="url(#9d4218e03d)"><path style="fill:none;stroke-width:7;stroke-linecap:round;stroke-linejoin:miter;stroke:#ffffff;stroke-opacity:1;stroke-miterlimit:4;" d="M 3.502019 3.501187 L 156.070702 3.501187 " transform="matrix(0.74828,0,0,0.74828,0.918572,159.907476)"/></g><g clip-rule="nonzero" clip-path="url(#13d6b18966)"><path style="fill:none;stroke-width:7;stroke-linecap:round;stroke-linejoin:miter;stroke:#ffffff;stroke-opacity:1;stroke-miterlimit:4;" d="M 3.500599 3.501187 L 156.074502 3.501187 " transform="matrix(0.74828,0,0,0.74828,788.728229,159.907476)"/></g></g></svg>