<svg xmlns="http://www.w3.org/2000/svg" xmlns:xlink="http://www.w3.org/1999/xlink" width="308" zoomAndPan="magnify" viewBox="0 0 230.87999 231" height="308" preserveAspectRatio="xMidYMid meet" version="1.2"><defs><clipPath id="59356362df"><path d="M 0 0.0585938 L 230.128906 0.0585938 L 230.128906 230.191406 L 0 230.191406 Z M 0 0.0585938 "/></clipPath><clipPath id="9fe6267282"><path d="M 42.226562 150.148438 L 89.488281 150.148438 L 89.488281 199.652344 L 42.226562 199.652344 Z M 42.226562 150.148438 "/></clipPath></defs><g id="2a7b8e9fcd"><g clip-rule="nonzero" clip-path="url(#59356362df)"><path style=" stroke:none;fill-rule:nonzero;fill:#323742;fill-opacity:1;" d="M 0 115.125 C 0 51.578125 51.515625 0.0585938 115.066406 0.0585938 C 178.613281 0.0585938 230.128906 51.578125 230.128906 115.125 C 230.128906 178.671875 178.613281 230.191406 115.066406 230.191406 C 51.515625 230.191406 0 178.671875 0 115.125 "/></g><path style=" stroke:none;fill-rule:nonzero;fill:#ff8ca1;fill-opacity:1;" d="M 186.511719 115.125 L 106.328125 47.273438 L 116.609375 89.425781 L 43.617188 89.425781 L 43.617188 140.824219 L 116.609375 140.824219 L 106.328125 182.972656 L 186.511719 115.125 "/><g clip-rule="nonzero" clip-path="url(#9fe6267282)"><path style=" stroke:none;fill-rule:nonzero;fill:#323742;fill-opacity:1;" d="M 42.226562 150.148438 L 89.488281 150.148438 L 89.488281 199.625 L 42.226562 199.625 Z M 42.226562 150.148438 "/></g></g></svg>