<svg xmlns="http://www.w3.org/2000/svg" xmlns:xlink="http://www.w3.org/1999/xlink" width="564" zoomAndPan="magnify" viewBox="0 0 422.88 80.249996" height="107" preserveAspectRatio="xMidYMid meet" version="1.2"><defs><clipPath id="821e0f566c"><path d="M 1.917969 0 L 420.863281 0 L 420.863281 79.507812 L 1.917969 79.507812 Z M 1.917969 0 "/></clipPath><clipPath id="c0a99b74f4"><path d="M 387.429688 0 C 405.929688 0 420.929688 17.792969 420.929688 39.742188 C 420.929688 61.691406 405.929688 79.484375 387.429688 79.484375 L 35.414062 79.484375 C 16.914062 79.484375 1.917969 61.691406 1.917969 39.742188 C 1.917969 17.792969 16.914062 0 35.414062 0 Z M 387.429688 0 "/></clipPath><clipPath id="c8b89cade3"><path d="M 247.824219 32.121094 L 251.539062 32.121094 L 251.539062 47.371094 L 247.824219 47.371094 Z M 247.824219 32.121094 "/></clipPath></defs><g id="4d0bd525dd"><g clip-rule="nonzero" clip-path="url(#821e0f566c)"><g clip-rule="nonzero" clip-path="url(#c0a99b74f4)"><path style="fill:none;stroke-width:4;stroke-linecap:butt;stroke-linejoin:miter;stroke:#fffef8;stroke-opacity:1;stroke-miterlimit:4;" d="M 518.822011 0.00000266667 C 543.719211 0.00000266667 563.90613 23.945684 563.90613 53.484824 C 563.90613 83.023964 543.719211 106.969645 518.822011 106.969645 L 45.081283 106.969645 C 20.184083 106.969645 0.00242114 83.023964 0.00242114 53.484824 C 0.00242114 23.945684 20.184083 0.00000266667 45.081283 0.00000266667 Z M 518.822011 0.00000266667 " transform="matrix(0.743055,0,0,0.743055,1.91617,-0.00000198148)"/></g></g><g style="fill:#fffef8;fill-opacity:1;"><g transform="translate(168.075741, 52.756938)"><path style="stroke:none" d="M 7.40625 0 C 5.976562 0 5.007812 -0.441406 4.5 -1.328125 C 4 -2.222656 4.015625 -3.457031 4.546875 -5.03125 L 10.390625 -21.3125 C 10.566406 -21.8125 10.566406 -22.203125 10.390625 -22.484375 C 10.210938 -22.765625 9.867188 -22.90625 9.359375 -22.90625 L 2.234375 -22.90625 C 1.753906 -22.90625 1.410156 -23.007812 1.203125 -23.21875 C 0.992188 -23.425781 0.890625 -23.785156 0.890625 -24.296875 L 0.890625 -30.3125 L 5.34375 -30.3125 L 5.34375 -26.75 L 12.171875 -26.75 C 13.660156 -26.75 14.6875 -26.242188 15.25 -25.234375 C 15.8125 -24.222656 15.8125 -22.941406 15.25 -21.390625 L 9.3125 -5 C 9.195312 -4.664062 9.175781 -4.382812 9.25 -4.15625 C 9.320312 -3.9375 9.550781 -3.828125 9.9375 -3.828125 L 11.71875 -3.828125 L 11.71875 0 Z M 7.40625 0 "/></g></g><g style="fill:#fffef8;fill-opacity:1;"><g transform="translate(185.325012, 52.756938)"><path style="stroke:none" d="M 22.953125 -26.75 L 22.953125 -22.90625 L 20.46875 -22.90625 C 20.757812 -22.34375 20.90625 -21.46875 20.90625 -20.28125 L 20.90625 0 L 16.21875 0 L 16.21875 -20.953125 C 16.21875 -21.722656 16.128906 -22.238281 15.953125 -22.5 C 15.773438 -22.769531 15.460938 -22.90625 15.015625 -22.90625 L 9.8125 -22.90625 C 9.363281 -22.90625 9.050781 -22.769531 8.875 -22.5 C 8.695312 -22.238281 8.609375 -21.722656 8.609375 -20.953125 L 8.609375 0 L 3.921875 0 L 3.921875 -20.28125 C 3.921875 -21.46875 4.070312 -22.34375 4.375 -22.90625 L 1.875 -22.90625 L 1.875 -26.75 Z M 22.953125 -26.75 "/></g></g><g style="fill:#fffef8;fill-opacity:1;"><g transform="translate(210.151485, 52.756938)"><path style="stroke:none" d="M 15.828125 -26.75 C 17.304688 -26.75 18.375 -26.421875 19.03125 -25.765625 C 19.6875 -25.109375 20.015625 -24.023438 20.015625 -22.515625 L 20.015625 0 L 15.328125 0 L 15.328125 -21.359375 C 15.328125 -22.421875 14.8125 -22.953125 13.78125 -22.953125 L 10.65625 -22.953125 C 9.644531 -22.953125 8.945312 -22.644531 8.5625 -22.03125 C 8.175781 -21.425781 8.101562 -20.160156 8.34375 -18.234375 L 9.9375 -5.265625 C 10.207031 -3.535156 10.046875 -2.222656 9.453125 -1.328125 C 8.859375 -0.441406 7.726562 0 6.0625 0 L 1.46875 0 L 1.46875 -3.828125 L 4.140625 -3.828125 C 4.554688 -3.828125 4.867188 -3.945312 5.078125 -4.1875 C 5.285156 -4.425781 5.347656 -4.84375 5.265625 -5.4375 L 3.828125 -17.34375 C 3.617188 -19.03125 3.609375 -20.289062 3.796875 -21.125 C 3.992188 -21.957031 4.242188 -22.550781 4.546875 -22.90625 L 1.5625 -22.90625 L 1.5625 -26.75 Z M 15.828125 -26.75 "/></g></g><g style="fill:#fffef8;fill-opacity:1;"><g transform="translate(232.927662, 52.756938)"><path style="stroke:none" d="M 14.359375 0 L 14.359375 -21.390625 C 14.359375 -22.398438 13.867188 -22.90625 12.890625 -22.90625 L 2.578125 -22.90625 L 2.578125 -26.75 L 15.203125 -26.75 C 16.566406 -26.75 17.546875 -26.410156 18.140625 -25.734375 C 18.734375 -25.066406 19.03125 -23.992188 19.03125 -22.515625 L 19.03125 0 Z M 4.859375 0 C 3.335938 0 2.578125 -0.769531 2.578125 -2.3125 L 2.578125 -16.671875 L 7.265625 -16.671875 L 7.265625 -4.6875 C 7.265625 -4.113281 7.488281 -3.828125 7.9375 -3.828125 L 8.515625 -3.828125 L 8.515625 0 Z M 4.859375 0 "/></g></g><g clip-rule="nonzero" clip-path="url(#c8b89cade3)"><path style=" stroke:none;fill-rule:nonzero;fill:#fffef8;fill-opacity:1;" d="M 247.824219 32.121094 L 251.539062 32.121094 L 251.539062 47.375 L 247.824219 47.375 Z M 247.824219 32.121094 "/></g></g></svg>