<svg xmlns="http://www.w3.org/2000/svg" xmlns:xlink="http://www.w3.org/1999/xlink" width="851" zoomAndPan="magnify" viewBox="0 0 638.25 169.5" height="226" preserveAspectRatio="xMidYMid meet" version="1.2"><defs><clipPath id="29b28272e1"><path d="M 560.941406 17.753906 L 636.46875 17.753906 L 636.46875 80.570312 L 560.941406 80.570312 Z M 560.941406 17.753906 "/></clipPath><clipPath id="c9b84fd3ef"><path d="M 6 89 L 55 89 L 55 140 L 6 140 Z M 6 89 "/></clipPath><clipPath id="97ebe21d7d"><path d="M 0.566406 97.558594 L 47.777344 80.785156 L 63.800781 125.878906 L 16.589844 142.65625 Z M 0.566406 97.558594 "/></clipPath><clipPath id="2237b27814"><path d="M 0.566406 97.558594 L 47.777344 80.785156 L 63.800781 125.878906 L 16.589844 142.65625 Z M 0.566406 97.558594 "/></clipPath></defs><g id="bfb40e71df"><g clip-rule="nonzero" clip-path="url(#29b28272e1)"><path style=" stroke:none;fill-rule:nonzero;fill:#ffd75f;fill-opacity:1;" d="M 585.527344 18.285156 C 585.445312 17.957031 585.132812 17.761719 584.804688 17.84375 C 584.59375 17.890625 584.410156 18.074219 584.363281 18.285156 C 583.3125 22.222656 580.722656 29.488281 575.011719 33.933594 C 571.042969 37.015625 566.402344 39.148438 561.480469 40.148438 C 561.152344 40.214844 560.941406 40.527344 561.007812 40.855469 C 561.054688 41.085938 561.21875 41.25 561.433594 41.316406 C 565.433594 42.429688 572.390625 44.875 575.914062 49.023438 C 578.703125 52.304688 581.179688 60.523438 582.261719 64.539062 C 582.363281 64.851562 582.691406 65.046875 583 64.949219 C 583.199219 64.902344 583.363281 64.738281 583.410156 64.539062 C 584.527344 60.457031 587.414062 52.007812 592.808594 48.417969 C 597.632812 45.203125 602.996094 43.59375 606.03125 42.871094 C 606.359375 42.789062 606.539062 42.460938 606.457031 42.132812 C 606.40625 41.9375 606.257812 41.773438 606.0625 41.726562 C 602.40625 40.640625 595.597656 38.199219 592.808594 34.539062 C 588.480469 28.867188 586.414062 22.027344 585.527344 18.285156 Z M 615.855469 51.992188 C 615.804688 51.796875 615.609375 51.679688 615.410156 51.730469 C 615.28125 51.761719 615.183594 51.859375 615.148438 51.992188 C 614.507812 54.402344 612.917969 58.847656 609.425781 61.554688 C 606.996094 63.441406 604.160156 64.738281 601.140625 65.34375 C 600.945312 65.375 600.8125 65.574219 600.863281 65.769531 C 600.894531 65.902344 600.996094 66.015625 601.125 66.050781 C 603.570312 66.738281 607.835938 68.214844 609.984375 70.757812 C 611.6875 72.757812 613.199219 77.792969 613.871094 80.253906 C 613.917969 80.449219 614.132812 80.566406 614.3125 80.515625 C 614.445312 80.484375 614.527344 80.382812 614.574219 80.253906 C 615.265625 77.761719 617.019531 72.59375 620.316406 70.394531 C 623.269531 68.425781 626.550781 67.441406 628.402344 67 C 628.597656 66.953125 628.714844 66.753906 628.664062 66.558594 C 628.632812 66.425781 628.535156 66.328125 628.417969 66.296875 C 626.171875 65.621094 622.023438 64.144531 620.316406 61.898438 C 617.660156 58.472656 616.394531 54.289062 615.855469 51.992188 Z M 627.84375 24.566406 C 627.8125 24.4375 627.679688 24.355469 627.550781 24.386719 C 627.46875 24.402344 627.402344 24.46875 627.367188 24.566406 C 626.941406 26.175781 625.894531 29.113281 623.5625 30.914062 C 621.957031 32.164062 620.070312 33.03125 618.070312 33.441406 C 617.9375 33.472656 617.855469 33.589844 617.871094 33.71875 C 617.886719 33.820312 617.953125 33.882812 618.050781 33.902344 C 619.675781 34.359375 622.496094 35.34375 623.941406 37.035156 C 625.074219 38.363281 626.074219 41.707031 626.515625 43.332031 C 626.550781 43.464844 626.679688 43.527344 626.8125 43.496094 C 626.894531 43.480469 626.960938 43.414062 626.976562 43.332031 C 627.433594 41.675781 628.597656 38.246094 630.796875 36.789062 C 632.75 35.476562 634.929688 34.835938 636.175781 34.539062 C 636.308594 34.507812 636.390625 34.375 636.359375 34.246094 C 636.339844 34.164062 636.277344 34.097656 636.195312 34.066406 C 634.699219 33.621094 631.945312 32.636719 630.8125 31.144531 C 629.058594 28.867188 628.207031 26.09375 627.84375 24.566406 Z M 627.84375 24.566406 "/></g><g clip-rule="nonzero" clip-path="url(#c9b84fd3ef)"><g clip-rule="nonzero" clip-path="url(#97ebe21d7d)"><g clip-rule="nonzero" clip-path="url(#2237b27814)"><path style=" stroke:none;fill-rule:nonzero;fill:#ffd75f;fill-opacity:1;" d="M 24.285156 89.304688 L 36.800781 101.464844 L 53.910156 98.050781 L 46.214844 113.71875 L 54.761719 128.933594 L 37.488281 126.453125 L 25.640625 139.28125 L 22.660156 122.085938 L 6.8125 114.785156 L 22.242188 106.636719 Z M 24.285156 89.304688 "/><path style=" stroke:none;fill-rule:nonzero;fill:#ffd75f;fill-opacity:1;" d="M 24.125 89.203125 L 36.644531 101.359375 L 53.757812 97.945312 L 46.058594 113.613281 L 54.597656 128.832031 L 37.324219 126.351562 L 25.484375 139.175781 L 22.507812 121.984375 L 6.648438 114.683594 L 22.078125 106.535156 Z M 24.125 89.203125 "/><path style=" stroke:none;fill-rule:nonzero;fill:#ffd75f;fill-opacity:1;" d="M 24.125 89.203125 L 36.644531 101.359375 L 53.757812 97.945312 L 46.058594 113.613281 L 54.597656 128.832031 L 37.324219 126.351562 L 25.484375 139.175781 L 22.507812 121.984375 L 6.648438 114.683594 L 22.078125 106.535156 Z M 24.125 89.203125 "/><path style=" stroke:none;fill-rule:nonzero;fill:#ffd75f;fill-opacity:1;" d="M 24.125 89.203125 L 36.644531 101.359375 L 53.757812 97.945312 L 46.058594 113.613281 L 54.597656 128.832031 L 37.324219 126.351562 L 25.484375 139.175781 L 22.507812 121.984375 L 6.648438 114.683594 L 22.078125 106.535156 Z M 24.125 89.203125 "/></g></g></g><g style="fill:#ffe083;fill-opacity:1;"><g transform="translate(64.198587, 115.068588)"><path style="stroke:none" d="M 15.242188 -18.300781 C 14.117188 -18.300781 13.183594 -18.449219 12.433594 -18.75 C 11.871094 -18.972656 11.285156 -19.289062 10.675781 -19.695312 L 12.546875 -22.5 L 10.8125 -19.609375 L 7.183594 -21.789062 C 5.988281 -22.535156 5.167969 -23.445312 4.71875 -24.523438 C 4.371094 -25.351562 4.199219 -26.269531 4.199219 -27.269531 L 4.199219 -44.585938 L 7.570312 -44.585938 L 5.816406 -41.707031 L 1.046875 -44.609375 C -0.265625 -45.398438 -1.148438 -46.339844 -1.605469 -47.4375 C -1.953125 -48.265625 -2.125 -49.148438 -2.125 -50.082031 L -2.125 -62.109375 C -2.125 -63.59375 -1.660156 -64.800781 -0.722656 -65.738281 C 0.210938 -66.671875 1.417969 -67.140625 2.902344 -67.140625 L 17.003906 -67.140625 C 21.992188 -67.140625 25.921875 -65.75 28.785156 -62.976562 C 30.128906 -61.710938 31.304688 -60.3125 32.316406 -58.777344 C 33.546875 -56.902344 34.164062 -54.316406 34.164062 -51.015625 L 34.164062 -24.367188 C 34.164062 -22.675781 33.578125 -21.242188 32.402344 -20.066406 C 31.222656 -18.890625 29.789062 -18.300781 28.101562 -18.300781 Z M 15.242188 -25.042969 L 28.101562 -25.042969 C 27.929688 -25.042969 27.773438 -24.972656 27.636719 -24.832031 C 27.496094 -24.691406 27.425781 -24.539062 27.425781 -24.367188 L 27.425781 -51.015625 C 27.425781 -52.96875 27.179688 -54.320312 26.683594 -55.074219 C 25.964844 -56.167969 25.101562 -57.1875 24.097656 -58.132812 C 22.539062 -59.644531 20.171875 -60.398438 17.003906 -60.398438 L 2.902344 -60.398438 C 2.992188 -60.398438 3.105469 -60.421875 3.242188 -60.46875 C 3.539062 -60.566406 3.804688 -60.734375 4.042969 -60.972656 C 4.277344 -61.207031 4.445312 -61.472656 4.546875 -61.769531 C 4.589844 -61.910156 4.613281 -62.023438 4.613281 -62.109375 L 4.613281 -50.082031 C 4.613281 -50.054688 4.617188 -50.03125 4.617188 -50.019531 C 4.617188 -50.019531 4.617188 -50.023438 4.613281 -50.03125 C 4.519531 -50.253906 4.414062 -50.425781 4.289062 -50.542969 C 4.324219 -50.511719 4.410156 -50.453125 4.550781 -50.367188 L 10.9375 -46.480469 L 10.9375 -27.269531 C 10.9375 -27.191406 10.945312 -27.132812 10.953125 -27.085938 C 10.953125 -27.085938 10.949219 -27.09375 10.9375 -27.113281 C 10.867188 -27.292969 10.773438 -27.4375 10.667969 -27.550781 C 10.652344 -27.566406 10.640625 -27.578125 10.632812 -27.585938 C 10.648438 -27.570312 10.652344 -27.566406 10.652344 -27.566406 L 14.347656 -25.347656 L 14.414062 -25.304688 C 14.636719 -25.15625 14.808594 -25.058594 14.9375 -25.007812 C 14.875 -25.035156 14.816406 -25.050781 14.765625 -25.066406 L 14.78125 -25.0625 C 14.890625 -25.046875 15.046875 -25.042969 15.242188 -25.042969 Z M 9.125 -29.707031 L 25.09375 -29.707031 L 25.09375 -26.335938 L 21.722656 -26.335938 L 21.722656 -54.125 C 21.722656 -55.292969 21.617188 -56.246094 21.402344 -56.988281 C 21.261719 -57.476562 21.089844 -57.820312 20.894531 -58.015625 C 20.699219 -58.210938 20.355469 -58.378906 19.867188 -58.523438 C 19.125 -58.738281 18.171875 -58.84375 17.003906 -58.84375 L 2.800781 -58.84375 L 2.800781 -62.214844 L 6.167969 -62.214844 L 6.167969 -49.460938 L 2.800781 -49.460938 L 2.800781 -52.828125 L 6.738281 -52.828125 C 8.5625 -52.828125 9.949219 -52.40625 10.898438 -51.5625 C 11.960938 -50.617188 12.496094 -49.15625 12.496094 -47.179688 L 12.496094 -26.335938 L 9.125 -26.335938 Z M 5.753906 -22.96875 L 5.753906 -47.179688 C 5.753906 -47.386719 5.75 -47.511719 5.738281 -47.554688 C 5.828125 -47.191406 6.054688 -46.847656 6.417969 -46.527344 C 6.703125 -46.273438 6.976562 -46.117188 7.234375 -46.0625 C 7.148438 -46.082031 6.984375 -46.089844 6.738281 -46.089844 L -0.570312 -46.089844 L -0.570312 -65.582031 L 17.003906 -65.582031 C 20.90625 -65.582031 23.792969 -64.648438 25.660156 -62.78125 C 27.527344 -60.914062 28.460938 -58.027344 28.460938 -54.125 L 28.460938 -22.96875 Z M 5.753906 -22.96875 "/></g></g><g style="fill:#ffe083;fill-opacity:1;"><g transform="translate(94.371284, 115.068588)"><path style="stroke:none" d="M 25.300781 8.035156 C 24.628906 8.035156 23.996094 7.984375 23.398438 7.886719 C 22.441406 7.726562 21.46875 7.277344 20.476562 6.53125 L 22.5 3.835938 L 20.609375 6.625 L 17.703125 4.65625 C 15.820312 3.351562 14.878906 1.660156 14.878906 -0.414062 L 14.878906 -44.792969 L 18.25 -44.792969 L 18.25 -41.421875 L 6.222656 -41.421875 C 5.25 -41.421875 4.355469 -41.609375 3.53125 -41.984375 C 3.035156 -42.210938 2.558594 -42.460938 2.101562 -42.734375 L 1.992188 -42.800781 L -0.601562 -44.636719 C -2.515625 -46.003906 -3.472656 -47.714844 -3.472656 -49.769531 L -3.472656 -62.109375 C -3.472656 -63.59375 -3.007812 -64.800781 -2.070312 -65.738281 C -1.136719 -66.671875 0.0703125 -67.140625 1.554688 -67.140625 L 25.402344 -67.140625 C 28.277344 -67.140625 30.777344 -66.765625 32.902344 -66.011719 C 35.039062 -65.257812 36.847656 -64.273438 38.328125 -63.050781 L 36.1875 -60.449219 L 38.242188 -63.121094 C 40.433594 -61.4375 42.09375 -59.507812 43.222656 -57.339844 C 44.375 -55.125 44.949219 -52.222656 44.949219 -48.628906 L 44.949219 1.96875 C 44.949219 3.660156 44.359375 5.09375 43.183594 6.269531 C 42.007812 7.449219 40.574219 8.035156 38.882812 8.035156 Z M 25.300781 1.296875 L 38.882812 1.296875 C 38.714844 1.296875 38.558594 1.367188 38.417969 1.503906 C 38.277344 1.644531 38.210938 1.800781 38.210938 1.96875 L 38.210938 -48.628906 C 38.210938 -51.121094 37.886719 -52.988281 37.242188 -54.230469 C 36.570312 -55.515625 35.535156 -56.699219 34.132812 -57.78125 L 34.089844 -57.8125 L 34.046875 -57.847656 C 33.175781 -58.566406 32.046875 -59.167969 30.660156 -59.65625 C 29.257812 -60.152344 27.507812 -60.398438 25.402344 -60.398438 L 1.554688 -60.398438 C 1.644531 -60.398438 1.757812 -60.421875 1.894531 -60.46875 C 2.191406 -60.566406 2.457031 -60.734375 2.695312 -60.972656 C 2.929688 -61.207031 3.097656 -61.472656 3.195312 -61.769531 C 3.242188 -61.910156 3.265625 -62.023438 3.265625 -62.109375 L 3.265625 -49.769531 C 3.265625 -49.953125 3.222656 -50.113281 3.136719 -50.253906 C 3.128906 -50.269531 3.121094 -50.28125 3.113281 -50.289062 C 3.113281 -50.289062 3.117188 -50.285156 3.125 -50.277344 C 3.164062 -50.234375 3.222656 -50.1875 3.296875 -50.136719 L 5.785156 -48.375 L 3.835938 -45.625 L 5.570312 -48.511719 C 5.804688 -48.371094 6.054688 -48.242188 6.320312 -48.121094 C 6.273438 -48.140625 6.234375 -48.15625 6.195312 -48.164062 C 6.1875 -48.164062 6.1875 -48.164062 6.183594 -48.164062 C 6.195312 -48.164062 6.207031 -48.164062 6.222656 -48.164062 L 21.621094 -48.164062 L 21.621094 -0.414062 C 21.621094 -0.578125 21.574219 -0.738281 21.488281 -0.886719 C 21.460938 -0.925781 21.441406 -0.957031 21.421875 -0.980469 C 21.4375 -0.960938 21.460938 -0.941406 21.488281 -0.921875 L 24.457031 1.09375 L 24.523438 1.140625 C 24.636719 1.226562 24.722656 1.285156 24.785156 1.316406 C 24.726562 1.285156 24.632812 1.257812 24.507812 1.238281 C 24.738281 1.277344 25.003906 1.296875 25.300781 1.296875 Z M 19.804688 -3.371094 L 35.875 -3.371094 L 35.875 0 L 32.507812 0 L 32.507812 -51.742188 C 32.507812 -54.625 32.050781 -56.535156 31.132812 -57.472656 C 30.238281 -58.386719 28.328125 -58.84375 25.402344 -58.84375 L 1.453125 -58.84375 L 1.453125 -62.214844 L 4.820312 -62.214844 L 4.820312 -49.460938 L 1.453125 -49.460938 L 1.453125 -52.828125 L 16.070312 -52.828125 C 18.246094 -52.828125 19.972656 -52.191406 21.253906 -50.910156 C 22.535156 -49.628906 23.175781 -47.902344 23.175781 -45.726562 L 23.175781 0 L 19.804688 0 Z M 16.433594 3.371094 L 16.433594 -45.726562 C 16.433594 -45.984375 16.414062 -46.171875 16.375 -46.292969 C 16.386719 -46.257812 16.425781 -46.207031 16.488281 -46.144531 C 16.550781 -46.078125 16.601562 -46.042969 16.640625 -46.027344 C 16.519531 -46.070312 16.328125 -46.089844 16.070312 -46.089844 L -1.917969 -46.089844 L -1.917969 -65.582031 L 25.402344 -65.582031 C 30.21875 -65.582031 33.734375 -64.449219 35.953125 -62.183594 C 38.148438 -59.941406 39.246094 -56.460938 39.246094 -51.742188 L 39.246094 3.371094 Z M 16.433594 3.371094 "/></g></g><g style="fill:#ffe083;fill-opacity:1;"><g transform="translate(135.949462, 115.068588)"><path style="stroke:none" d="M 14.308594 8.035156 C 12.730469 8.035156 11.242188 7.570312 9.847656 6.640625 L 6.886719 4.632812 L 6.855469 4.609375 C 5.804688 3.859375 5.089844 2.964844 4.714844 1.929688 C 4.441406 1.175781 4.304688 0.394531 4.304688 -0.414062 L 4.304688 -44.691406 L 7.671875 -44.691406 L 5.625 -42.011719 L 0.25 -46.125 L 0.164062 -46.199219 C -1.15625 -47.351562 -1.816406 -48.820312 -1.816406 -50.601562 L -1.816406 -62.109375 C -1.816406 -63.59375 -1.347656 -64.800781 -0.414062 -65.738281 C 0.523438 -66.671875 1.730469 -67.140625 3.214844 -67.140625 L 18.351562 -67.140625 C 20.742188 -67.140625 22.800781 -66.773438 24.535156 -66.046875 C 26.089844 -65.390625 27.496094 -64.605469 28.746094 -63.6875 C 30.511719 -62.363281 31.871094 -60.882812 32.824219 -59.246094 C 33.855469 -57.476562 34.375 -55.148438 34.375 -52.257812 L 34.375 1.96875 C 34.375 4.144531 33.65625 5.761719 32.21875 6.8125 C 31.105469 7.628906 29.804688 8.035156 28.308594 8.035156 Z M 14.308594 1.296875 L 28.308594 1.296875 C 28.34375 1.296875 28.375 1.292969 28.402344 1.289062 L 28.398438 1.292969 C 28.34375 1.308594 28.289062 1.335938 28.234375 1.378906 C 27.945312 1.589844 27.746094 1.835938 27.644531 2.121094 C 27.632812 2.148438 27.625 2.171875 27.621094 2.191406 C 27.628906 2.136719 27.632812 2.0625 27.632812 1.96875 L 27.632812 -52.257812 C 27.632812 -53.933594 27.421875 -55.128906 27.003906 -55.847656 C 26.507812 -56.699219 25.757812 -57.5 24.757812 -58.25 C 23.933594 -58.855469 22.988281 -59.382812 21.917969 -59.832031 C 21.023438 -60.210938 19.835938 -60.398438 18.351562 -60.398438 L 3.214844 -60.398438 C 3.300781 -60.398438 3.414062 -60.421875 3.554688 -60.46875 C 3.851562 -60.566406 4.117188 -60.734375 4.351562 -60.972656 C 4.589844 -61.207031 4.757812 -61.472656 4.855469 -61.769531 C 4.902344 -61.910156 4.925781 -62.023438 4.925781 -62.109375 L 4.925781 -50.601562 C 4.925781 -50.859375 4.816406 -51.082031 4.605469 -51.269531 L 2.386719 -48.734375 L 4.433594 -51.410156 L 11.042969 -46.355469 L 11.042969 -0.414062 C 11.042969 -0.394531 11.042969 -0.382812 11.046875 -0.375 C 10.976562 -0.566406 10.886719 -0.730469 10.777344 -0.859375 L 10.773438 -0.875 L 8.8125 1.867188 L 10.707031 -0.921875 L 13.585938 1.03125 C 13.851562 1.207031 14.089844 1.296875 14.308594 1.296875 Z M 9.226562 -3.371094 L 25.300781 -3.371094 L 25.300781 0 L 21.929688 0 L 21.929688 -55.371094 C 21.929688 -56.289062 21.847656 -57.035156 21.679688 -57.609375 C 21.582031 -57.9375 21.476562 -58.160156 21.363281 -58.273438 C 21.253906 -58.382812 21.027344 -58.488281 20.683594 -58.585938 C 20.089844 -58.757812 19.3125 -58.84375 18.351562 -58.84375 L 3.109375 -58.84375 L 3.109375 -62.214844 L 6.480469 -62.214844 L 6.480469 -49.460938 L 3.109375 -49.460938 L 3.109375 -52.828125 L 6.84375 -52.828125 C 8.664062 -52.828125 10.050781 -52.40625 11 -51.5625 C 12.066406 -50.617188 12.597656 -49.15625 12.597656 -47.179688 L 12.597656 0 L 9.226562 0 Z M 5.859375 3.371094 L 5.859375 -47.179688 C 5.859375 -47.386719 5.851562 -47.511719 5.84375 -47.554688 C 5.933594 -47.191406 6.160156 -46.847656 6.523438 -46.527344 C 6.808594 -46.273438 7.078125 -46.117188 7.335938 -46.0625 C 7.25 -46.082031 7.085938 -46.089844 6.84375 -46.089844 L -0.257812 -46.089844 L -0.257812 -65.582031 L 18.351562 -65.582031 C 21.839844 -65.582031 24.433594 -64.734375 26.128906 -63.042969 C 27.824219 -61.347656 28.671875 -58.789062 28.671875 -55.371094 L 28.671875 3.371094 Z M 5.859375 3.371094 "/></g></g><g style="fill:#ffe083;fill-opacity:1;"><g transform="translate(166.951652, 115.068588)"><path style="stroke:none" d="M 24.46875 8.035156 C 22.753906 8.035156 21.320312 7.605469 20.167969 6.738281 L 22.191406 4.042969 L 20.261719 6.808594 L 16.839844 4.421875 C 15.117188 3.171875 14.257812 1.488281 14.257812 -0.621094 L 14.257812 -43.859375 C 14.257812 -44.484375 14.324219 -45.066406 14.460938 -45.609375 L 17.730469 -44.792969 L 17.730469 -41.421875 L 6.738281 -41.421875 C 5.324219 -41.421875 3.960938 -41.839844 2.648438 -42.675781 L 2.582031 -42.71875 L -1.011719 -45.253906 C -2.128906 -46.054688 -2.851562 -46.996094 -3.175781 -48.078125 C -3.375 -48.738281 -3.472656 -49.476562 -3.472656 -50.289062 L -3.472656 -62.109375 C -3.472656 -63.59375 -3.007812 -64.800781 -2.070312 -65.738281 C -1.136719 -66.671875 0.0703125 -67.140625 1.554688 -67.140625 L 38.882812 -67.140625 C 40.558594 -67.140625 41.988281 -66.617188 43.175781 -65.578125 L 46.496094 -62.675781 C 47.953125 -61.363281 48.683594 -59.828125 48.683594 -58.066406 L 48.683594 -47.488281 C 48.683594 -45.84375 48.136719 -44.4375 47.050781 -43.273438 C 45.898438 -42.039062 44.457031 -41.421875 42.71875 -41.421875 L 41.683594 -41.421875 C 41.765625 -41.421875 41.882812 -41.449219 42.035156 -41.507812 C 42.429688 -41.648438 42.769531 -41.898438 43.046875 -42.257812 C 43.214844 -42.476562 43.339844 -42.695312 43.414062 -42.914062 C 43.429688 -42.953125 43.4375 -42.988281 43.445312 -43.015625 C 43.445312 -43.015625 43.441406 -43.007812 43.441406 -42.996094 C 43.410156 -42.804688 43.394531 -42.503906 43.394531 -42.097656 L 43.394531 1.96875 C 43.394531 3.660156 42.804688 5.09375 41.628906 6.269531 C 40.453125 7.449219 39.019531 8.035156 37.328125 8.035156 Z M 24.46875 1.296875 L 37.328125 1.296875 C 37.15625 1.296875 37.003906 1.367188 36.863281 1.503906 C 36.722656 1.644531 36.652344 1.800781 36.652344 1.96875 L 36.652344 -42.097656 C 36.652344 -44.042969 37.011719 -45.476562 37.726562 -46.394531 C 38.644531 -47.574219 39.960938 -48.164062 41.683594 -48.164062 L 42.71875 -48.164062 C 42.503906 -48.164062 42.304688 -48.066406 42.121094 -47.871094 C 42.003906 -47.742188 41.941406 -47.613281 41.941406 -47.488281 L 41.941406 -58.066406 C 41.941406 -57.914062 41.972656 -57.777344 42.039062 -57.648438 L 42.054688 -57.601562 L 38.738281 -60.507812 C 38.789062 -60.460938 38.847656 -60.429688 38.910156 -60.40625 C 38.929688 -60.402344 38.941406 -60.398438 38.949219 -60.394531 C 38.933594 -60.398438 38.914062 -60.398438 38.882812 -60.398438 L 1.554688 -60.398438 C 1.644531 -60.398438 1.757812 -60.421875 1.894531 -60.46875 C 2.191406 -60.566406 2.457031 -60.734375 2.695312 -60.972656 C 2.929688 -61.207031 3.097656 -61.472656 3.195312 -61.769531 C 3.242188 -61.910156 3.265625 -62.023438 3.265625 -62.109375 L 3.265625 -50.289062 C 3.265625 -50.136719 3.269531 -50.042969 3.28125 -50.011719 C 3.195312 -50.292969 3.074219 -50.523438 2.917969 -50.710938 C 2.890625 -50.742188 2.863281 -50.769531 2.84375 -50.785156 C 2.851562 -50.777344 2.863281 -50.769531 2.875 -50.761719 L 6.402344 -48.273438 L 4.457031 -45.519531 L 6.269531 -48.363281 C 6.476562 -48.230469 6.632812 -48.164062 6.738281 -48.164062 L 22.046875 -48.164062 L 21 -43.976562 L 21.003906 -43.980469 C 21 -43.949219 20.996094 -43.910156 20.996094 -43.859375 L 20.996094 -0.621094 C 20.996094 -0.796875 20.894531 -0.960938 20.695312 -1.105469 L 24.164062 1.3125 L 24.210938 1.347656 C 24.144531 1.296875 24.09375 1.269531 24.0625 1.257812 C 24.152344 1.285156 24.289062 1.296875 24.46875 1.296875 Z M 19.183594 -3.371094 L 34.320312 -3.371094 L 34.320312 0 L 30.949219 0 L 30.949219 -45.207031 C 30.949219 -47.378906 31.445312 -49.121094 32.4375 -50.429688 C 33.644531 -52.03125 35.347656 -52.828125 37.535156 -52.828125 L 39.609375 -52.828125 L 39.609375 -49.460938 L 36.238281 -49.460938 L 36.238281 -62.214844 L 39.609375 -62.214844 L 39.609375 -58.84375 L 1.453125 -58.84375 L 1.453125 -62.214844 L 4.820312 -62.214844 L 4.820312 -49.460938 L 1.453125 -49.460938 L 1.453125 -52.828125 L 26.4375 -52.828125 L 23.433594 -47.746094 C 22.84375 -46.753906 22.550781 -45.113281 22.550781 -42.824219 L 22.550781 0 L 19.183594 0 Z M 15.8125 3.371094 L 15.8125 -42.824219 C 15.8125 -46.339844 16.417969 -49.125 17.628906 -51.175781 L 20.53125 -49.460938 L 20.53125 -46.089844 L -1.917969 -46.089844 L -1.917969 -65.582031 L 42.980469 -65.582031 L 42.980469 -46.089844 L 37.535156 -46.089844 C 37.476562 -46.089844 37.433594 -46.085938 37.40625 -46.082031 C 37.425781 -46.085938 37.453125 -46.09375 37.488281 -46.109375 C 37.621094 -46.167969 37.730469 -46.253906 37.8125 -46.363281 C 37.828125 -46.386719 37.839844 -46.402344 37.84375 -46.40625 C 37.824219 -46.367188 37.808594 -46.316406 37.789062 -46.246094 C 37.722656 -45.984375 37.691406 -45.636719 37.691406 -45.207031 L 37.691406 3.371094 Z M 15.8125 3.371094 "/></g></g><g style="fill:#ffe083;fill-opacity:1;"><g transform="translate(209.359322, 115.068588)"><path style="stroke:none" d="M 8.398438 8.035156 C 6.890625 8.035156 5.539062 7.640625 4.351562 6.847656 L 0.550781 4.382812 L 2.386719 1.554688 L 0.617188 4.425781 C -0.433594 3.777344 -1.183594 2.933594 -1.640625 1.886719 C -2.09375 0.84375 -2.199219 -0.28125 -1.957031 -1.492188 L 1.347656 -0.828125 L -1.988281 -1.3125 L 3.714844 -40.613281 C 3.867188 -41.679688 4.058594 -42.695312 4.292969 -43.660156 C 4.507812 -44.558594 4.722656 -45.40625 4.941406 -46.199219 L 8.191406 -45.3125 L 6.414062 -42.449219 L 2.574219 -44.835938 C 1.660156 -45.398438 0.949219 -46.109375 0.441406 -46.96875 C -0.09375 -47.875 -0.363281 -48.878906 -0.363281 -49.976562 L -0.363281 -62.109375 C -0.363281 -63.59375 0.105469 -64.800781 1.039062 -65.738281 C 1.972656 -66.671875 3.183594 -67.140625 4.664062 -67.140625 L 34.113281 -67.140625 C 37.125 -67.140625 39.703125 -66.6875 41.847656 -65.789062 C 43.832031 -64.953125 45.765625 -63.832031 47.644531 -62.421875 C 50.535156 -60.175781 52.710938 -57.707031 54.179688 -55.011719 C 55.671875 -52.28125 56.53125 -48.621094 56.765625 -44.03125 L 58.941406 -6 C 59.121094 -1.488281 57.988281 1.988281 55.550781 4.429688 C 53.144531 6.835938 49.664062 8.035156 45.105469 8.035156 L 31.003906 8.035156 C 29.261719 8.035156 27.792969 7.515625 26.605469 6.476562 L 28.824219 3.941406 L 26.765625 6.609375 L 23.136719 3.808594 L 25.195312 1.140625 L 28.5 1.800781 L 28.292969 2.839844 L 24.988281 2.175781 L 28.320312 2.691406 C 28.035156 4.546875 27.214844 5.941406 25.863281 6.871094 C 24.734375 7.648438 23.507812 8.035156 22.191406 8.035156 Z M 8.398438 1.296875 L 22.191406 1.296875 C 22.113281 1.296875 22.066406 1.304688 22.042969 1.320312 C 21.875 1.433594 21.746094 1.570312 21.660156 1.726562 C 21.644531 1.757812 21.636719 1.777344 21.632812 1.792969 C 21.640625 1.761719 21.648438 1.71875 21.65625 1.664062 L 21.667969 1.589844 L 22.957031 -4.84375 L 30.964844 1.335938 L 31.042969 1.402344 C 30.980469 1.347656 30.917969 1.308594 30.851562 1.289062 C 30.867188 1.292969 30.917969 1.296875 31.003906 1.296875 L 45.105469 1.296875 C 47.804688 1.296875 49.695312 0.753906 50.785156 -0.335938 C 51.832031 -1.386719 52.308594 -3.144531 52.210938 -5.613281 L 50.035156 -43.6875 C 49.851562 -47.257812 49.261719 -49.953125 48.265625 -51.785156 C 47.242188 -53.65625 45.6875 -55.40625 43.601562 -57.027344 C 42.164062 -58.105469 40.710938 -58.953125 39.238281 -59.574219 C 37.925781 -60.125 36.21875 -60.398438 34.113281 -60.398438 L 4.664062 -60.398438 C 4.753906 -60.398438 4.867188 -60.421875 5.007812 -60.46875 C 5.300781 -60.566406 5.566406 -60.734375 5.804688 -60.972656 C 6.042969 -61.207031 6.210938 -61.472656 6.308594 -61.769531 C 6.355469 -61.910156 6.378906 -62.023438 6.378906 -62.109375 L 6.378906 -49.976562 C 6.378906 -50.109375 6.332031 -50.246094 6.246094 -50.398438 C 6.207031 -50.464844 6.164062 -50.519531 6.117188 -50.5625 L 6.132812 -50.558594 L 12.105469 -46.847656 L 11.441406 -44.425781 C 11.246094 -43.699219 11.046875 -42.917969 10.847656 -42.089844 C 10.664062 -41.328125 10.511719 -40.511719 10.386719 -39.644531 L 4.671875 -0.257812 L 4.652344 -0.167969 C 4.6875 -0.339844 4.648438 -0.550781 4.542969 -0.800781 C 4.433594 -1.050781 4.304688 -1.222656 4.152344 -1.316406 L 4.183594 -1.292969 L 8.089844 1.238281 C 8.148438 1.277344 8.25 1.296875 8.398438 1.296875 Z M 2.800781 -3.371094 L 19.183594 -3.371094 L 19.183594 0 L 15.84375 -0.445312 L 21.960938 -46.378906 C 22.242188 -48.535156 22.742188 -50.105469 23.464844 -51.089844 C 24.515625 -52.527344 26.0625 -53.246094 28.101562 -53.246094 L 28.515625 -53.246094 C 29.640625 -53.246094 30.648438 -53.019531 31.539062 -52.566406 C 32.566406 -52.039062 33.359375 -51.261719 33.914062 -50.234375 C 34.617188 -48.941406 35.007812 -47.027344 35.097656 -44.496094 L 36.648438 -15.839844 C 36.765625 -14.113281 36.496094 -12.722656 35.84375 -11.660156 C 34.910156 -10.144531 33.261719 -9.382812 30.898438 -9.382812 L 25.714844 -9.382812 L 25.714844 -12.753906 L 29.085938 -12.753906 L 29.085938 0 L 25.714844 0 L 25.714844 -3.371094 L 40.957031 -3.371094 C 43.277344 -3.371094 44.8125 -3.75 45.574219 -4.507812 C 46.289062 -5.226562 46.601562 -6.609375 46.507812 -8.660156 L 44.332031 -46.675781 C 44.097656 -51.695312 43.128906 -54.960938 41.417969 -56.476562 C 39.636719 -58.054688 37.203125 -58.84375 34.113281 -58.84375 L 4.5625 -58.84375 L 4.5625 -62.214844 L 7.933594 -62.214844 L 7.933594 -49.460938 L 4.5625 -49.460938 L 4.5625 -52.828125 L 19.78125 -52.828125 L 14.746094 -47.210938 C 13.402344 -45.710938 12.46875 -43.125 11.941406 -39.445312 L 6.132812 0.484375 L 2.800781 0 Z M -1.097656 3.371094 L 5.269531 -40.398438 C 5.988281 -45.425781 7.472656 -49.199219 9.726562 -51.710938 L 12.234375 -49.460938 L 12.234375 -46.089844 L 1.191406 -46.089844 L 1.191406 -65.582031 L 34.113281 -65.582031 C 38.90625 -65.582031 42.832031 -64.230469 45.886719 -61.523438 C 49.015625 -58.75 50.742188 -53.929688 51.0625 -47.058594 L 53.242188 -8.964844 C 53.425781 -4.933594 52.457031 -1.859375 50.339844 0.257812 C 48.265625 2.332031 45.136719 3.371094 40.957031 3.371094 L 22.34375 3.371094 L 22.34375 -16.125 L 30.898438 -16.125 C 31.035156 -16.125 31.148438 -16.128906 31.234375 -16.140625 C 31.25 -16.140625 31.261719 -16.144531 31.269531 -16.144531 C 31.253906 -16.140625 31.230469 -16.136719 31.207031 -16.128906 C 30.765625 -15.984375 30.398438 -15.671875 30.101562 -15.195312 C 29.996094 -15.019531 29.933594 -14.882812 29.921875 -14.789062 C 29.941406 -14.929688 29.941406 -15.160156 29.917969 -15.476562 L 28.359375 -44.261719 C 28.308594 -45.738281 28.1875 -46.660156 27.988281 -47.023438 C 28.09375 -46.828125 28.257812 -46.671875 28.472656 -46.5625 C 28.539062 -46.527344 28.59375 -46.507812 28.640625 -46.496094 C 28.617188 -46.503906 28.578125 -46.503906 28.515625 -46.503906 L 28.101562 -46.503906 C 28.0625 -46.503906 28.042969 -46.503906 28.035156 -46.503906 C 28.085938 -46.511719 28.144531 -46.527344 28.210938 -46.558594 C 28.484375 -46.667969 28.710938 -46.847656 28.898438 -47.105469 C 28.957031 -47.179688 28.992188 -47.242188 29.011719 -47.28125 C 28.984375 -47.222656 28.957031 -47.132812 28.921875 -47.011719 C 28.820312 -46.640625 28.722656 -46.132812 28.640625 -45.488281 L 22.132812 3.371094 Z M 27.269531 -17.679688 L 30.691406 -17.679688 C 29.984375 -17.679688 29.382812 -17.378906 28.878906 -16.777344 C 28.53125 -16.359375 28.359375 -15.953125 28.359375 -15.554688 L 31.730469 -15.554688 L 28.363281 -15.375 L 27.121094 -38.597656 L 30.484375 -38.78125 L 33.824219 -38.339844 L 30.613281 -13.871094 L 27.269531 -14.308594 Z M 23.429688 -10.9375 L 27.144531 -39.21875 L 33.851562 -38.960938 L 35.097656 -15.644531 L 35.097656 -15.554688 C 35.097656 -14.324219 34.753906 -13.296875 34.058594 -12.460938 C 33.210938 -11.445312 32.089844 -10.9375 30.691406 -10.9375 Z M 23.429688 -10.9375 "/></g></g><g style="fill:#ffe083;fill-opacity:1;"><g transform="translate(262.965122, 115.068588)"><path style="stroke:none" d=""/></g></g><g style="fill:#ffe083;fill-opacity:1;"><g transform="translate(284.220795, 115.068588)"><path style="stroke:none" d="M 15.035156 23.902344 C 14.320312 23.902344 13.625 23.808594 12.957031 23.625 C 12.300781 23.449219 11.605469 23.148438 10.875 22.730469 L 10.773438 22.671875 L 6.945312 20.121094 C 6.117188 19.59375 5.472656 18.910156 5.003906 18.058594 C 4.535156 17.207031 4.304688 16.269531 4.304688 15.242188 L 4.304688 -44.898438 L 7.671875 -44.898438 L 5.871094 -42.050781 L 0.789062 -45.265625 L 2.59375 -48.113281 L 0.859375 -45.222656 C -0.0703125 -45.777344 -0.765625 -46.542969 -1.226562 -47.519531 C -1.621094 -48.339844 -1.816406 -49.261719 -1.816406 -50.289062 L -1.816406 -62.109375 C -1.816406 -63.59375 -1.347656 -64.800781 -0.414062 -65.738281 C 0.523438 -66.671875 1.730469 -67.140625 3.214844 -67.140625 L 18.351562 -67.140625 C 20.753906 -67.140625 22.804688 -66.769531 24.511719 -66.03125 C 26.046875 -65.367188 27.375 -64.605469 28.496094 -63.742188 L 26.441406 -61.074219 L 28.421875 -63.796875 C 30.304688 -62.429688 31.746094 -60.929688 32.738281 -59.304688 C 33.828125 -57.519531 34.375 -55.171875 34.375 -52.257812 L 34.375 17.835938 C 34.375 20.09375 33.566406 21.746094 31.953125 22.789062 C 30.808594 23.53125 29.59375 23.902344 28.308594 23.902344 Z M 15.035156 17.160156 L 28.308594 17.160156 C 28.273438 17.160156 28.242188 17.164062 28.21875 17.171875 C 28.226562 17.167969 28.253906 17.15625 28.289062 17.128906 C 27.996094 17.320312 27.789062 17.5625 27.667969 17.851562 C 27.644531 17.910156 27.628906 17.957031 27.625 17.992188 C 27.628906 17.957031 27.632812 17.90625 27.632812 17.835938 L 27.632812 -52.257812 C 27.632812 -53.910156 27.417969 -55.085938 26.988281 -55.789062 C 26.460938 -56.652344 25.617188 -57.503906 24.457031 -58.347656 L 24.386719 -58.402344 C 23.707031 -58.921875 22.859375 -59.402344 21.835938 -59.847656 C 20.984375 -60.214844 19.824219 -60.398438 18.351562 -60.398438 L 3.214844 -60.398438 C 3.300781 -60.398438 3.414062 -60.421875 3.554688 -60.46875 C 3.851562 -60.566406 4.117188 -60.734375 4.351562 -60.972656 C 4.589844 -61.207031 4.757812 -61.472656 4.855469 -61.769531 C 4.902344 -61.910156 4.925781 -62.023438 4.925781 -62.109375 L 4.925781 -50.289062 C 4.925781 -50.25 4.925781 -50.222656 4.925781 -50.21875 C 4.914062 -50.277344 4.894531 -50.34375 4.855469 -50.417969 C 4.738281 -50.664062 4.5625 -50.859375 4.324219 -51 L 4.359375 -50.980469 L 11.042969 -46.753906 L 11.042969 15.242188 C 11.042969 15.113281 11 14.96875 10.910156 14.8125 C 10.824219 14.652344 10.746094 14.554688 10.683594 14.511719 L 14.414062 17 L 12.546875 19.804688 L 14.21875 16.878906 C 14.453125 17.011719 14.625 17.09375 14.730469 17.125 C 14.820312 17.148438 14.921875 17.160156 15.035156 17.160156 Z M 9.226562 12.496094 L 25.300781 12.496094 L 25.300781 15.863281 L 21.929688 15.863281 L 21.929688 -55.371094 C 21.929688 -56.289062 21.847656 -57.035156 21.679688 -57.609375 C 21.582031 -57.9375 21.476562 -58.160156 21.363281 -58.273438 C 21.253906 -58.382812 21.027344 -58.488281 20.683594 -58.585938 C 20.089844 -58.757812 19.3125 -58.84375 18.351562 -58.84375 L 3.109375 -58.84375 L 3.109375 -62.214844 L 6.480469 -62.214844 L 6.480469 -49.460938 L 3.109375 -49.460938 L 3.109375 -52.828125 L 6.84375 -52.828125 C 8.664062 -52.828125 10.050781 -52.40625 11 -51.5625 C 12.066406 -50.617188 12.597656 -49.15625 12.597656 -47.179688 L 12.597656 15.863281 L 9.226562 15.863281 Z M 5.859375 19.234375 L 5.859375 -47.179688 C 5.859375 -47.386719 5.851562 -47.511719 5.84375 -47.554688 C 5.933594 -47.191406 6.160156 -46.847656 6.523438 -46.527344 C 6.808594 -46.273438 7.078125 -46.117188 7.335938 -46.0625 C 7.25 -46.082031 7.085938 -46.089844 6.84375 -46.089844 L -0.257812 -46.089844 L -0.257812 -65.582031 L 18.351562 -65.582031 C 21.839844 -65.582031 24.433594 -64.734375 26.128906 -63.042969 C 27.824219 -61.347656 28.671875 -58.789062 28.671875 -55.371094 L 28.671875 19.234375 Z M 5.859375 19.234375 "/></g></g><g style="fill:#ffe083;fill-opacity:1;"><g transform="translate(315.222985, 115.068588)"><path style="stroke:none" d="M 8.398438 8.035156 C 6.890625 8.035156 5.539062 7.640625 4.351562 6.847656 L 0.550781 4.382812 L 2.386719 1.554688 L 0.617188 4.425781 C -0.433594 3.777344 -1.183594 2.933594 -1.640625 1.886719 C -2.09375 0.84375 -2.199219 -0.28125 -1.957031 -1.492188 L 1.347656 -0.828125 L -1.988281 -1.3125 L 3.714844 -40.613281 C 3.867188 -41.679688 4.058594 -42.695312 4.292969 -43.660156 C 4.507812 -44.558594 4.722656 -45.40625 4.941406 -46.199219 L 8.191406 -45.3125 L 6.414062 -42.449219 L 2.574219 -44.835938 C 1.660156 -45.398438 0.949219 -46.109375 0.441406 -46.96875 C -0.09375 -47.875 -0.363281 -48.878906 -0.363281 -49.976562 L -0.363281 -62.109375 C -0.363281 -63.59375 0.105469 -64.800781 1.039062 -65.738281 C 1.972656 -66.671875 3.183594 -67.140625 4.664062 -67.140625 L 34.113281 -67.140625 C 37.125 -67.140625 39.703125 -66.6875 41.847656 -65.789062 C 43.832031 -64.953125 45.765625 -63.832031 47.644531 -62.421875 C 50.535156 -60.175781 52.710938 -57.707031 54.179688 -55.011719 C 55.671875 -52.28125 56.53125 -48.621094 56.765625 -44.03125 L 58.941406 -6 C 59.121094 -1.488281 57.988281 1.988281 55.550781 4.429688 C 53.144531 6.835938 49.664062 8.035156 45.105469 8.035156 L 31.003906 8.035156 C 29.261719 8.035156 27.792969 7.515625 26.605469 6.476562 L 28.824219 3.941406 L 26.765625 6.609375 L 23.136719 3.808594 L 25.195312 1.140625 L 28.5 1.800781 L 28.292969 2.839844 L 24.988281 2.175781 L 28.320312 2.691406 C 28.035156 4.546875 27.214844 5.941406 25.863281 6.871094 C 24.734375 7.648438 23.507812 8.035156 22.191406 8.035156 Z M 8.398438 1.296875 L 22.191406 1.296875 C 22.113281 1.296875 22.066406 1.304688 22.042969 1.320312 C 21.875 1.433594 21.746094 1.570312 21.660156 1.726562 C 21.644531 1.757812 21.636719 1.777344 21.632812 1.792969 C 21.640625 1.761719 21.648438 1.71875 21.65625 1.664062 L 21.667969 1.589844 L 22.957031 -4.84375 L 30.964844 1.335938 L 31.042969 1.402344 C 30.980469 1.347656 30.917969 1.308594 30.851562 1.289062 C 30.867188 1.292969 30.917969 1.296875 31.003906 1.296875 L 45.105469 1.296875 C 47.804688 1.296875 49.695312 0.753906 50.785156 -0.335938 C 51.832031 -1.386719 52.308594 -3.144531 52.210938 -5.613281 L 50.035156 -43.6875 C 49.851562 -47.257812 49.261719 -49.953125 48.265625 -51.785156 C 47.242188 -53.65625 45.6875 -55.40625 43.601562 -57.027344 C 42.164062 -58.105469 40.710938 -58.953125 39.238281 -59.574219 C 37.925781 -60.125 36.21875 -60.398438 34.113281 -60.398438 L 4.664062 -60.398438 C 4.753906 -60.398438 4.867188 -60.421875 5.007812 -60.46875 C 5.300781 -60.566406 5.566406 -60.734375 5.804688 -60.972656 C 6.042969 -61.207031 6.210938 -61.472656 6.308594 -61.769531 C 6.355469 -61.910156 6.378906 -62.023438 6.378906 -62.109375 L 6.378906 -49.976562 C 6.378906 -50.109375 6.332031 -50.246094 6.246094 -50.398438 C 6.207031 -50.464844 6.164062 -50.519531 6.117188 -50.5625 L 6.132812 -50.558594 L 12.105469 -46.847656 L 11.441406 -44.425781 C 11.246094 -43.699219 11.046875 -42.917969 10.847656 -42.089844 C 10.664062 -41.328125 10.511719 -40.511719 10.386719 -39.644531 L 4.671875 -0.257812 L 4.652344 -0.167969 C 4.6875 -0.339844 4.648438 -0.550781 4.542969 -0.800781 C 4.433594 -1.050781 4.304688 -1.222656 4.152344 -1.316406 L 4.183594 -1.292969 L 8.089844 1.238281 C 8.148438 1.277344 8.25 1.296875 8.398438 1.296875 Z M 2.800781 -3.371094 L 19.183594 -3.371094 L 19.183594 0 L 15.84375 -0.445312 L 21.960938 -46.378906 C 22.242188 -48.535156 22.742188 -50.105469 23.464844 -51.089844 C 24.515625 -52.527344 26.0625 -53.246094 28.101562 -53.246094 L 28.515625 -53.246094 C 29.640625 -53.246094 30.648438 -53.019531 31.539062 -52.566406 C 32.566406 -52.039062 33.359375 -51.261719 33.914062 -50.234375 C 34.617188 -48.941406 35.007812 -47.027344 35.097656 -44.496094 L 36.648438 -15.839844 C 36.765625 -14.113281 36.496094 -12.722656 35.84375 -11.660156 C 34.910156 -10.144531 33.261719 -9.382812 30.898438 -9.382812 L 25.714844 -9.382812 L 25.714844 -12.753906 L 29.085938 -12.753906 L 29.085938 0 L 25.714844 0 L 25.714844 -3.371094 L 40.957031 -3.371094 C 43.277344 -3.371094 44.8125 -3.75 45.574219 -4.507812 C 46.289062 -5.226562 46.601562 -6.609375 46.507812 -8.660156 L 44.332031 -46.675781 C 44.097656 -51.695312 43.128906 -54.960938 41.417969 -56.476562 C 39.636719 -58.054688 37.203125 -58.84375 34.113281 -58.84375 L 4.5625 -58.84375 L 4.5625 -62.214844 L 7.933594 -62.214844 L 7.933594 -49.460938 L 4.5625 -49.460938 L 4.5625 -52.828125 L 19.78125 -52.828125 L 14.746094 -47.210938 C 13.402344 -45.710938 12.46875 -43.125 11.941406 -39.445312 L 6.132812 0.484375 L 2.800781 0 Z M -1.097656 3.371094 L 5.269531 -40.398438 C 5.988281 -45.425781 7.472656 -49.199219 9.726562 -51.710938 L 12.234375 -49.460938 L 12.234375 -46.089844 L 1.191406 -46.089844 L 1.191406 -65.582031 L 34.113281 -65.582031 C 38.90625 -65.582031 42.832031 -64.230469 45.886719 -61.523438 C 49.015625 -58.75 50.742188 -53.929688 51.0625 -47.058594 L 53.242188 -8.964844 C 53.425781 -4.933594 52.457031 -1.859375 50.339844 0.257812 C 48.265625 2.332031 45.136719 3.371094 40.957031 3.371094 L 22.34375 3.371094 L 22.34375 -16.125 L 30.898438 -16.125 C 31.035156 -16.125 31.148438 -16.128906 31.234375 -16.140625 C 31.25 -16.140625 31.261719 -16.144531 31.269531 -16.144531 C 31.253906 -16.140625 31.230469 -16.136719 31.207031 -16.128906 C 30.765625 -15.984375 30.398438 -15.671875 30.101562 -15.195312 C 29.996094 -15.019531 29.933594 -14.882812 29.921875 -14.789062 C 29.941406 -14.929688 29.941406 -15.160156 29.917969 -15.476562 L 28.359375 -44.261719 C 28.308594 -45.738281 28.1875 -46.660156 27.988281 -47.023438 C 28.09375 -46.828125 28.257812 -46.671875 28.472656 -46.5625 C 28.539062 -46.527344 28.59375 -46.507812 28.640625 -46.496094 C 28.617188 -46.503906 28.578125 -46.503906 28.515625 -46.503906 L 28.101562 -46.503906 C 28.0625 -46.503906 28.042969 -46.503906 28.035156 -46.503906 C 28.085938 -46.511719 28.144531 -46.527344 28.210938 -46.558594 C 28.484375 -46.667969 28.710938 -46.847656 28.898438 -47.105469 C 28.957031 -47.179688 28.992188 -47.242188 29.011719 -47.28125 C 28.984375 -47.222656 28.957031 -47.132812 28.921875 -47.011719 C 28.820312 -46.640625 28.722656 -46.132812 28.640625 -45.488281 L 22.132812 3.371094 Z M 27.269531 -17.679688 L 30.691406 -17.679688 C 29.984375 -17.679688 29.382812 -17.378906 28.878906 -16.777344 C 28.53125 -16.359375 28.359375 -15.953125 28.359375 -15.554688 L 31.730469 -15.554688 L 28.363281 -15.375 L 27.121094 -38.597656 L 30.484375 -38.78125 L 33.824219 -38.339844 L 30.613281 -13.871094 L 27.269531 -14.308594 Z M 23.429688 -10.9375 L 27.144531 -39.21875 L 33.851562 -38.960938 L 35.097656 -15.644531 L 35.097656 -15.554688 C 35.097656 -14.324219 34.753906 -13.296875 34.058594 -12.460938 C 33.210938 -11.445312 32.089844 -10.9375 30.691406 -10.9375 Z M 23.429688 -10.9375 "/></g></g><g style="fill:#ffe083;fill-opacity:1;"><g transform="translate(368.828785, 115.068588)"><path style="stroke:none" d="M 20.632812 8.035156 C 18.941406 8.035156 17.441406 7.617188 16.128906 6.785156 L 13.53125 5.121094 C 12.375 4.398438 11.589844 3.523438 11.179688 2.496094 C 10.953125 1.925781 10.78125 1.3125 10.671875 0.65625 L 10.652344 0.519531 L 7.210938 -41.164062 L 7.210938 -41.230469 C 7.128906 -43.148438 7.25 -44.960938 7.578125 -46.667969 L 10.886719 -46.039062 L 9.117188 -43.171875 L 3.414062 -46.695312 C 1.507812 -47.855469 0.0507812 -49.054688 -0.953125 -50.285156 C -1.707031 -51.210938 -2.25 -51.875 -2.589844 -52.28125 L -2.726562 -52.445312 L -2.84375 -52.628906 C -3.789062 -54.113281 -4.15625 -55.488281 -3.945312 -56.753906 C -3.792969 -57.679688 -3.390625 -58.597656 -2.742188 -59.507812 L -2.648438 -59.640625 L 5.3125 -68.765625 L 5.394531 -68.847656 C 6.796875 -70.25 8.347656 -70.78125 10.042969 -70.441406 C 11.433594 -70.164062 12.558594 -69.421875 13.421875 -68.214844 L 10.679688 -66.257812 L 13.296875 -68.382812 C 13.613281 -67.988281 13.898438 -67.6875 14.148438 -67.476562 C 14.226562 -67.40625 14.296875 -67.355469 14.351562 -67.320312 C 14.359375 -67.316406 14.367188 -67.3125 14.367188 -67.308594 C 14.355469 -67.316406 14.335938 -67.324219 14.316406 -67.332031 C 14.65625 -67.203125 15.277344 -67.140625 16.175781 -67.140625 L 36.5 -67.140625 C 38.257812 -67.140625 39.804688 -66.539062 41.136719 -65.339844 L 43.589844 -63.195312 L 41.371094 -60.65625 L 43.304688 -63.417969 C 44.953125 -62.265625 45.777344 -60.515625 45.777344 -58.167969 L 45.777344 -47.488281 C 45.777344 -45.683594 45.164062 -44.207031 43.929688 -43.054688 C 42.765625 -41.96875 41.359375 -41.421875 39.714844 -41.421875 L 37.222656 -41.421875 C 36.925781 -41.421875 36.730469 -41.40625 36.640625 -41.371094 C 36.839844 -41.449219 37.011719 -41.605469 37.164062 -41.84375 C 37.210938 -41.917969 37.238281 -41.96875 37.246094 -41.992188 C 37.21875 -41.902344 37.195312 -41.769531 37.175781 -41.597656 C 37.113281 -41.074219 37.109375 -40.382812 37.164062 -39.515625 L 40.480469 1.59375 C 40.621094 3.519531 40.144531 5.070312 39.050781 6.253906 C 37.949219 7.441406 36.441406 8.035156 34.527344 8.035156 Z M 20.632812 1.296875 L 34.527344 1.296875 C 34.601562 1.296875 34.65625 1.292969 34.699219 1.285156 C 34.695312 1.289062 34.679688 1.292969 34.652344 1.300781 C 34.457031 1.367188 34.273438 1.492188 34.105469 1.675781 C 33.933594 1.859375 33.824219 2.046875 33.773438 2.246094 C 33.765625 2.273438 33.765625 2.289062 33.761719 2.292969 C 33.765625 2.246094 33.765625 2.195312 33.761719 2.136719 L 30.441406 -39.082031 C 30.253906 -41.957031 30.601562 -44.082031 31.476562 -45.460938 C 32.625 -47.261719 34.539062 -48.164062 37.222656 -48.164062 L 39.714844 -48.164062 C 39.585938 -48.164062 39.460938 -48.105469 39.332031 -47.984375 C 39.21875 -47.878906 39.136719 -47.753906 39.078125 -47.613281 C 39.058594 -47.5625 39.046875 -47.519531 39.039062 -47.480469 L 39.039062 -58.167969 C 39.039062 -58.269531 39.035156 -58.351562 39.023438 -58.414062 C 39.019531 -58.421875 39.019531 -58.425781 39.019531 -58.429688 C 39.023438 -58.414062 39.03125 -58.398438 39.039062 -58.375 C 39.117188 -58.1875 39.25 -58.03125 39.4375 -57.898438 L 39.289062 -58 L 36.628906 -60.332031 C 36.578125 -60.375 36.535156 -60.398438 36.5 -60.398438 L 16.175781 -60.398438 C 14.449219 -60.398438 13.027344 -60.609375 11.917969 -61.035156 C 10.628906 -61.527344 9.34375 -62.558594 8.0625 -64.132812 L 7.9375 -64.296875 C 8.109375 -64.058594 8.371094 -63.90625 8.722656 -63.835938 C 9.136719 -63.75 9.53125 -63.785156 9.898438 -63.941406 C 10.035156 -64 10.125 -64.046875 10.160156 -64.082031 L 7.777344 -66.464844 L 10.316406 -64.25 L 2.539062 -55.332031 L 0 -57.546875 L 2.742188 -55.589844 C 2.691406 -55.519531 2.660156 -55.46875 2.644531 -55.433594 C 2.667969 -55.484375 2.6875 -55.554688 2.703125 -55.644531 C 2.761719 -56.007812 2.75 -56.316406 2.660156 -56.570312 C 2.679688 -56.515625 2.738281 -56.410156 2.84375 -56.246094 L 0 -54.4375 L 2.589844 -56.59375 C 2.941406 -56.171875 3.503906 -55.488281 4.273438 -54.542969 C 4.789062 -53.910156 5.683594 -53.207031 6.957031 -52.429688 L 14.632812 -47.683594 L 14.199219 -45.40625 C 13.96875 -44.210938 13.886719 -42.914062 13.945312 -41.511719 L 10.578125 -41.371094 L 13.933594 -41.648438 L 17.355469 -0.171875 L 13.996094 0.105469 L 17.320312 -0.449219 C 17.351562 -0.273438 17.390625 -0.128906 17.4375 -0.0078125 C 17.335938 -0.261719 17.207031 -0.46875 17.054688 -0.621094 C 17.039062 -0.636719 17.027344 -0.648438 17.023438 -0.648438 C 17.050781 -0.628906 17.097656 -0.597656 17.164062 -0.558594 L 19.746094 1.097656 C 19.957031 1.230469 20.25 1.296875 20.632812 1.296875 Z M 15.449219 -3.371094 L 31.523438 -3.371094 L 31.523438 0 L 28.164062 0.273438 L 24.742188 -42.035156 C 24.464844 -45.503906 24.976562 -48.113281 26.273438 -49.859375 C 27.742188 -51.839844 30.011719 -52.828125 33.078125 -52.828125 L 36.707031 -52.828125 L 36.707031 -49.460938 L 33.335938 -49.460938 L 33.335938 -62.214844 L 36.707031 -62.214844 L 36.707031 -58.84375 L 16.175781 -58.84375 C 13.707031 -58.84375 11.761719 -59.253906 10.34375 -60.070312 C 9.039062 -60.824219 7.761719 -62.046875 6.515625 -63.738281 L 9.226562 -65.738281 L 11.769531 -63.527344 L 3.371094 -53.882812 L 0.828125 -56.097656 L 3.734375 -57.804688 C 4.753906 -56.074219 6.09375 -54.835938 7.753906 -54.089844 C 9.632812 -53.25 11.714844 -52.828125 13.996094 -52.828125 L 23.453125 -52.828125 L 16.863281 -46.945312 C 15.757812 -45.957031 15.300781 -44.21875 15.492188 -41.734375 L 18.808594 -0.269531 L 15.449219 0 Z M 12.339844 3.371094 L 8.773438 -41.21875 C 8.410156 -45.917969 9.609375 -49.503906 12.375 -51.972656 L 14.621094 -49.460938 L 14.621094 -46.089844 L 13.996094 -46.089844 C 10.753906 -46.089844 7.753906 -46.707031 5 -47.9375 C 2.027344 -49.269531 -0.328125 -51.417969 -2.074219 -54.386719 L -3.304688 -56.480469 L 9.449219 -71.121094 L 11.941406 -67.738281 C 12.628906 -66.804688 13.21875 -66.195312 13.710938 -65.910156 C 14.089844 -65.691406 14.910156 -65.582031 16.175781 -65.582031 L 40.074219 -65.582031 L 40.074219 -46.089844 L 33.078125 -46.089844 C 32.535156 -46.089844 32.121094 -46.035156 31.832031 -45.921875 C 31.75 -45.886719 31.703125 -45.863281 31.6875 -45.84375 C 31.617188 -45.75 31.554688 -45.515625 31.492188 -45.132812 C 31.386719 -44.472656 31.375 -43.621094 31.457031 -42.578125 L 35.175781 3.371094 Z M 12.339844 3.371094 "/></g></g><g style="fill:#ffe083;fill-opacity:1;"><g transform="translate(408.33323, 115.068588)"><path style="stroke:none" d=""/></g></g><g style="fill:#ffe083;fill-opacity:1;"><g transform="translate(429.588925, 115.068588)"><path style="stroke:none" d="M 25.300781 8.035156 C 24.628906 8.035156 23.996094 7.984375 23.398438 7.886719 C 22.441406 7.726562 21.46875 7.277344 20.476562 6.53125 L 22.5 3.835938 L 20.609375 6.625 L 17.703125 4.65625 C 15.820312 3.351562 14.878906 1.660156 14.878906 -0.414062 L 14.878906 -44.792969 L 18.25 -44.792969 L 18.25 -41.421875 L 6.222656 -41.421875 C 5.25 -41.421875 4.355469 -41.609375 3.53125 -41.984375 C 3.035156 -42.210938 2.558594 -42.460938 2.101562 -42.734375 L 1.992188 -42.800781 L -0.601562 -44.636719 C -2.515625 -46.003906 -3.472656 -47.714844 -3.472656 -49.769531 L -3.472656 -62.109375 C -3.472656 -63.59375 -3.007812 -64.800781 -2.070312 -65.738281 C -1.136719 -66.671875 0.0703125 -67.140625 1.554688 -67.140625 L 25.402344 -67.140625 C 28.277344 -67.140625 30.777344 -66.765625 32.902344 -66.011719 C 35.039062 -65.257812 36.847656 -64.273438 38.328125 -63.050781 L 36.1875 -60.449219 L 38.242188 -63.121094 C 40.433594 -61.4375 42.09375 -59.507812 43.222656 -57.339844 C 44.375 -55.125 44.949219 -52.222656 44.949219 -48.628906 L 44.949219 1.96875 C 44.949219 3.660156 44.359375 5.09375 43.183594 6.269531 C 42.007812 7.449219 40.574219 8.035156 38.882812 8.035156 Z M 25.300781 1.296875 L 38.882812 1.296875 C 38.714844 1.296875 38.558594 1.367188 38.417969 1.503906 C 38.277344 1.644531 38.210938 1.800781 38.210938 1.96875 L 38.210938 -48.628906 C 38.210938 -51.121094 37.886719 -52.988281 37.242188 -54.230469 C 36.570312 -55.515625 35.535156 -56.699219 34.132812 -57.78125 L 34.089844 -57.8125 L 34.046875 -57.847656 C 33.175781 -58.566406 32.046875 -59.167969 30.660156 -59.65625 C 29.257812 -60.152344 27.507812 -60.398438 25.402344 -60.398438 L 1.554688 -60.398438 C 1.644531 -60.398438 1.757812 -60.421875 1.894531 -60.46875 C 2.191406 -60.566406 2.457031 -60.734375 2.695312 -60.972656 C 2.929688 -61.207031 3.097656 -61.472656 3.195312 -61.769531 C 3.242188 -61.910156 3.265625 -62.023438 3.265625 -62.109375 L 3.265625 -49.769531 C 3.265625 -49.953125 3.222656 -50.113281 3.136719 -50.253906 C 3.128906 -50.269531 3.121094 -50.28125 3.113281 -50.289062 C 3.113281 -50.289062 3.117188 -50.285156 3.125 -50.277344 C 3.164062 -50.234375 3.222656 -50.1875 3.296875 -50.136719 L 5.785156 -48.375 L 3.835938 -45.625 L 5.570312 -48.511719 C 5.804688 -48.371094 6.054688 -48.242188 6.320312 -48.121094 C 6.273438 -48.140625 6.234375 -48.15625 6.195312 -48.164062 C 6.1875 -48.164062 6.1875 -48.164062 6.183594 -48.164062 C 6.195312 -48.164062 6.207031 -48.164062 6.222656 -48.164062 L 21.621094 -48.164062 L 21.621094 -0.414062 C 21.621094 -0.578125 21.574219 -0.738281 21.488281 -0.886719 C 21.460938 -0.925781 21.441406 -0.957031 21.421875 -0.980469 C 21.4375 -0.960938 21.460938 -0.941406 21.488281 -0.921875 L 24.457031 1.09375 L 24.523438 1.140625 C 24.636719 1.226562 24.722656 1.285156 24.785156 1.316406 C 24.726562 1.285156 24.632812 1.257812 24.507812 1.238281 C 24.738281 1.277344 25.003906 1.296875 25.300781 1.296875 Z M 19.804688 -3.371094 L 35.875 -3.371094 L 35.875 0 L 32.507812 0 L 32.507812 -51.742188 C 32.507812 -54.625 32.050781 -56.535156 31.132812 -57.472656 C 30.238281 -58.386719 28.328125 -58.84375 25.402344 -58.84375 L 1.453125 -58.84375 L 1.453125 -62.214844 L 4.820312 -62.214844 L 4.820312 -49.460938 L 1.453125 -49.460938 L 1.453125 -52.828125 L 16.070312 -52.828125 C 18.246094 -52.828125 19.972656 -52.191406 21.253906 -50.910156 C 22.535156 -49.628906 23.175781 -47.902344 23.175781 -45.726562 L 23.175781 0 L 19.804688 0 Z M 16.433594 3.371094 L 16.433594 -45.726562 C 16.433594 -45.984375 16.414062 -46.171875 16.375 -46.292969 C 16.386719 -46.257812 16.425781 -46.207031 16.488281 -46.144531 C 16.550781 -46.078125 16.601562 -46.042969 16.640625 -46.027344 C 16.519531 -46.070312 16.328125 -46.089844 16.070312 -46.089844 L -1.917969 -46.089844 L -1.917969 -65.582031 L 25.402344 -65.582031 C 30.21875 -65.582031 33.734375 -64.449219 35.953125 -62.183594 C 38.148438 -59.941406 39.246094 -56.460938 39.246094 -51.742188 L 39.246094 3.371094 Z M 16.433594 3.371094 "/></g></g><g style="fill:#ffe083;fill-opacity:1;"><g transform="translate(471.167079, 115.068588)"><path style="stroke:none" d="M 15.242188 -18.300781 C 14.117188 -18.300781 13.183594 -18.449219 12.433594 -18.75 C 11.871094 -18.972656 11.285156 -19.289062 10.675781 -19.695312 L 12.546875 -22.5 L 10.8125 -19.609375 L 7.183594 -21.789062 C 5.988281 -22.535156 5.167969 -23.445312 4.71875 -24.523438 C 4.371094 -25.351562 4.199219 -26.269531 4.199219 -27.269531 L 4.199219 -44.585938 L 7.570312 -44.585938 L 5.816406 -41.707031 L 1.046875 -44.609375 C -0.265625 -45.398438 -1.148438 -46.339844 -1.605469 -47.4375 C -1.953125 -48.265625 -2.125 -49.148438 -2.125 -50.082031 L -2.125 -62.109375 C -2.125 -63.59375 -1.660156 -64.800781 -0.722656 -65.738281 C 0.210938 -66.671875 1.417969 -67.140625 2.902344 -67.140625 L 17.003906 -67.140625 C 21.992188 -67.140625 25.921875 -65.75 28.785156 -62.976562 C 30.128906 -61.710938 31.304688 -60.3125 32.316406 -58.777344 C 33.546875 -56.902344 34.164062 -54.316406 34.164062 -51.015625 L 34.164062 -24.367188 C 34.164062 -22.675781 33.578125 -21.242188 32.402344 -20.066406 C 31.222656 -18.890625 29.789062 -18.300781 28.101562 -18.300781 Z M 15.242188 -25.042969 L 28.101562 -25.042969 C 27.929688 -25.042969 27.773438 -24.972656 27.636719 -24.832031 C 27.496094 -24.691406 27.425781 -24.539062 27.425781 -24.367188 L 27.425781 -51.015625 C 27.425781 -52.96875 27.179688 -54.320312 26.683594 -55.074219 C 25.964844 -56.167969 25.101562 -57.1875 24.097656 -58.132812 C 22.539062 -59.644531 20.171875 -60.398438 17.003906 -60.398438 L 2.902344 -60.398438 C 2.992188 -60.398438 3.105469 -60.421875 3.242188 -60.46875 C 3.539062 -60.566406 3.804688 -60.734375 4.042969 -60.972656 C 4.277344 -61.207031 4.445312 -61.472656 4.546875 -61.769531 C 4.589844 -61.910156 4.613281 -62.023438 4.613281 -62.109375 L 4.613281 -50.082031 C 4.613281 -50.054688 4.617188 -50.03125 4.617188 -50.019531 C 4.617188 -50.019531 4.617188 -50.023438 4.613281 -50.03125 C 4.519531 -50.253906 4.414062 -50.425781 4.289062 -50.542969 C 4.324219 -50.511719 4.410156 -50.453125 4.550781 -50.367188 L 10.9375 -46.480469 L 10.9375 -27.269531 C 10.9375 -27.191406 10.945312 -27.132812 10.953125 -27.085938 C 10.953125 -27.085938 10.949219 -27.09375 10.9375 -27.113281 C 10.867188 -27.292969 10.773438 -27.4375 10.667969 -27.550781 C 10.652344 -27.566406 10.640625 -27.578125 10.632812 -27.585938 C 10.648438 -27.570312 10.652344 -27.566406 10.652344 -27.566406 L 14.347656 -25.347656 L 14.414062 -25.304688 C 14.636719 -25.15625 14.808594 -25.058594 14.9375 -25.007812 C 14.875 -25.035156 14.816406 -25.050781 14.765625 -25.066406 L 14.78125 -25.0625 C 14.890625 -25.046875 15.046875 -25.042969 15.242188 -25.042969 Z M 9.125 -29.707031 L 25.09375 -29.707031 L 25.09375 -26.335938 L 21.722656 -26.335938 L 21.722656 -54.125 C 21.722656 -55.292969 21.617188 -56.246094 21.402344 -56.988281 C 21.261719 -57.476562 21.089844 -57.820312 20.894531 -58.015625 C 20.699219 -58.210938 20.355469 -58.378906 19.867188 -58.523438 C 19.125 -58.738281 18.171875 -58.84375 17.003906 -58.84375 L 2.800781 -58.84375 L 2.800781 -62.214844 L 6.167969 -62.214844 L 6.167969 -49.460938 L 2.800781 -49.460938 L 2.800781 -52.828125 L 6.738281 -52.828125 C 8.5625 -52.828125 9.949219 -52.40625 10.898438 -51.5625 C 11.960938 -50.617188 12.496094 -49.15625 12.496094 -47.179688 L 12.496094 -26.335938 L 9.125 -26.335938 Z M 5.753906 -22.96875 L 5.753906 -47.179688 C 5.753906 -47.386719 5.75 -47.511719 5.738281 -47.554688 C 5.828125 -47.191406 6.054688 -46.847656 6.417969 -46.527344 C 6.703125 -46.273438 6.976562 -46.117188 7.234375 -46.0625 C 7.148438 -46.082031 6.984375 -46.089844 6.738281 -46.089844 L -0.570312 -46.089844 L -0.570312 -65.582031 L 17.003906 -65.582031 C 20.90625 -65.582031 23.792969 -64.648438 25.660156 -62.78125 C 27.527344 -60.914062 28.460938 -58.027344 28.460938 -54.125 L 28.460938 -22.96875 Z M 5.753906 -22.96875 "/></g></g><g style="fill:#ffe083;fill-opacity:1;"><g transform="translate(501.339777, 115.068588)"><path style="stroke:none" d="M 7.984375 8.035156 C 6.378906 8.035156 4.9375 7.589844 3.667969 6.699219 L 5.597656 3.941406 L 3.804688 6.792969 L 0.175781 4.511719 C -0.71875 3.941406 -1.402344 3.210938 -1.871094 2.316406 C -2.316406 1.460938 -2.539062 0.519531 -2.539062 -0.519531 L -2.539062 -12.648438 C -2.539062 -14.132812 -2.074219 -15.34375 -1.140625 -16.277344 C -0.203125 -17.210938 1.003906 -17.679688 2.488281 -17.679688 L 26.234375 -17.679688 C 26.035156 -17.679688 25.8125 -17.632812 25.570312 -17.542969 C 25.027344 -17.339844 24.589844 -16.988281 24.257812 -16.488281 C 23.996094 -16.09375 23.839844 -15.6875 23.789062 -15.261719 C 23.777344 -15.175781 23.773438 -15.121094 23.773438 -15.089844 C 23.765625 -15.269531 23.722656 -15.5625 23.648438 -15.96875 L 26.960938 -16.589844 L 23.699219 -15.734375 L 23.179688 -17.703125 L 26.441406 -18.558594 L 24.535156 -15.78125 L 8.320312 -26.902344 L 8.28125 -26.929688 C 7.097656 -27.792969 6.171875 -28.855469 5.515625 -30.117188 C 4.984375 -31.132812 4.550781 -32.28125 4.210938 -33.554688 L 4.199219 -33.59375 L -2.445312 -61.003906 C -2.632812 -61.835938 -2.644531 -62.613281 -2.492188 -63.335938 C -2.300781 -64.226562 -1.882812 -64.992188 -1.242188 -65.632812 C -0.238281 -66.636719 0.96875 -67.140625 2.386719 -67.140625 L 17.730469 -67.140625 C 18.613281 -67.140625 19.386719 -67.039062 20.046875 -66.839844 C 20.847656 -66.601562 21.671875 -66.117188 22.515625 -65.394531 L 25.25 -62.976562 L 23.019531 -60.449219 L 25.175781 -63.039062 C 26.59375 -61.859375 27.523438 -60.269531 27.96875 -58.277344 L 29.09375 -53.683594 L 25.820312 -52.882812 L 22.550781 -53.707031 L 24.9375 -63.144531 L 28.203125 -62.316406 L 24.90625 -63.023438 C 25.195312 -64.371094 25.875 -65.417969 26.945312 -66.167969 C 27.871094 -66.816406 28.980469 -67.140625 30.277344 -67.140625 L 45.726562 -67.140625 C 46.929688 -67.140625 47.945312 -66.910156 48.761719 -66.457031 C 49.347656 -66.128906 49.996094 -65.613281 50.703125 -64.90625 L 53.550781 -62.164062 L 53.636719 -62.066406 C 54.964844 -60.574219 55.359375 -58.671875 54.8125 -56.359375 L 54.804688 -56.324219 L 47.332031 -27.460938 L 44.066406 -28.308594 L 46.148438 -30.960938 C 49.347656 -28.449219 51.308594 -25.480469 52.03125 -22.054688 L 54.832031 -8.785156 C 55.792969 -3.972656 55.089844 0.0078125 52.726562 3.164062 C 50.289062 6.410156 46.609375 8.035156 41.683594 8.035156 Z M 7.984375 1.296875 L 41.683594 1.296875 C 44.363281 1.296875 46.246094 0.570312 47.332031 -0.882812 C 48.492188 -2.429688 48.792969 -4.597656 48.234375 -7.390625 L 45.4375 -20.664062 C 45.050781 -22.492188 43.902344 -24.15625 41.988281 -25.65625 L 40.253906 -27.015625 L 48.269531 -57.976562 L 51.535156 -57.132812 L 48.253906 -57.90625 C 48.28125 -58.019531 48.296875 -58.113281 48.300781 -58.1875 L 48.304688 -58.175781 C 48.339844 -57.96875 48.4375 -57.773438 48.601562 -57.589844 L 51.117188 -59.828125 L 48.78125 -57.402344 L 45.9375 -60.140625 C 45.769531 -60.308594 45.628906 -60.4375 45.511719 -60.535156 C 45.476562 -60.5625 45.449219 -60.585938 45.429688 -60.597656 C 45.441406 -60.589844 45.460938 -60.578125 45.488281 -60.5625 C 45.65625 -60.472656 45.800781 -60.414062 45.929688 -60.390625 C 45.898438 -60.394531 45.832031 -60.398438 45.726562 -60.398438 L 30.277344 -60.398438 C 30.257812 -60.398438 30.246094 -60.398438 30.242188 -60.398438 C 30.265625 -60.402344 30.296875 -60.40625 30.332031 -60.414062 C 30.492188 -60.457031 30.652344 -60.535156 30.808594 -60.644531 C 31.1875 -60.910156 31.417969 -61.230469 31.5 -61.609375 L 31.484375 -61.550781 L 29.085938 -52.054688 L 22.542969 -52.082031 L 21.386719 -56.816406 C 21.277344 -57.3125 21.101562 -57.660156 20.863281 -57.863281 L 20.824219 -57.894531 L 18.128906 -60.277344 C 18.015625 -60.375 17.925781 -60.441406 17.863281 -60.484375 C 17.910156 -60.453125 17.992188 -60.421875 18.109375 -60.386719 L 18.097656 -60.382812 C 18 -60.394531 17.878906 -60.398438 17.730469 -60.398438 L 2.386719 -60.398438 C 2.832031 -60.398438 3.210938 -60.554688 3.523438 -60.867188 C 3.820312 -61.164062 4.011719 -61.515625 4.097656 -61.921875 C 4.148438 -62.160156 4.152344 -62.382812 4.105469 -62.59375 L 10.742188 -35.21875 L 7.464844 -34.425781 L 10.722656 -35.292969 C 10.933594 -34.496094 11.191406 -33.8125 11.492188 -33.234375 C 11.660156 -32.910156 11.914062 -32.625 12.246094 -32.378906 L 10.265625 -29.65625 L 12.171875 -32.433594 L 29.378906 -20.628906 L 30.25 -17.332031 L 30.273438 -17.210938 C 30.402344 -16.511719 30.480469 -15.921875 30.507812 -15.445312 C 30.5625 -14.371094 30.347656 -13.472656 29.867188 -12.75 C 29.0625 -11.542969 27.851562 -10.9375 26.234375 -10.9375 L 2.488281 -10.9375 C 2.578125 -10.9375 2.691406 -10.960938 2.828125 -11.007812 C 3.125 -11.105469 3.390625 -11.273438 3.628906 -11.511719 C 3.863281 -11.75 4.03125 -12.015625 4.128906 -12.308594 C 4.175781 -12.449219 4.199219 -12.5625 4.199219 -12.648438 L 4.199219 -0.519531 C 4.199219 -0.585938 4.167969 -0.683594 4.101562 -0.8125 C 4.011719 -0.980469 3.898438 -1.109375 3.761719 -1.195312 L 7.464844 1.132812 L 7.53125 1.179688 C 7.644531 1.257812 7.792969 1.296875 7.984375 1.296875 Z M 2.386719 -3.371094 L 37.535156 -3.371094 C 39.800781 -3.371094 41.289062 -3.898438 42.003906 -4.949219 C 42.847656 -6.191406 43.023438 -7.933594 42.539062 -10.171875 L 39.722656 -23.523438 L 39.710938 -23.582031 C 39.550781 -24.496094 39.261719 -25.167969 38.839844 -25.605469 C 38.226562 -26.242188 37.449219 -26.785156 36.507812 -27.230469 L 33.988281 -28.425781 L 42.984375 -63.0625 L 46.246094 -62.214844 L 46.246094 -58.84375 L 29.757812 -58.84375 L 29.757812 -62.214844 L 33.03125 -61.40625 L 27.429688 -38.699219 L 20.886719 -38.699219 L 15.289062 -61.40625 L 18.558594 -62.214844 L 18.558594 -58.84375 L 2.28125 -58.84375 L 2.28125 -62.214844 L 5.554688 -63.019531 L 12.292969 -35.644531 C 12.507812 -34.738281 12.753906 -34.132812 13.023438 -33.835938 C 13.359375 -33.460938 13.933594 -33.09375 14.746094 -32.734375 L 14.789062 -32.714844 L 25.621094 -27.507812 C 27.050781 -26.839844 28.214844 -26.007812 29.109375 -25.007812 C 30.121094 -23.875 30.789062 -22.402344 31.109375 -20.597656 L 27.789062 -20.011719 L 31.070312 -20.777344 L 31.808594 -17.613281 L 31.820312 -17.5625 C 32.039062 -16.464844 32.144531 -15.511719 32.128906 -14.710938 C 32.109375 -13.433594 31.792969 -12.375 31.179688 -11.539062 C 30.125 -10.101562 28.546875 -9.382812 26.441406 -9.382812 L 2.386719 -9.382812 L 2.386719 -12.753906 L 5.753906 -12.753906 L 5.753906 0 L 2.386719 0 Z M -0.984375 3.371094 L -0.984375 -16.125 L 26.441406 -16.125 C 26.507812 -16.125 26.554688 -16.125 26.585938 -16.132812 C 26.554688 -16.125 26.515625 -16.113281 26.460938 -16.09375 C 26.183594 -15.988281 25.945312 -15.796875 25.746094 -15.523438 C 25.574219 -15.292969 25.460938 -15.058594 25.40625 -14.828125 L 25.390625 -14.816406 C 25.394531 -15.136719 25.335938 -15.613281 25.210938 -16.242188 L 28.515625 -16.902344 L 25.234375 -16.136719 L 24.484375 -19.335938 L 24.46875 -19.425781 C 24.375 -19.972656 24.246094 -20.332031 24.085938 -20.511719 C 23.804688 -20.828125 23.34375 -21.132812 22.699219 -21.433594 L 11.914062 -26.617188 L 13.375 -29.65625 L 12.007812 -26.574219 C 10.328125 -27.320312 9 -28.234375 8.027344 -29.3125 C 6.984375 -30.464844 6.222656 -32.039062 5.75 -34.035156 L -2.019531 -65.582031 L 21.199219 -65.582031 L 27.429688 -40.3125 L 24.160156 -39.503906 L 20.886719 -40.3125 L 27.117188 -65.582031 L 50.601562 -65.582031 L 41.210938 -29.429688 L 37.949219 -30.277344 L 39.394531 -33.324219 C 41.078125 -32.523438 42.511719 -31.511719 43.695312 -30.28125 C 45.070312 -28.851562 45.957031 -27.003906 46.351562 -24.738281 L 43.03125 -24.160156 L 46.328125 -24.855469 L 49.125 -11.601562 C 50.019531 -7.484375 49.507812 -4.003906 47.582031 -1.167969 C 45.53125 1.859375 42.183594 3.371094 37.535156 3.371094 Z M -0.984375 3.371094 "/></g></g><g style="fill:#ff8ca1;fill-opacity:1;"><g transform="translate(64.198587, 115.068588)"><path style="stroke:none" d="M 15.234375 -21.671875 C 14.546875 -21.671875 14.03125 -21.738281 13.6875 -21.875 C 13.34375 -22.007812 12.960938 -22.21875 12.546875 -22.5 L 8.921875 -24.671875 C 8.367188 -25.023438 8.003906 -25.40625 7.828125 -25.8125 C 7.648438 -26.226562 7.5625 -26.710938 7.5625 -27.265625 L 7.5625 -44.578125 L 2.796875 -47.484375 C 2.109375 -47.898438 1.675781 -48.316406 1.5 -48.734375 C 1.332031 -49.148438 1.25 -49.597656 1.25 -50.078125 L 1.25 -62.109375 C 1.25 -63.210938 1.800781 -63.765625 2.90625 -63.765625 L 17 -63.765625 C 21.082031 -63.765625 24.226562 -62.691406 26.4375 -60.546875 C 27.613281 -59.441406 28.632812 -58.234375 29.5 -56.921875 C 30.363281 -55.609375 30.796875 -53.640625 30.796875 -51.015625 L 30.796875 -24.359375 C 30.796875 -23.597656 30.535156 -22.957031 30.015625 -22.4375 C 29.492188 -21.925781 28.851562 -21.671875 28.09375 -21.671875 Z M 9.125 -26.34375 L 25.09375 -26.34375 L 25.09375 -54.125 C 25.09375 -57.09375 24.488281 -59.179688 23.28125 -60.390625 C 22.070312 -61.609375 19.976562 -62.21875 17 -62.21875 L 2.796875 -62.21875 L 2.796875 -49.453125 L 6.734375 -49.453125 C 7.703125 -49.453125 8.34375 -49.3125 8.65625 -49.03125 C 8.96875 -48.757812 9.125 -48.140625 9.125 -47.171875 Z M 9.125 -26.34375 "/></g></g><g style="fill:#ff8ca1;fill-opacity:1;"><g transform="translate(94.371284, 115.068588)"><path style="stroke:none" d="M 25.296875 4.671875 C 24.816406 4.671875 24.367188 4.632812 23.953125 4.5625 C 23.535156 4.488281 23.050781 4.25 22.5 3.84375 L 19.59375 1.859375 C 18.695312 1.242188 18.25 0.484375 18.25 -0.421875 L 18.25 -44.796875 L 6.21875 -44.796875 C 5.738281 -44.796875 5.304688 -44.878906 4.921875 -45.046875 C 4.546875 -45.222656 4.1875 -45.414062 3.84375 -45.625 L 1.34375 -47.390625 C 0.375 -48.078125 -0.109375 -48.867188 -0.109375 -49.765625 L -0.109375 -62.109375 C -0.109375 -63.210938 0.445312 -63.765625 1.5625 -63.765625 L 25.40625 -63.765625 C 27.894531 -63.765625 30.019531 -63.453125 31.78125 -62.828125 C 33.539062 -62.210938 35.007812 -61.421875 36.1875 -60.453125 C 37.988281 -59.066406 39.335938 -57.507812 40.234375 -55.78125 C 41.128906 -54.050781 41.578125 -51.664062 41.578125 -48.625 L 41.578125 1.96875 C 41.578125 2.726562 41.316406 3.367188 40.796875 3.890625 C 40.273438 4.410156 39.640625 4.671875 38.890625 4.671875 Z M 19.796875 0 L 35.875 0 L 35.875 -51.734375 C 35.875 -55.535156 35.09375 -58.234375 33.53125 -59.828125 C 31.976562 -61.421875 29.269531 -62.21875 25.40625 -62.21875 L 1.453125 -62.21875 L 1.453125 -49.453125 L 16.078125 -49.453125 C 18.554688 -49.453125 19.796875 -48.207031 19.796875 -45.71875 Z M 19.796875 0 "/></g></g><g style="fill:#ff8ca1;fill-opacity:1;"><g transform="translate(135.949462, 115.068588)"><path style="stroke:none" d="M 14.3125 4.671875 C 13.414062 4.671875 12.550781 4.394531 11.71875 3.84375 L 8.8125 1.859375 C 8.332031 1.515625 8.019531 1.148438 7.875 0.765625 C 7.738281 0.390625 7.671875 -0.00390625 7.671875 -0.421875 L 7.671875 -44.6875 L 2.390625 -48.734375 C 1.835938 -49.210938 1.5625 -49.832031 1.5625 -50.59375 L 1.5625 -62.109375 C 1.5625 -63.210938 2.113281 -63.765625 3.21875 -63.765625 L 18.359375 -63.765625 C 20.285156 -63.765625 21.90625 -63.488281 23.21875 -62.9375 C 24.539062 -62.382812 25.71875 -61.726562 26.75 -60.96875 C 28.132812 -59.925781 29.1875 -58.785156 29.90625 -57.546875 C 30.632812 -56.304688 31 -54.546875 31 -52.265625 L 31 1.96875 C 31 3.007812 30.738281 3.71875 30.21875 4.09375 C 29.707031 4.476562 29.070312 4.671875 28.3125 4.671875 Z M 9.234375 0 L 25.296875 0 L 25.296875 -55.375 C 25.296875 -57.863281 24.773438 -59.625 23.734375 -60.65625 C 22.703125 -61.695312 20.910156 -62.21875 18.359375 -62.21875 L 3.109375 -62.21875 L 3.109375 -49.453125 L 6.84375 -49.453125 C 7.8125 -49.453125 8.453125 -49.3125 8.765625 -49.03125 C 9.078125 -48.757812 9.234375 -48.140625 9.234375 -47.171875 Z M 9.234375 0 "/></g></g><g style="fill:#ff8ca1;fill-opacity:1;"><g transform="translate(166.951652, 115.068588)"><path style="stroke:none" d="M 24.46875 4.671875 C 23.5 4.671875 22.738281 4.460938 22.1875 4.046875 L 18.765625 1.65625 C 18.003906 1.101562 17.625 0.34375 17.625 -0.625 L 17.625 -42.828125 C 17.625 -43.171875 17.625 -43.515625 17.625 -43.859375 C 17.625 -44.203125 17.660156 -44.515625 17.734375 -44.796875 L 6.734375 -44.796875 C 5.972656 -44.796875 5.210938 -45.035156 4.453125 -45.515625 L 0.9375 -48 C 0.445312 -48.351562 0.148438 -48.703125 0.046875 -49.046875 C -0.0546875 -49.390625 -0.109375 -49.800781 -0.109375 -50.28125 L -0.109375 -62.109375 C -0.109375 -63.210938 0.445312 -63.765625 1.5625 -63.765625 L 38.890625 -63.765625 C 39.710938 -63.765625 40.398438 -63.523438 40.953125 -63.046875 L 44.28125 -60.140625 C 44.96875 -59.515625 45.3125 -58.820312 45.3125 -58.0625 L 45.3125 -47.484375 C 45.3125 -46.722656 45.066406 -46.082031 44.578125 -45.5625 C 44.097656 -45.050781 43.476562 -44.796875 42.71875 -44.796875 L 41.6875 -44.796875 C 41.0625 -44.796875 40.625 -44.640625 40.375 -44.328125 C 40.132812 -44.015625 40.015625 -43.269531 40.015625 -42.09375 L 40.015625 1.96875 C 40.015625 2.726562 39.753906 3.367188 39.234375 3.890625 C 38.722656 4.410156 38.085938 4.671875 37.328125 4.671875 Z M 19.1875 0 L 34.328125 0 L 34.328125 -45.203125 C 34.328125 -48.035156 35.394531 -49.453125 37.53125 -49.453125 L 39.609375 -49.453125 L 39.609375 -62.21875 L 1.453125 -62.21875 L 1.453125 -49.453125 L 20.53125 -49.453125 C 19.632812 -47.929688 19.1875 -45.722656 19.1875 -42.828125 Z M 19.1875 0 "/></g></g><g style="fill:#ff8ca1;fill-opacity:1;"><g transform="translate(209.359322, 115.068588)"><path style="stroke:none" d="M 8.40625 4.671875 C 7.570312 4.671875 6.84375 4.460938 6.21875 4.046875 L 2.390625 1.5625 C 1.484375 1 1.132812 0.203125 1.34375 -0.828125 L 7.046875 -40.125 C 7.191406 -41.09375 7.363281 -42.007812 7.5625 -42.875 C 7.769531 -43.738281 7.976562 -44.550781 8.1875 -45.3125 L 4.359375 -47.703125 C 3.453125 -48.253906 3 -49.015625 3 -49.984375 L 3 -62.109375 C 3 -63.210938 3.554688 -63.765625 4.671875 -63.765625 L 34.109375 -63.765625 C 36.671875 -63.765625 38.816406 -63.398438 40.546875 -62.671875 C 42.273438 -61.953125 43.96875 -60.96875 45.625 -59.71875 C 48.113281 -57.789062 49.976562 -55.6875 51.21875 -53.40625 C 52.46875 -51.125 53.195312 -47.941406 53.40625 -43.859375 L 55.578125 -5.8125 C 55.847656 1.175781 52.359375 4.671875 45.109375 4.671875 L 31 4.671875 C 30.101562 4.671875 29.378906 4.425781 28.828125 3.9375 L 25.203125 1.140625 L 24.984375 2.171875 C 24.847656 3.078125 24.503906 3.71875 23.953125 4.09375 C 23.398438 4.476562 22.8125 4.671875 22.1875 4.671875 Z M 2.796875 0 L 19.1875 0 L 25.296875 -45.9375 C 25.503906 -47.519531 25.796875 -48.570312 26.171875 -49.09375 C 26.554688 -49.613281 27.195312 -49.875 28.09375 -49.875 L 28.515625 -49.875 C 29.691406 -49.875 30.503906 -49.457031 30.953125 -48.625 C 31.398438 -47.800781 31.660156 -46.382812 31.734375 -44.375 L 33.28125 -15.65625 C 33.351562 -14.613281 33.25 -13.867188 32.96875 -13.421875 C 32.695312 -12.972656 32.007812 -12.75 30.90625 -12.75 L 25.71875 -12.75 L 25.71875 0 L 40.953125 0 C 44.203125 0 46.535156 -0.707031 47.953125 -2.125 C 49.367188 -3.539062 50.007812 -5.769531 49.875 -8.8125 L 47.703125 -46.859375 C 47.421875 -52.804688 46.066406 -56.851562 43.640625 -59 C 41.222656 -61.144531 38.046875 -62.21875 34.109375 -62.21875 L 4.5625 -62.21875 L 4.5625 -49.453125 L 12.234375 -49.453125 C 10.441406 -47.453125 9.234375 -44.273438 8.609375 -39.921875 Z M 27.265625 -14.3125 L 30.6875 -14.3125 C 31.382812 -14.3125 31.734375 -14.722656 31.734375 -15.546875 L 30.484375 -38.78125 Z M 27.265625 -14.3125 "/></g></g><g style="fill:#ff8ca1;fill-opacity:1;"><g transform="translate(262.965122, 115.068588)"><path style="stroke:none" d=""/></g></g><g style="fill:#ff8ca1;fill-opacity:1;"><g transform="translate(284.220795, 115.068588)"><path style="stroke:none" d="M 15.03125 20.53125 C 14.613281 20.53125 14.210938 20.476562 13.828125 20.375 C 13.453125 20.269531 13.023438 20.078125 12.546875 19.796875 L 8.8125 17.3125 C 8.050781 16.832031 7.671875 16.140625 7.671875 15.234375 L 7.671875 -44.890625 L 2.59375 -48.109375 C 1.90625 -48.523438 1.5625 -49.25 1.5625 -50.28125 L 1.5625 -62.109375 C 1.5625 -63.210938 2.113281 -63.765625 3.21875 -63.765625 L 18.359375 -63.765625 C 20.285156 -63.765625 21.890625 -63.488281 23.171875 -62.9375 C 24.453125 -62.382812 25.539062 -61.765625 26.4375 -61.078125 C 27.957031 -59.960938 29.097656 -58.785156 29.859375 -57.546875 C 30.617188 -56.304688 31 -54.546875 31 -52.265625 L 31 17.828125 C 31 18.867188 30.703125 19.578125 30.109375 19.953125 C 29.523438 20.335938 28.925781 20.53125 28.3125 20.53125 Z M 9.234375 15.859375 L 25.296875 15.859375 L 25.296875 -55.375 C 25.296875 -57.863281 24.773438 -59.625 23.734375 -60.65625 C 22.703125 -61.695312 20.910156 -62.21875 18.359375 -62.21875 L 3.109375 -62.21875 L 3.109375 -49.453125 L 6.84375 -49.453125 C 7.8125 -49.453125 8.453125 -49.3125 8.765625 -49.03125 C 9.078125 -48.757812 9.234375 -48.140625 9.234375 -47.171875 Z M 9.234375 15.859375 "/></g></g><g style="fill:#ff8ca1;fill-opacity:1;"><g transform="translate(315.222985, 115.068588)"><path style="stroke:none" d="M 8.40625 4.671875 C 7.570312 4.671875 6.84375 4.460938 6.21875 4.046875 L 2.390625 1.5625 C 1.484375 1 1.132812 0.203125 1.34375 -0.828125 L 7.046875 -40.125 C 7.191406 -41.09375 7.363281 -42.007812 7.5625 -42.875 C 7.769531 -43.738281 7.976562 -44.550781 8.1875 -45.3125 L 4.359375 -47.703125 C 3.453125 -48.253906 3 -49.015625 3 -49.984375 L 3 -62.109375 C 3 -63.210938 3.554688 -63.765625 4.671875 -63.765625 L 34.109375 -63.765625 C 36.671875 -63.765625 38.816406 -63.398438 40.546875 -62.671875 C 42.273438 -61.953125 43.96875 -60.96875 45.625 -59.71875 C 48.113281 -57.789062 49.976562 -55.6875 51.21875 -53.40625 C 52.46875 -51.125 53.195312 -47.941406 53.40625 -43.859375 L 55.578125 -5.8125 C 55.847656 1.175781 52.359375 4.671875 45.109375 4.671875 L 31 4.671875 C 30.101562 4.671875 29.378906 4.425781 28.828125 3.9375 L 25.203125 1.140625 L 24.984375 2.171875 C 24.847656 3.078125 24.503906 3.71875 23.953125 4.09375 C 23.398438 4.476562 22.8125 4.671875 22.1875 4.671875 Z M 2.796875 0 L 19.1875 0 L 25.296875 -45.9375 C 25.503906 -47.519531 25.796875 -48.570312 26.171875 -49.09375 C 26.554688 -49.613281 27.195312 -49.875 28.09375 -49.875 L 28.515625 -49.875 C 29.691406 -49.875 30.503906 -49.457031 30.953125 -48.625 C 31.398438 -47.800781 31.660156 -46.382812 31.734375 -44.375 L 33.28125 -15.65625 C 33.351562 -14.613281 33.25 -13.867188 32.96875 -13.421875 C 32.695312 -12.972656 32.007812 -12.75 30.90625 -12.75 L 25.71875 -12.75 L 25.71875 0 L 40.953125 0 C 44.203125 0 46.535156 -0.707031 47.953125 -2.125 C 49.367188 -3.539062 50.007812 -5.769531 49.875 -8.8125 L 47.703125 -46.859375 C 47.421875 -52.804688 46.066406 -56.851562 43.640625 -59 C 41.222656 -61.144531 38.046875 -62.21875 34.109375 -62.21875 L 4.5625 -62.21875 L 4.5625 -49.453125 L 12.234375 -49.453125 C 10.441406 -47.453125 9.234375 -44.273438 8.609375 -39.921875 Z M 27.265625 -14.3125 L 30.6875 -14.3125 C 31.382812 -14.3125 31.734375 -14.722656 31.734375 -15.546875 L 30.484375 -38.78125 Z M 27.265625 -14.3125 "/></g></g><g style="fill:#ff8ca1;fill-opacity:1;"><g transform="translate(368.828785, 115.068588)"><path style="stroke:none" d="M 20.640625 4.671875 C 19.597656 4.671875 18.695312 4.425781 17.9375 3.9375 L 15.34375 2.28125 C 14.789062 1.9375 14.441406 1.585938 14.296875 1.234375 C 14.160156 0.890625 14.0625 0.515625 14 0.109375 L 10.578125 -41.375 C 10.503906 -43.03125 10.609375 -44.582031 10.890625 -46.03125 L 5.1875 -49.5625 C 3.59375 -50.53125 2.414062 -51.476562 1.65625 -52.40625 C 0.894531 -53.34375 0.34375 -54.019531 0 -54.4375 C -0.476562 -55.195312 -0.679688 -55.785156 -0.609375 -56.203125 C -0.546875 -56.617188 -0.34375 -57.066406 0 -57.546875 L 7.78125 -66.46875 C 8.332031 -67.019531 8.863281 -67.242188 9.375 -67.140625 C 9.894531 -67.035156 10.332031 -66.738281 10.6875 -66.25 C 11.582031 -65.144531 12.390625 -64.453125 13.109375 -64.171875 C 13.835938 -63.898438 14.859375 -63.765625 16.171875 -63.765625 L 36.5 -63.765625 C 37.394531 -63.765625 38.191406 -63.453125 38.890625 -62.828125 L 41.375 -60.65625 C 42.0625 -60.175781 42.40625 -59.347656 42.40625 -58.171875 L 42.40625 -47.484375 C 42.40625 -46.660156 42.144531 -46.003906 41.625 -45.515625 C 41.113281 -45.035156 40.476562 -44.796875 39.71875 -44.796875 L 37.21875 -44.796875 C 35.769531 -44.796875 34.800781 -44.414062 34.3125 -43.65625 C 33.832031 -42.894531 33.660156 -41.441406 33.796875 -39.296875 L 37.125 1.859375 C 37.257812 3.734375 36.394531 4.671875 34.53125 4.671875 Z M 15.453125 0 L 31.515625 0 L 28.09375 -42.296875 C 27.882812 -44.929688 28.175781 -46.78125 28.96875 -47.84375 C 29.769531 -48.914062 31.140625 -49.453125 33.078125 -49.453125 L 36.703125 -49.453125 L 36.703125 -62.21875 L 16.171875 -62.21875 C 14.304688 -62.21875 12.925781 -62.472656 12.03125 -62.984375 C 11.132812 -63.503906 10.203125 -64.421875 9.234375 -65.734375 L 0.828125 -56.09375 C 2.210938 -53.738281 4.0625 -52.039062 6.375 -51 C 8.6875 -49.96875 11.226562 -49.453125 14 -49.453125 L 14.625 -49.453125 C 12.6875 -47.722656 11.851562 -45.0625 12.125 -41.46875 Z M 15.453125 0 "/></g></g><g style="fill:#ff8ca1;fill-opacity:1;"><g transform="translate(408.33323, 115.068588)"><path style="stroke:none" d=""/></g></g><g style="fill:#ff8ca1;fill-opacity:1;"><g transform="translate(429.588925, 115.068588)"><path style="stroke:none" d="M 25.296875 4.671875 C 24.816406 4.671875 24.367188 4.632812 23.953125 4.5625 C 23.535156 4.488281 23.050781 4.25 22.5 3.84375 L 19.59375 1.859375 C 18.695312 1.242188 18.25 0.484375 18.25 -0.421875 L 18.25 -44.796875 L 6.21875 -44.796875 C 5.738281 -44.796875 5.304688 -44.878906 4.921875 -45.046875 C 4.546875 -45.222656 4.1875 -45.414062 3.84375 -45.625 L 1.34375 -47.390625 C 0.375 -48.078125 -0.109375 -48.867188 -0.109375 -49.765625 L -0.109375 -62.109375 C -0.109375 -63.210938 0.445312 -63.765625 1.5625 -63.765625 L 25.40625 -63.765625 C 27.894531 -63.765625 30.019531 -63.453125 31.78125 -62.828125 C 33.539062 -62.210938 35.007812 -61.421875 36.1875 -60.453125 C 37.988281 -59.066406 39.335938 -57.507812 40.234375 -55.78125 C 41.128906 -54.050781 41.578125 -51.664062 41.578125 -48.625 L 41.578125 1.96875 C 41.578125 2.726562 41.316406 3.367188 40.796875 3.890625 C 40.273438 4.410156 39.640625 4.671875 38.890625 4.671875 Z M 19.796875 0 L 35.875 0 L 35.875 -51.734375 C 35.875 -55.535156 35.09375 -58.234375 33.53125 -59.828125 C 31.976562 -61.421875 29.269531 -62.21875 25.40625 -62.21875 L 1.453125 -62.21875 L 1.453125 -49.453125 L 16.078125 -49.453125 C 18.554688 -49.453125 19.796875 -48.207031 19.796875 -45.71875 Z M 19.796875 0 "/></g></g><g style="fill:#ff8ca1;fill-opacity:1;"><g transform="translate(471.167079, 115.068588)"><path style="stroke:none" d="M 15.234375 -21.671875 C 14.546875 -21.671875 14.03125 -21.738281 13.6875 -21.875 C 13.34375 -22.007812 12.960938 -22.21875 12.546875 -22.5 L 8.921875 -24.671875 C 8.367188 -25.023438 8.003906 -25.40625 7.828125 -25.8125 C 7.648438 -26.226562 7.5625 -26.710938 7.5625 -27.265625 L 7.5625 -44.578125 L 2.796875 -47.484375 C 2.109375 -47.898438 1.675781 -48.316406 1.5 -48.734375 C 1.332031 -49.148438 1.25 -49.597656 1.25 -50.078125 L 1.25 -62.109375 C 1.25 -63.210938 1.800781 -63.765625 2.90625 -63.765625 L 17 -63.765625 C 21.082031 -63.765625 24.226562 -62.691406 26.4375 -60.546875 C 27.613281 -59.441406 28.632812 -58.234375 29.5 -56.921875 C 30.363281 -55.609375 30.796875 -53.640625 30.796875 -51.015625 L 30.796875 -24.359375 C 30.796875 -23.597656 30.535156 -22.957031 30.015625 -22.4375 C 29.492188 -21.925781 28.851562 -21.671875 28.09375 -21.671875 Z M 9.125 -26.34375 L 25.09375 -26.34375 L 25.09375 -54.125 C 25.09375 -57.09375 24.488281 -59.179688 23.28125 -60.390625 C 22.070312 -61.609375 19.976562 -62.21875 17 -62.21875 L 2.796875 -62.21875 L 2.796875 -49.453125 L 6.734375 -49.453125 C 7.703125 -49.453125 8.34375 -49.3125 8.65625 -49.03125 C 8.96875 -48.757812 9.125 -48.140625 9.125 -47.171875 Z M 9.125 -26.34375 "/></g></g><g style="fill:#ff8ca1;fill-opacity:1;"><g transform="translate(501.339777, 115.068588)"><path style="stroke:none" d="M 7.984375 4.671875 C 7.085938 4.671875 6.289062 4.425781 5.59375 3.9375 L 1.96875 1.65625 C 1.207031 1.175781 0.828125 0.453125 0.828125 -0.515625 L 0.828125 -12.65625 C 0.828125 -13.757812 1.378906 -14.3125 2.484375 -14.3125 L 26.234375 -14.3125 C 26.648438 -14.3125 26.925781 -14.414062 27.0625 -14.625 C 27.195312 -14.832031 27.160156 -15.488281 26.953125 -16.59375 L 26.4375 -18.5625 L 10.265625 -29.65625 C 9.503906 -30.207031 8.914062 -30.878906 8.5 -31.671875 C 8.082031 -32.472656 7.738281 -33.390625 7.46875 -34.421875 L 0.828125 -61.796875 C 0.691406 -62.421875 0.796875 -62.90625 1.140625 -63.25 C 1.484375 -63.59375 1.898438 -63.765625 2.390625 -63.765625 L 17.734375 -63.765625 C 18.285156 -63.765625 18.734375 -63.710938 19.078125 -63.609375 C 19.421875 -63.503906 19.835938 -63.242188 20.328125 -62.828125 L 23.015625 -60.453125 C 23.847656 -59.753906 24.398438 -58.785156 24.671875 -57.546875 L 25.8125 -52.875 L 28.203125 -62.3125 C 28.410156 -63.28125 29.101562 -63.765625 30.28125 -63.765625 L 45.71875 -63.765625 C 46.34375 -63.765625 46.8125 -63.675781 47.125 -63.5 C 47.4375 -63.332031 47.832031 -63.007812 48.3125 -62.53125 L 51.125 -59.828125 C 51.675781 -59.203125 51.8125 -58.300781 51.53125 -57.125 L 44.0625 -28.3125 C 46.625 -26.300781 48.179688 -23.984375 48.734375 -21.359375 L 51.53125 -8.09375 C 52.289062 -4.289062 51.789062 -1.210938 50.03125 1.140625 C 48.269531 3.492188 45.488281 4.671875 41.6875 4.671875 Z M 2.390625 0 L 37.53125 0 C 40.988281 0 43.40625 -1.019531 44.78125 -3.0625 C 46.164062 -5.101562 46.515625 -7.710938 45.828125 -10.890625 L 43.03125 -24.15625 C 42.75 -25.75 42.160156 -27.007812 41.265625 -27.9375 C 40.367188 -28.875 39.265625 -29.65625 37.953125 -30.28125 L 46.25 -62.21875 L 29.765625 -62.21875 L 24.15625 -39.5 L 18.5625 -62.21875 L 2.28125 -62.21875 L 9.015625 -34.84375 C 9.367188 -33.382812 9.875 -32.289062 10.53125 -31.5625 C 11.1875 -30.84375 12.132812 -30.207031 13.375 -29.65625 L 24.15625 -24.46875 C 25.195312 -23.988281 26.007812 -23.421875 26.59375 -22.765625 C 27.1875 -22.109375 27.582031 -21.191406 27.78125 -20.015625 L 28.515625 -16.90625 C 28.859375 -15.175781 28.835938 -14.050781 28.453125 -13.53125 C 28.078125 -13.007812 27.40625 -12.75 26.4375 -12.75 L 2.390625 -12.75 Z M 2.390625 0 "/></g></g></g></svg>